<svg width="284" height="91" fill="none" xmlns="http://www.w3.org/2000/svg"><path fill="#100955" d="M7 8h270v76H7z"/><g filter="url(#filter0_d)"><path stroke="#FF6B00" d="M8.5 9.5h267v73H8.5z"/></g><path stroke="#FF6B00" stroke-width="3" d="M8 9.5h16m252 0h-16M8 82.5h16m252 0h-16M8.5 8v16m267-16v16M8.5 84V67m267 17V67"/><path fill="#100955" d="M7 7h270v76H7z"/><g filter="url(#filter1_d)"><path stroke="#FF6B00" d="M8.5 8.5h267v73H8.5z"/></g><path stroke="#FF6B00" stroke-width="3" d="M8 8.5h16m252 0h-16M8 81.5h16m252 0h-16M8.5 7v16m267-16v16M8.5 83V66m267 17V66"/><defs><filter id="filter0_d" x="0" y="1" width="284" height="90" filterUnits="userSpaceOnUse" color-interpolation-filters="sRGB"><feFlood flood-opacity="0" result="BackgroundImageFix"/><feColorMatrix in="SourceAlpha" values="0 0 0 0 0 0 0 0 0 0 0 0 0 0 0 0 0 0 127 0"/><feOffset/><feGaussianBlur stdDeviation="4"/><feColorMatrix values="0 0 0 0 0.00416666 0 0 0 0 0.8805 0 0 0 0 1 0 0 0 1 0"/><feBlend in2="BackgroundImageFix" result="effect1_dropShadow"/><feBlend in="SourceGraphic" in2="effect1_dropShadow" result="shape"/></filter><filter id="filter1_d" x="0" y="0" width="284" height="90" filterUnits="userSpaceOnUse" color-interpolation-filters="sRGB"><feFlood flood-opacity="0" result="BackgroundImageFix"/><feColorMatrix in="SourceAlpha" values="0 0 0 0 0 0 0 0 0 0 0 0 0 0 0 0 0 0 127 0"/><feOffset/><feGaussianBlur stdDeviation="4"/><feColorMatrix values="0 0 0 0 1 0 0 0 0 0.419608 0 0 0 0 0 0 0 0 1 0"/><feBlend in2="BackgroundImageFix" result="effect1_dropShadow"/><feBlend in="SourceGraphic" in2="effect1_dropShadow" result="shape"/></filter></defs></svg>