<svg width="587" height="582" fill="none" xmlns="http://www.w3.org/2000/svg"><mask id="mask0" maskUnits="userSpaceOnUse" x="0" y="0" width="587" height="582"><path d="M291.619 87.827a205.92 205.92 0 0163.472 11.042l-16.183 47.349a155.878 155.878 0 00-48.048-8.359l.759-50.032zm70.147 13.384a205.929 205.929 0 0157.29 33.253l-31.753 38.673a155.854 155.854 0 00-43.369-25.173l17.832-46.753zm63.116 38.152a205.909 205.909 0 0144.352 56.316l-44.099 23.645a155.88 155.88 0 00-33.575-42.631l33.322-37.33zm47.556 62.229a205.905 205.905 0 0118.631 61.672l-49.574 6.799a155.887 155.887 0 00-14.103-46.686l45.046-21.785zm19.865 69.143a205.918 205.918 0 01-17.428 103.373l-45.599-20.605a155.876 155.876 0 0013.193-78.253l49.834-4.515zm-20.401 109.678a205.92 205.92 0 01-73.192 82.517l-27.173-42.017a155.883 155.883 0 0055.406-62.465l44.959 21.965zm-80.299 86.905a205.917 205.917 0 01-227.404-25.492l32.264-38.247a155.876 155.876 0 00172.145 19.298l22.995 44.441zM159.08 437.102a205.913 205.913 0 01-46.452-237.619l45.369 21.105a155.883 155.883 0 0035.164 179.878l-34.081 36.636zm-43.378-244.2a205.927 205.927 0 0163.385-71.525l28.726 40.971a155.893 155.893 0 00-47.983 54.145l-44.128-23.591zm70.282-76.804A205.918 205.918 0 01283.74 87.77l1.618 50.012a155.88 155.88 0 00-74.001 21.445l-25.373-43.129z" fill="#C4C4C4"/></mask><g mask="url(#mask0)"><path d="M513.228 290.063c0 120.941-98.043 218.984-218.984 218.984-120.942 0-218.985-98.043-218.985-218.984 0-120.942 98.043-218.985 218.985-218.985 120.941 0 218.984 98.043 218.984 218.985z" fill="url(#paint0_angular)"/></g><defs><radialGradient id="paint0_angular" cx="0" cy="0" r="1" gradientUnits="userSpaceOnUse" gradientTransform="rotate(23.642 -545.836 847.978) scale(407.921)"><stop offset=".161" stop-color="#DB00D2"/><stop offset="1" stop-color="#38A0FF"/></radialGradient></defs></svg>