<svg width="89" height="89" fill="none" xmlns="http://www.w3.org/2000/svg"><path d="M41.287 76.57l.302-3.054a29.573 29.573 0 01-2.917-.44l-.607 3.01c1.057.215 2.142.379 3.222.485zm38.051-48.167l5.677-2.35a44.68 44.68 0 00-7.983-11.915l-4.34 4.34a38.508 38.508 0 016.646 9.925zm-4.476-16.435a44.653 44.653 0 00-11.914-7.983l-2.351 5.677a38.52 38.52 0 019.926 6.646l4.34-4.34zM60.114 2.806A44.248 44.248 0 0046.044 0v6.145c4.104.163 8.04.981 11.718 2.34l2.352-5.679zm26.08 26.081l-5.678 2.351a38.123 38.123 0 012.34 11.72H89a44.206 44.206 0 00-2.806-14.071zM24.006 12.05l-3.072-5.321C1.127 19.082-5.766 44.809 5.21 65.409l5.32-3.072c-4.51-8.568-5.612-18.37-3.09-27.778 2.518-9.406 8.376-17.344 16.566-22.51zM72.71 70.527l4.345 4.346a44.456 44.456 0 005.215-6.804l-5.32-3.071a38.529 38.529 0 01-4.24 5.53zM54.443 81.563c-9.407 2.52-19.21 1.417-27.777-3.092l-3.072 5.32C35.242 90 48.527 90.489 60.109 86.165l-2.344-5.659a38.884 38.884 0 01-3.322 1.058zm6.153-2.244l2.347 5.666a44.375 44.375 0 0011.934-7.952l-4.345-4.345a37.803 37.803 0 01-9.936 6.63zM44.509 76.73a32.204 32.204 0 0021.324-8.06l-2.033-2.3a29.135 29.135 0 01-19.291 7.29v3.07z" fill="#fff"/><g fill="#A0A0A0"><path d="M32.897 32.655a.69.69 0 11-1.38 0 .69.69 0 011.38 0zm8.702 11.817a5.137 5.137 0 00-.107.261l-.116.306-1.583.527v1.765l1.583.528.116.305c.034.09.07.175.107.261l.133.298-.745 1.492 1.247 1.247 1.491-.745.299.133c.085.038.172.073.26.107l.306.115.528 1.584h1.764l.528-1.584.306-.115c.089-.034.175-.07.26-.107l.299-.133 1.491.745 1.248-1.248-.746-1.49.134-.299c.038-.085.072-.172.106-.26l.116-.306 1.583-.528v-1.765l-1.584-.527-.115-.306a5.876 5.876 0 00-.107-.26l-.134-.299.746-1.491-1.248-1.248-1.49.746-.3-.134a5.1 5.1 0 00-.26-.106l-.306-.116-.527-1.584h-1.765l-.527 1.584-.306.116c-.09.034-.175.069-.26.106l-.3.134-1.49-.746-1.248 1.248.746 1.491-.133.298zm4.4-1.472a3.452 3.452 0 013.45 3.448 3.452 3.452 0 01-3.45 3.449 3.452 3.452 0 01-3.447-3.449A3.452 3.452 0 0146 43z"/><path d="M48.069 46.448a2.069 2.069 0 11-4.138 0 2.069 2.069 0 014.138 0zm12.414-13.793a.69.69 0 11-1.38 0 .69.69 0 011.38 0z"/><path d="M26 55.414h10.06l3.113-3.114.975.975-2.138 2.139h15.98l-2.138-2.139.975-.975 3.114 3.114H66V29.207H26v26.207zm38.62-5.518h-6.896v-1.379h6.897v1.38zm0-2.758h-6.896v-1.38h6.897v1.38zm0-2.759h-6.896V43h6.897v1.38zm0-2.758h-6.896v-1.38h6.897v1.38zm0-2.759h-6.896v-1.38h6.897v1.38zm-6.896-6.207c0-1.14.929-2.069 2.07-2.069 1.14 0 2.068.929 2.068 2.07a2.07 2.07 0 01-2.069 2.068 2.04 2.04 0 01-.886-.207l-6.08 6.079-.975-.975 6.08-6.08a2.036 2.036 0 01-.208-.886zm-14.165 7.9l.564-1.693h3.753l.564 1.694 1.597-.799 2.654 2.654-.8 1.596 1.695.565v3.753l-1.694.564.8 1.596-2.655 2.654-1.596-.799-.564 1.694h-3.753l-.564-1.694-1.597.8-2.654-2.655.8-1.596-1.695-.564v-3.753l1.694-.564-.8-1.596 2.655-2.654 1.596.798zm-11.352-9.969c1.14 0 2.069.929 2.069 2.07 0 .318-.078.616-.208.885l6.08 6.08-.976.975-6.079-6.08c-.27.13-.568.208-.886.208a2.072 2.072 0 01-2.07-2.069c0-1.14.93-2.069 2.07-2.069zm-4.828 6.897h6.897v1.379h-6.897v-1.38zm0 2.758h6.897v1.38h-6.897v-1.38zm0 2.759h6.897v1.38h-6.897V43zm0 2.758h6.897v1.38h-6.897v-1.38zm0 2.76h6.897v1.378h-6.897v-1.379zM26 23.69v4.138h40V23.69H26zm2.759 2.758h-1.38V25.07h1.38v1.38zm2.758 0h-1.38V25.07h1.38v1.38zm2.759 0h-1.38V25.07h1.38v1.38z"/><path d="M57.932 59.355c-.13.27-.208.569-.208.886 0 1.141.929 2.07 2.07 2.07 1.14 0 2.068-.929 2.068-2.07 0-1.14-.928-2.069-2.069-2.069-.318 0-.616.078-.886.208l-2.966-2.966h-1.95l3.94 3.941zm1.861.197a.69.69 0 110 1.38.69.69 0 010-1.38zm-26.7-1.172a2.047 2.047 0 00-.886-.208c-1.14 0-2.07.929-2.07 2.07 0 1.14.93 2.068 2.07 2.068 1.14 0 2.069-.928 2.069-2.069 0-.318-.078-.616-.208-.886l3.942-3.941h-1.95l-2.967 2.966zm-.886 2.551a.69.69 0 11.001-1.38.69.69 0 01-.001 1.38z"/></g></svg>