<svg width="89" height="89" fill="none" xmlns="http://www.w3.org/2000/svg"><path d="M41.287 76.57l.302-3.054a29.573 29.573 0 01-2.917-.44l-.607 3.01c1.057.215 2.142.379 3.222.485zm38.051-48.167l5.677-2.35a44.68 44.68 0 00-7.983-11.915l-4.34 4.34a38.508 38.508 0 016.646 9.925zm-4.476-16.435a44.653 44.653 0 00-11.914-7.983l-2.351 5.677a38.52 38.52 0 019.926 6.646l4.34-4.34zM60.114 2.806A44.248 44.248 0 0046.044 0v6.145c4.104.163 8.04.981 11.718 2.34l2.352-5.679zm26.08 26.081l-5.678 2.351a38.123 38.123 0 012.34 11.72H89a44.206 44.206 0 00-2.806-14.071zM24.006 12.05l-3.072-5.321C1.127 19.082-5.766 44.809 5.21 65.409l5.32-3.072c-4.51-8.568-5.612-18.37-3.09-27.778 2.518-9.406 8.376-17.344 16.566-22.51zM72.71 70.527l4.345 4.346a44.456 44.456 0 005.215-6.804l-5.32-3.071a38.529 38.529 0 01-4.24 5.53zM54.443 81.563c-9.407 2.52-19.21 1.417-27.777-3.092l-3.072 5.32C35.242 90 48.527 90.489 60.109 86.165l-2.344-5.659a38.884 38.884 0 01-3.322 1.058zm6.153-2.244l2.347 5.666a44.375 44.375 0 0011.934-7.952l-4.345-4.345a37.803 37.803 0 01-9.936 6.63zM44.509 76.73a32.204 32.204 0 0021.324-8.06l-2.033-2.3a29.135 29.135 0 01-19.291 7.29v3.07z" fill="#fff"/><g fill="#A0A0A0"><path d="M59 51.75a.625.625 0 100-1.25.625.625 0 000 1.25zm-4.375 3.75a.625.625 0 100-1.25.625.625 0 000 1.25zM50.25 53a.625.625 0 100-1.25.625.625 0 000 1.25z"/><path d="M61.5 48H47.75a.625.625 0 00-.625.625v8.75c0 .345.28.625.625.625H61.5c.345 0 .625-.28.625-.625v-8.75A.625.625 0 0061.5 48zM59 53a1.84 1.84 0 01-.928-.256l-1.702 1.459c.081.209.13.434.13.672a1.877 1.877 0 01-1.875 1.875 1.877 1.877 0 01-1.875-1.875c0-.114.014-.224.034-.333l-1.317-.752c-.329.282-.75.46-1.217.46a1.877 1.877 0 01-1.875-1.875c0-1.034.841-1.875 1.875-1.875s1.875.841 1.875 1.875c0 .114-.014.224-.034.333l1.317.752c.329-.282.75-.46 1.217-.46.34 0 .654.097.929.256l1.701-1.459a1.852 1.852 0 01-.13-.672c0-1.034.841-1.875 1.875-1.875s1.875.841 1.875 1.875A1.877 1.877 0 0159 53zM47.75 36.125H49v5h-1.25v-5zm7.5-3.75h1.25v8.75h-1.25v-8.75zm-2.5 1.25H54v7.5h-1.25v-7.5zm-10.312 7.5a.939.939 0 00-.938.938v5.312c0 1.379-1.121 2.5-2.5 2.5h-4.775l.42 5.865-1.895 1.894-1.894-1.894.418-5.853c-2.997.12-5.399 2.587-5.399 5.613v5.625h1.875V53H29v8.125h7.5v-6.196c0-1.058.756-1.963 1.796-2.152l2-.363a3.749 3.749 0 003.079-3.69v-6.661a.939.939 0 00-.938-.938zm-9.688-2.5a6.87 6.87 0 005-2.18V30.5c0-.788.49-1.46 1.18-1.738a6.881 6.881 0 00-6.18-3.887 6.883 6.883 0 00-6.875 6.875 6.883 6.883 0 006.875 6.875zm0-6.25a2.503 2.503 0 01-2.5-2.5v-2.5h1.875v-1.25h1.25v1.339a2.497 2.497 0 011.875 2.411H34c0-.69-.56-1.25-1.25-1.25H31.5v1.25c0 .69.56 1.25 1.25 1.25 1.379 0 2.5 1.121 2.5 2.5v2.5h-1.875v1.25h-1.25v-1.339a2.497 2.497 0 01-1.875-2.411h1.25c0 .69.56 1.25 1.25 1.25H34v-1.25c0-.69-.56-1.25-1.25-1.25z"/><path d="M32.75 48.625a3.125 3.125 0 100-6.25 3.125 3.125 0 000 6.25zm-.607 6.635l.607.606.606-.606-.384-5.385h-.444l-.385 5.385zM50.25 34.875h1.25v6.25h-1.25v-6.25z"/><path d="M58.375 43.625c.345 0 .625-.28.625-.625V30.5a.625.625 0 00-.625-.625h-18.75A.625.625 0 0039 30.5V43c0 .345.28.625.625.625h.625v-1.563a2.19 2.19 0 012.188-2.187 2.19 2.19 0 012.187 2.188v1.562h13.75zm-9.375-10h2.5v-1.25H54v-1.25h3.75v11.25H46.5v-7.5H49v-1.25zm-3.75-2.5h1.25v1.25h-1.25v-1.25zm-2.5 0H44v1.25h-1.25v-1.25zm-2.5 0h1.25v1.25h-1.25v-1.25zm0 2.5h5v1.25h-5v-1.25zm0 3.75v-1.25h5v1.25h-5z"/></g></svg>