<svg width="89" height="89" fill="none" xmlns="http://www.w3.org/2000/svg"><path d="M41.287 76.57l.302-3.054a29.568 29.568 0 01-2.916-.44l-.608 3.01c1.057.215 2.143.379 3.222.485zm38.051-48.167l5.677-2.35a44.681 44.681 0 00-7.983-11.914l-4.34 4.34a38.509 38.509 0 016.646 9.924zm-4.476-16.435a44.654 44.654 0 00-11.914-7.983l-2.351 5.677c3.655 1.695 7 3.944 9.925 6.646l4.34-4.34zM60.114 2.806A44.248 44.248 0 0046.044 0v6.145c4.104.163 8.04.981 11.718 2.34l2.352-5.679zm26.081 26.081l-5.679 2.351a38.126 38.126 0 012.34 11.72H89a44.21 44.21 0 00-2.806-14.071zM24.006 12.05l-3.072-5.321C1.127 19.082-5.766 44.809 5.21 65.409l5.32-3.072c-4.51-8.568-5.612-18.37-3.09-27.778 2.518-9.406 8.376-17.344 16.566-22.51zm48.705 58.477l4.345 4.346a44.456 44.456 0 005.214-6.804l-5.32-3.071a38.529 38.529 0 01-4.239 5.53zM54.442 81.563c-9.407 2.52-19.21 1.417-27.777-3.092l-3.072 5.32C35.241 90 48.526 90.489 60.108 86.165l-2.344-5.659a38.894 38.894 0 01-3.322 1.058zm6.154-2.244l2.347 5.666a44.376 44.376 0 0011.934-7.952l-4.345-4.345a37.801 37.801 0 01-9.936 6.63zM44.51 76.73a32.204 32.204 0 0021.323-8.06l-2.032-2.3a29.135 29.135 0 01-19.292 7.29v3.07z" fill="#fff"/><g fill="#A0A0A0"><path d="M38.273 39.114h-2.759v5.964a24.11 24.11 0 001.687-1.02l.173-.116h.899v-4.828zM25.86 56.432a25.201 25.201 0 0111.034 3.519V45.862a25.203 25.203 0 01-11.034 3.52v7.05zm1.38-5.594h1.379v1.379h-1.38v-1.38zm0 2.758h1.379v1.38h-1.38v-1.38zm-3.45-4.137a3.452 3.452 0 00-3.447 3.448 3.452 3.452 0 003.448 3.448h.126c.189 0 .375.016.563.02v-6.937c-.188.005-.374.02-.563.02h-.126zm1.38 9.515v6.347a1.38 1.38 0 002.759-.001v-7.236a24.06 24.06 0 00-3.334-.325l.575 1.215zm18.62-22.619h2.76v20.69h-2.76v-20.69zm-5.517 8.965h1.38v15.173h-1.38V45.321zm15.173-7.585a1.38 1.38 0 100-2.759 1.38 1.38 0 000 2.759z"/><path d="M29.998 26.7v20.581c1.42-.372 2.806-.86 4.138-1.49v-8.057h5.517v6.207h1.38v13.104h1.379v-22.07h5.517v22.07h2.758V40.493h5.518v16.552h4.138V26.7H29.998zm23.448 12.414a2.761 2.761 0 01-2.758-2.759c0-.317.064-.617.163-.901L47 32.886a2.736 2.736 0 01-1.83.71 2.755 2.755 0 01-2.31-1.26l-3.226 1.074c.005.063.02.122.02.187a2.761 2.761 0 01-2.76 2.758 2.761 2.761 0 01-2.758-2.758 2.761 2.761 0 012.759-2.76c.968 0 1.818.505 2.31 1.262l3.226-1.075c-.005-.063-.02-.123-.02-.186a2.761 2.761 0 012.76-2.759 2.761 2.761 0 012.758 2.759c0 .317-.065.617-.163.901l3.85 2.568a2.736 2.736 0 011.83-.71 2.761 2.761 0 012.759 2.758 2.761 2.761 0 01-2.759 2.759z"/><path d="M52.066 41.872h2.759v15.172h-2.759V41.873zm-15.172-6.897a1.38 1.38 0 100-2.758 1.38 1.38 0 000 2.758zm8.276-2.758a1.38 1.38 0 100-2.758 1.38 1.38 0 000 2.758z"/></g></svg>