<svg width="89" height="89" fill="none" xmlns="http://www.w3.org/2000/svg"><path d="M47.713 76.57l-.302-3.054a29.573 29.573 0 002.917-.44l.607 3.01a32.127 32.127 0 01-3.222.485zM9.662 28.403l-5.677-2.35a44.681 44.681 0 017.983-11.915l4.34 4.34a38.51 38.51 0 00-6.646 9.925zm4.476-16.435a44.653 44.653 0 0111.914-7.982l2.351 5.677a38.515 38.515 0 00-9.926 6.645l-4.34-4.34zm14.748-9.162A44.249 44.249 0 0142.956 0v6.145c-4.104.163-8.04.981-11.718 2.34l-2.352-5.679zM2.806 28.887l5.678 2.351a38.125 38.125 0 00-2.34 11.72H0a44.209 44.209 0 012.806-14.071zM64.994 12.05l3.072-5.321c19.807 12.353 26.7 38.08 15.724 58.68l-5.32-3.072c4.51-8.567 5.612-18.37 3.091-27.778-2.52-9.406-8.377-17.344-16.567-22.51zM16.29 70.527l-4.345 4.346A44.46 44.46 0 016.73 68.07l5.32-3.071a38.529 38.529 0 004.24 5.53zm18.267 11.036c9.407 2.519 19.21 1.417 27.777-3.092l3.072 5.32c-11.648 6.207-24.933 6.697-36.515 2.373l2.344-5.659c1.086.398 2.192.755 3.322 1.058zm-6.151-2.244l-2.347 5.666a44.377 44.377 0 01-11.934-7.952l4.345-4.345a37.801 37.801 0 009.936 6.63zm16.085-2.589a32.204 32.204 0 01-21.324-8.059l2.033-2.3a29.135 29.135 0 0019.291 7.29v3.07z" fill="#fff"/><g clip-path="url(#clip0)" fill="#A0A0A0"><path d="M26 25.759h8.276v6.896H26V25.76zm8.276-2.069a.69.69 0 00-.69-.69H26.69a.69.69 0 00-.69.69v.69h8.276v-.69zM65.31 23h-9.655a.69.69 0 00-.69.69v4.827H66V23.69a.69.69 0 00-.69-.69zm-10.344 7.586c0 .38.309.69.69.69h9.654c.38 0 .69-.31.69-.69v-.69H54.966v.69zM26 62.31c0 .38.31.69.69.69h11.034c.38 0 .69-.31.69-.69v-.69H26v.69zm31.724.69H66v-4.138h-8.276V63zm5.517-2.759h1.38v1.38h-1.38v-1.38zm-4.138 0h2.759v1.38h-2.759v-1.38zm3.449-15.171H57.66a4.087 4.087 0 00-.498-1.38h4.01v-9.655h2.068v-1.38h-5.517v1.38h2.07v8.275H55.84a4.1 4.1 0 00-1.627-.637c.037-.242.063-.489.063-.742a4.824 4.824 0 00-9.199-2.04 4.799 4.799 0 00-2.525-.719 4.825 4.825 0 00-4.622 3.449h-7.102v-3.449h2.758a.69.69 0 00.69-.69v-3.447H26v3.448c0 .38.31.69.69.69h2.758V43h5.884a4.137 4.137 0 00-.81 1.38h-3.694v8.965h-2.759a.69.69 0 00-.69.69v6.207h9.655v-6.207a.69.69 0 00-.69-.69h-4.137v-7.586h2.069a4.138 4.138 0 004.138 4.138h15.172a4.136 4.136 0 004.076-3.449h3.51v6.897h-3.448v4.138H66v-4.138h-3.448v-8.276zm-33.793-9.656h2.758v1.38H28.76v-1.38zm31.724 20.69h-1.38v-1.38h1.38v1.38zm4.138 0h-2.759v-1.38h2.759v1.38z"/></g><defs><clipPath id="clip0"><path fill="#fff" transform="translate(26 23)" d="M0 0h40v40H0z"/></clipPath></defs></svg>