<svg width="89" height="89" fill="none" xmlns="http://www.w3.org/2000/svg"><path d="M47.713 76.57l-.302-3.054a29.573 29.573 0 002.917-.44l.607 3.01a32.127 32.127 0 01-3.222.485zM9.662 28.403l-5.677-2.35a44.681 44.681 0 017.983-11.915l4.34 4.34a38.51 38.51 0 00-6.646 9.925zm4.476-16.435a44.653 44.653 0 0111.914-7.982l2.351 5.677a38.515 38.515 0 00-9.926 6.645l-4.34-4.34zm14.748-9.162A44.249 44.249 0 0142.956 0v6.145c-4.104.163-8.04.981-11.718 2.34l-2.352-5.679zM2.806 28.887l5.678 2.351a38.125 38.125 0 00-2.34 11.72H0a44.209 44.209 0 012.806-14.071zM64.994 12.05l3.072-5.321c19.807 12.353 26.7 38.08 15.724 58.68l-5.32-3.072c4.51-8.567 5.612-18.37 3.091-27.778-2.52-9.406-8.377-17.344-16.567-22.51zM16.29 70.527l-4.345 4.346A44.46 44.46 0 016.73 68.07l5.32-3.071a38.529 38.529 0 004.24 5.53zm18.267 11.036c9.407 2.519 19.21 1.417 27.777-3.092l3.072 5.32c-11.648 6.207-24.933 6.697-36.515 2.373l2.344-5.659c1.086.398 2.192.755 3.322 1.058zm-6.151-2.244l-2.347 5.666a44.377 44.377 0 01-11.934-7.952l4.345-4.345a37.801 37.801 0 009.936 6.63zm16.085-2.589a32.204 32.204 0 01-21.324-8.059l2.033-2.3a29.135 29.135 0 0019.291 7.29v3.07z" fill="#fff"/><g fill="#A0A0A0"><path d="M56.118 61.955c-.923 0-1.29-1.035-1.645-2.038-.103-.291-.259-.722-.389-.962v7.746l2.034-1.525 2.034 1.525v-7.746c-.13.24-.285.67-.389.961-.354 1.003-.722 2.04-1.645 2.04zm1.357-8.135a1.356 1.356 0 11-2.712 0 1.356 1.356 0 012.712 0z"/><path d="M59.878 55.376c.254-.611 1.01-.879 1.884-1.188.273-.097.673-.24.937-.368a10.264 10.264 0 00-.937-.368c-.875-.31-1.63-.577-1.884-1.189-.26-.63.107-1.407.496-2.23.112-.236.273-.577.37-.839-.264.097-.603.258-.84.37-.822.39-1.598.757-2.23.496-.611-.254-.88-1.01-1.19-1.884a9.932 9.932 0 00-.367-.937c-.128.264-.27.664-.367.937-.31.875-.578 1.63-1.188 1.884-.63.261-1.407-.107-2.23-.496-.238-.112-.577-.273-.84-.37.097.263.257.603.37.84.389.822.757 1.599.496 2.23-.254.61-1.01.879-1.884 1.188-.272.097-.673.24-.937.368.264.129.665.271.938.368.874.31 1.63.577 1.883 1.188.261.631-.107 1.408-.496 2.23-.112.237-.273.577-.369.84.263-.097.603-.258.84-.37.63-.298 1.233-.584 1.764-.584.162 0 .317.027.465.088.612.253.88 1.01 1.19 1.884.096.273.238.672.367.936.129-.264.27-.663.367-.937.31-.874.578-1.629 1.189-1.883.63-.26 1.407.106 2.23.496.237.112.577.273.84.369-.097-.262-.258-.602-.37-.839-.39-.822-.758-1.599-.497-2.23zm-3.76 1.156a2.714 2.714 0 01-2.712-2.712 2.714 2.714 0 012.712-2.712 2.715 2.715 0 012.712 2.712 2.714 2.714 0 01-2.712 2.712zm-12.312-6.686l-3.28-.939v-1.955l.336-.196a2.012 2.012 0 001.02-1.75v-1.215c0-1.125-.814-2.076-1.851-2.166a2.013 2.013 0 00-1.558.526c-.419.384-.66.93-.66 1.5v1.355a2.01 2.01 0 001.02 1.75l.336.196v1.955l-3.281.939a2.028 2.028 0 00-1.346 1.262h10.61a2.025 2.025 0 00-1.346-1.262z"/><path d="M61.15 51.73c.198.137.732.326 1.064.444 1.003.355 2.04.723 2.04 1.646h1.355V38.904H31.711V53.82h16.271c0-.923 1.037-1.29 2.04-1.647.342-.12.897-.317 1.08-.456-.03-.181-.3-.754-.466-1.104-.445-.94-.905-1.912-.271-2.546.634-.635 1.607-.175 2.547.27.334.158.87.412 1.116.45.138-.198.327-.732.445-1.064.354-1.002.722-2.039 1.645-2.039s1.29 1.036 1.645 2.039c.122.343.319.899.457 1.082.181-.03.754-.301 1.103-.466.94-.445 1.913-.906 2.547-.271.635.635.175 1.606-.27 2.546-.158.333-.412.87-.45 1.116zm-14.524.734H33.067v-.678a3.39 3.39 0 012.447-3.245l2.299-.656v-.181a3.393 3.393 0 01-1.356-2.698V43.65a3.4 3.4 0 011.1-2.5 3.408 3.408 0 012.59-.877c1.733.151 3.09 1.697 3.09 3.518v1.215c0 1.06-.512 2.061-1.356 2.698v.18l2.298.657a3.39 3.39 0 012.447 3.245v.678zm17.628-8.136h-1.356v-1.356h1.356v1.356zm-2.712 0h-13.56v-1.356h13.56v1.356zm-13.56-2.712v-1.355h16.272v1.355H47.982z"/><path d="M66.288 36.193h-6.53l-9.098-7.799a2.033 2.033 0 00-1.999-1.693 2.033 2.033 0 00-2 1.693l-9.098 7.799h-6.53A2.037 2.037 0 0029 38.227v16.27c0 1.122.913 2.035 2.034 2.035h19.83c.105-.241.201-.48.223-.622-.198-.138-.732-.326-1.065-.444-.26-.092-.523-.187-.77-.29h-17.54a1.357 1.357 0 01-1.356-1.356V38.905c0-.748.608-1.356 1.356-1.356H65.61c.748 0 1.356.608 1.356 1.356V53.82c0 .748-.608 1.356-1.356 1.356h-2.625c-.247.103-.51.197-.77.29-.343.121-.898.318-1.08.456.017.108.121.355.237.61h4.916a2.037 2.037 0 002.034-2.034V38.227a2.037 2.037 0 00-2.034-2.034zm-17.627-8.136a.679.679 0 010 1.356.679.679 0 010-1.356zm-1.667 1.837a2.03 2.03 0 001.667.875 2.03 2.03 0 001.667-.875l7.348 6.299h-18.03l7.348-6.299z"/></g><defs><clipPath id="clip0"><path fill="#fff" transform="translate(29 21.701)" d="M0 0h40v40H0z"/></clipPath></defs></svg>