<svg width="89" height="89" fill="none" xmlns="http://www.w3.org/2000/svg"><path d="M56.276 28.897a2.069 2.069 0 100-4.138 2.069 2.069 0 000 4.138z" fill="#A0A0A0"/><path d="M53.945 29.352a3.43 3.43 0 01-1.117-2.524 3.452 3.452 0 013.448-3.449 3.452 3.452 0 013.448 3.449c0 1-.435 1.894-1.117 2.524a6.169 6.169 0 013.397 3.38 6.857 6.857 0 001.169-3.835A6.904 6.904 0 0056.276 22a6.904 6.904 0 00-6.897 6.897c0 1.418.432 2.738 1.17 3.836a6.17 6.17 0 013.396-3.38zm-11.226 2.284a1.433 1.433 0 00-.957-1.102l-.622-.208-4.702 2.09c-.518.23-.852.743-.852 1.309v.497l-1.131.377a1.37 1.37 0 00-.179 2.526l.62.311v2.705l-1.378 2.069v2.226l3.16 2.634.978-2.444V42.69h-1.38v-1.38h4.511c.655 0 1.224-.465 1.353-1.108l.422-2.116 1.219-.609-1.062-5.84z" fill="#A0A0A0"/><path d="M32.608 41.086l.909-1.364v-1.438a2.735 2.735 0 01-1.38-2.385 2.75 2.75 0 011.881-2.61l.236-.078c.168-.9.768-1.676 1.623-2.056l5.191-2.307 1.131.376a2.81 2.81 0 011.877 2.165l.11.602.216-.144c.525-.35.84-.939.84-1.57a5.524 5.524 0 00-5.456-5.518c-.871.167-11.097 2.24-11.097 7.586 0 5.623 2.773 7.998 3.92 8.74zm25.048 11.259c4.182 0 7.586-3.404 7.586-7.586 0-4.183-3.404-7.587-7.587-7.587-4.182 0-7.586 3.404-7.586 7.587 0 1.77.622 3.47 1.744 4.827h2.394V51.5a7.567 7.567 0 003.449.846zm0-6.897a2.761 2.761 0 01-2.76-2.758v-2.76h2.07v-1.38h1.38v1.478a2.756 2.756 0 012.068 2.66h-1.38a1.38 1.38 0 00-1.378-1.379h-1.38v1.38c0 .76.619 1.379 1.38 1.379a2.761 2.761 0 012.758 2.759v2.758h-2.069v1.38h-1.38v-1.478a2.756 2.756 0 01-2.068-2.66h1.38c0 .76.618 1.379 1.379 1.379h1.379v-1.38c0-.76-.619-1.379-1.38-1.379zm-1.381-15.172a4.804 4.804 0 00-4.68 3.672 6.864 6.864 0 004.68 1.845 6.864 6.864 0 004.68-1.845 4.804 4.804 0 00-4.68-3.672zM43.506 51.002a8.374 8.374 0 00-4.778-5.342l-1.474 3.685-4.598-3.832-1.82.454a4.103 4.103 0 011.97 2.485l2.615 9.41h6.087l.533-.533a3.438 3.438 0 01-1.627-2.915c0-1.78 1.36-3.23 3.092-3.412zm7.942-.036h1.38v6.896h-1.38v-6.896z" fill="#A0A0A0"/><path d="M53.663 36.743a8.224 8.224 0 01-1.546-.704c-2.973 1.893-4.806 5.195-4.806 8.72 0 1.979.56 3.88 1.611 5.534.445-.151.88-.329 1.305-.53a8.939 8.939 0 01-1.537-5.004c0-3.509 2.03-6.544 4.973-8.016zm7.943-1.525a8.317 8.317 0 01-1.387.954c3.698 1.105 6.402 4.534 6.402 8.587 0 4.943-4.022 8.965-8.966 8.965a8.965 8.965 0 01-3.448-.69v1.468c1.105.392 2.26.601 3.448.601C63.36 55.103 68 50.463 68 44.758c0-4.17-2.555-7.949-6.394-9.54zM31.478 48.821a2.73 2.73 0 00-2.623-1.994h-.004a2.714 2.714 0 00-.837 2.249l.61 6.027h4.599l-1.745-6.282zm12.384 3.524c-1.14 0-2.069.928-2.069 2.069 0 1.14.928 2.069 2.069 2.069h3.793c.528 0 .996.244 1.313.619.372.115.74.245 1.1.391v-6.155a13.808 13.808 0 01-5.152 1.007h-1.054zm4.828 7.586h-4.14v-.69h3.104a.69.69 0 000-1.379H43.6a.35.35 0 00-.244.1l-1.278 1.28h-7.706l-.766-2.76h-3.612l1.028 3.34a3.095 3.095 0 001.237 1.66c.509.339 1.1.518 1.711.518h14.72a.69.69 0 00.689-.69v-.69a.69.69 0 00-.69-.689z" fill="#A0A0A0"/><path d="M47.713 76.57l-.302-3.054a29.573 29.573 0 002.917-.44l.607 3.01a32.127 32.127 0 01-3.222.485zM9.662 28.403l-5.677-2.35a44.681 44.681 0 017.983-11.915l4.34 4.34a38.51 38.51 0 00-6.646 9.925zm4.476-16.435a44.653 44.653 0 0111.914-7.982l2.351 5.677a38.515 38.515 0 00-9.926 6.645l-4.34-4.34zm14.748-9.162A44.249 44.249 0 0142.956 0v6.145c-4.104.163-8.04.981-11.718 2.34l-2.352-5.679zM2.806 28.887l5.678 2.351a38.125 38.125 0 00-2.34 11.72H0a44.209 44.209 0 012.806-14.071zM64.994 12.05l3.072-5.321c19.807 12.353 26.7 38.08 15.724 58.68l-5.32-3.072c4.51-8.567 5.612-18.37 3.091-27.778-2.52-9.406-8.377-17.344-16.567-22.51zM16.29 70.527l-4.345 4.346A44.46 44.46 0 016.73 68.07l5.32-3.071a38.529 38.529 0 004.24 5.53zm18.267 11.036c9.407 2.519 19.21 1.417 27.777-3.092l3.072 5.32c-11.648 6.207-24.933 6.697-36.515 2.373l2.344-5.659c1.086.398 2.192.755 3.322 1.058zm-6.151-2.244l-2.347 5.666a44.377 44.377 0 01-11.934-7.952l4.345-4.345a37.801 37.801 0 009.936 6.63zm16.085-2.589a32.204 32.204 0 01-21.324-8.059l2.033-2.3a29.135 29.135 0 0019.291 7.29v3.07z" fill="#fff"/></svg>