<svg width="89" height="89" fill="none" xmlns="http://www.w3.org/2000/svg"><path d="M47.713 76.57l-.302-3.054a29.573 29.573 0 002.917-.44l.607 3.01a32.127 32.127 0 01-3.222.485zM9.662 28.403l-5.677-2.35a44.681 44.681 0 017.983-11.915l4.34 4.34a38.51 38.51 0 00-6.646 9.925zm4.476-16.435a44.653 44.653 0 0111.914-7.982l2.351 5.677a38.515 38.515 0 00-9.926 6.645l-4.34-4.34zm14.748-9.162A44.249 44.249 0 0142.956 0v6.145c-4.104.163-8.04.981-11.718 2.34l-2.352-5.679zM2.806 28.887l5.678 2.351a38.125 38.125 0 00-2.34 11.72H0a44.209 44.209 0 012.806-14.071zM64.994 12.05l3.072-5.321c19.807 12.353 26.7 38.08 15.724 58.68l-5.32-3.072c4.51-8.567 5.612-18.37 3.091-27.778-2.52-9.406-8.377-17.344-16.567-22.51zM16.29 70.527l-4.345 4.346A44.46 44.46 0 016.73 68.07l5.32-3.071a38.529 38.529 0 004.24 5.53zm18.267 11.036c9.407 2.519 19.21 1.417 27.777-3.092l3.072 5.32c-11.648 6.207-24.933 6.697-36.515 2.373l2.344-5.659c1.086.398 2.192.755 3.322 1.058zm-6.151-2.244l-2.347 5.666a44.377 44.377 0 01-11.934-7.952l4.345-4.345a37.801 37.801 0 009.936 6.63zm16.085-2.589a32.204 32.204 0 01-21.324-8.059l2.033-2.3a29.135 29.135 0 0019.291 7.29v3.07z" fill="#fff"/><g clip-path="url(#clip0)" fill="#A0A0A0"><path d="M49.448 57.862h2.759v1.38h-2.759v-1.38zm-4.138-5.517h2.759v1.379H45.31v-1.38zm4.138 2.758h2.759v1.38h-2.759v-1.38zm0-2.758h2.759v1.379h-2.759v-1.38zm-8.276 5.517h6.897v1.38h-6.897v-1.38zm0-5.517h2.759v1.379h-2.759v-1.38zm4.138 2.758h2.759v1.38H45.31v-1.38zm-4.138 0h2.759v1.38h-2.759v-1.38zm11.035-20a.69.69 0 11-1.38 0 .69.69 0 011.38 0zM46 46.828a.69.69 0 00-.69.69v.689h5.517v-.69a.69.69 0 00-.69-.69H46zm-1.38-5.518a.69.69 0 11-1.379 0 .69.69 0 011.38 0zM50.828 22v4.138h4.138L50.828 22zm-2.069 21.38v2.068h1.379c1.14 0 2.069.929 2.069 2.07v.689h.48l1.548-1.032c.223-.149.471-.247.73-.3V42.69h-5.517a.69.69 0 00-.69.69zM26 30.966h2.759v4.137H26v-4.137z"/><path d="M43.931 48.207v-.69c0-1.14.928-2.069 2.069-2.069h1.38V43.38c0-1.14.928-2.069 2.068-2.069h5.517v-4.138h6.897c.38 0 .69.31.69.69v2.759c0 .38-.31.69-.69.69h-6.897v1.379h6.897c1.14 0 2.069-.929 2.069-2.07v-2.758c0-1.14-.928-2.069-2.069-2.069h-6.897v-8.276h-5.517V22h-19.31v28.965h2.759v-.69a2.07 2.07 0 012.069-2.068h8.965zm-6.896-22.759h2.758v9.655h-2.758v-9.655zm-5.518 2.759h2.759v6.896h-2.759v-6.896zm0 16.552c0-1.14.929-2.07 2.07-2.07.214 0 .417.043.612.103l1.804-2.405a2.055 2.055 0 01-.348-1.146c0-1.14.929-2.069 2.07-2.069 1.127 0 2.043.908 2.064 2.031l2.519.84a2.059 2.059 0 011.622-.802c.392 0 .754.115 1.066.305l4.58-3.747a2.062 2.062 0 01-.128-.696c0-1.14.929-2.069 2.07-2.069 1.14 0 2.068.929 2.068 2.07a2.07 2.07 0 01-2.069 2.068c-.391 0-.753-.115-1.066-.304l-4.58 3.747c.078.218.129.45.129.695 0 1.14-.928 2.07-2.069 2.07a2.069 2.069 0 01-2.065-2.032l-2.518-.84c-.38.485-.962.802-1.623.802a2.05 2.05 0 01-.613-.102l-1.804 2.405a2.072 2.072 0 01-1.721 3.215 2.071 2.071 0 01-2.07-2.07z"/><path d="M34.276 44.759a.69.69 0 11-1.38 0 .69.69 0 011.38 0zm4.138-5.518a.69.69 0 11-1.38 0 .69.69 0 011.38 0zm17.931 13.104h1.379v1.379h-1.38v-1.38zm2.758 5.517h1.38v1.38h-1.38v-1.38zm0-5.517h1.38v1.379h-1.38v-1.38zm0 2.758h1.38v1.38h-1.38v-1.38z"/><path d="M65.31 48.207h-9.927a.69.69 0 00-.383.116l-1.895 1.263h-18.14a.69.69 0 00-.689.69V61.31c0 .38.31.69.69.69H65.31c.38 0 .69-.31.69-.69V48.896a.69.69 0 00-.69-.69zM53.587 60.62h-17.93v-9.656h17.93v9.656zm11.035 0h-9.655v-9.656h9.655v9.656z"/><path d="M56.345 57.862h1.379v1.38h-1.38v-1.38zm0-2.759h1.379v1.38h-1.38v-1.38zm5.517 2.759h1.38v1.38h-1.38v-1.38zm-24.828-5.517h2.759v1.379h-2.759v-1.38zm0 5.517h2.759v1.38h-2.759v-1.38zm0-2.759h2.759v1.38h-2.759v-1.38zm24.828-2.758h1.38v1.379h-1.38v-1.38zm0 2.758h1.38v1.38h-1.38v-1.38z"/></g><defs><clipPath id="clip0"><path fill="#fff" transform="translate(26 22)" d="M0 0h40v40H0z"/></clipPath></defs></svg>