<svg width="89" height="89" fill="none" xmlns="http://www.w3.org/2000/svg"><path d="M47.713 76.57l-.302-3.054a29.573 29.573 0 002.917-.44l.607 3.01a32.127 32.127 0 01-3.222.485zM9.662 28.403l-5.677-2.35a44.681 44.681 0 017.983-11.915l4.34 4.34a38.51 38.51 0 00-6.646 9.925zm4.476-16.435a44.653 44.653 0 0111.914-7.982l2.351 5.677a38.515 38.515 0 00-9.926 6.645l-4.34-4.34zm14.748-9.162A44.249 44.249 0 0142.956 0v6.145c-4.104.163-8.04.981-11.718 2.34l-2.352-5.679zM2.806 28.887l5.678 2.351a38.125 38.125 0 00-2.34 11.72H0a44.209 44.209 0 012.806-14.071zM64.994 12.05l3.072-5.321c19.807 12.353 26.7 38.08 15.724 58.68l-5.32-3.072c4.51-8.567 5.612-18.37 3.091-27.778-2.52-9.406-8.377-17.344-16.567-22.51zM16.29 70.527l-4.345 4.346A44.46 44.46 0 016.73 68.07l5.32-3.071a38.529 38.529 0 004.24 5.53zm18.267 11.036c9.407 2.519 19.21 1.417 27.777-3.092l3.072 5.32c-11.648 6.207-24.933 6.697-36.515 2.373l2.344-5.659c1.086.398 2.192.755 3.322 1.058zm-6.151-2.244l-2.347 5.666a44.377 44.377 0 01-11.934-7.952l4.345-4.345a37.801 37.801 0 009.936 6.63zm16.085-2.589a32.204 32.204 0 01-21.324-8.059l2.033-2.3a29.135 29.135 0 0019.291 7.29v3.07z" fill="#fff"/><g fill="#A0A0A0"><path d="M46.333 23v5.584c7.246.704 12.924 6.664 12.924 13.89a13.55 13.55 0 01-1.28 5.73L62.958 51A18.94 18.94 0 0065 42.474C65 32.168 56.748 23.72 46.333 23zM30.744 42.474c0-7.226 5.677-13.187 12.923-13.89V23C33.252 23.72 25 32.168 25 42.474c0 3.059.747 5.946 2.042 8.526l4.981-2.796a13.544 13.544 0 01-1.28-5.73z"/><path d="M33 43c0 6.617 5.383 12 12 12s12-5.383 12-12-5.383-12-12-12-12 5.383-12 12zm12-9c4.964 0 9 4.036 9 9s-4.036 9-9 9-9-4.036-9-9 4.036-9 9-9z"/><path d="M45 57.122c-4.606 0-8.68-2.422-11.19-6.122L29 53.955C32.48 59.41 38.353 63 45 63s12.52-3.59 16-9.045L56.19 51c-2.51 3.7-6.584 6.122-11.19 6.122zm0-8.789a5.333 5.333 0 100-10.666 5.333 5.333 0 000 10.666z"/></g></svg>