<svg width="89" height="89" fill="none" xmlns="http://www.w3.org/2000/svg"><path d="M41.287 76.57l.302-3.054a29.573 29.573 0 01-2.917-.44l-.607 3.01c1.057.215 2.142.379 3.222.485zm38.051-48.167l5.677-2.35a44.68 44.68 0 00-7.983-11.915l-4.34 4.34a38.508 38.508 0 016.646 9.925zm-4.476-16.435a44.653 44.653 0 00-11.914-7.983l-2.351 5.677a38.52 38.52 0 019.926 6.646l4.34-4.34zM60.114 2.806A44.248 44.248 0 0046.044 0v6.145c4.104.163 8.04.981 11.718 2.34l2.352-5.679zm26.08 26.081l-5.678 2.351a38.123 38.123 0 012.34 11.72H89a44.206 44.206 0 00-2.806-14.071zM24.006 12.05l-3.072-5.321C1.127 19.082-5.766 44.809 5.21 65.409l5.32-3.072c-4.51-8.568-5.612-18.37-3.09-27.778 2.518-9.406 8.376-17.344 16.566-22.51zM72.71 70.527l4.345 4.346a44.456 44.456 0 005.215-6.804l-5.32-3.071a38.529 38.529 0 01-4.24 5.53zM54.443 81.563c-9.407 2.52-19.21 1.417-27.777-3.092l-3.072 5.32C35.242 90 48.527 90.489 60.109 86.165l-2.344-5.659a38.884 38.884 0 01-3.322 1.058zm6.153-2.244l2.347 5.666a44.375 44.375 0 0011.934-7.952l-4.345-4.345a37.803 37.803 0 01-9.936 6.63zM44.509 76.73a32.204 32.204 0 0021.324-8.06l-2.033-2.3a29.135 29.135 0 01-19.291 7.29v3.07z" fill="#fff"/><g fill="#A0A0A0"><path d="M52.25 47.462V40.5h-2.5v6.89c.208-.006.416-.015.625-.015.63 0 1.255.031 1.875.087zm5-9.462h-2.5v9.847c.85.185 1.685.418 2.5.708V38zm5-2.5h-2.5v14.142c.866.447 1.7.957 2.5 1.529V35.5zM27.875 48.609v11.266a1.251 1.251 0 002.5 0V49.25h-.625a3.093 3.093 0 01-1.875-.641zm5-15.609a3.125 3.125 0 100-6.25 3.125 3.125 0 000 6.25zm22.5-8.125h1.25v8.75h-1.25v-8.75zM42.053 29.71c.396-.296.887-.46 1.382-.46h.261c.94 0 1.748.568 2.106 1.377l3.323.415v-3.584l-8.75 1.094v1.396l1.166.146.512-.383z"/><path d="M37.875 47.375A1.877 1.877 0 0036 45.5h-2.5v-9.375h4.963a3.14 3.14 0 001.918-.658l3.962-3.081a1.055 1.055 0 00-.647-1.886h-.262c-.226 0-.45.075-.633.211l-4.218 3.164a1.882 1.882 0 01-1.125.375H31a3.129 3.129 0 00-3.125 3.125v8.75c0 1.034.841 1.875 1.875 1.875h4.375c.69 0 1.25.56 1.25 1.25V53c0 .287.103.555.274.771.072-.14.154-.275.254-.4l.116-.12c.59-.58 1.212-1.115 1.857-1.613v-4.263h-.001zm12.5-21.25h3.75v6.25h-3.75v-6.25zm0 22.5a6.257 6.257 0 00-6.25 6.25 6.257 6.257 0 006.25 6.25 6.257 6.257 0 006.25-6.25 6.257 6.257 0 00-6.25-6.25zm4.966 6.767l-.386.188a1.25 1.25 0 00-.83 1.17c0 .206.056.41.166.606l.212.375-.274.33a4.99 4.99 0 01-3.854 1.814c-2.757 0-5-2.243-5-5s2.243-5 5-5 5 2.243 5 5c0 .038-.002.074-.005.111l-.03.406z"/><path d="M42.875 54.875c0-2.225.98-4.222 2.525-5.597-3.178.847-6.1 2.5-8.505 4.865l-.037.036a1.162 1.162 0 000 1.392l.036.036a19.133 19.133 0 008.506 4.865 7.476 7.476 0 01-2.525-5.597zm21.017-.696l-.037-.036a19.132 19.132 0 00-8.505-4.865 7.475 7.475 0 012.525 5.597c0 2.226-.98 4.223-2.525 5.597 3.178-.847 6.1-2.5 8.505-4.864l.037-.037a1.162 1.162 0 000-1.392zm-12.539-2.921c.173.34.272.72.272 1.117 0 1.38-1.121 2.5-2.5 2.5-.979 0-1.82-.57-2.23-1.392-.173.432-.27.9-.27 1.392a3.754 3.754 0 003.75 3.75c.994 0 1.935-.39 2.634-1.08a2.406 2.406 0 01-.134-.795c0-.89.482-1.707 1.237-2.15a3.76 3.76 0 00-2.759-3.342z"/><path d="M49.125 53.625c.69 0 1.25-.56 1.25-1.25 0-.52-.33-.977-.813-1.159a3.732 3.732 0 00-1.632.822 1.217 1.217 0 00-.055.337c0 .69.56 1.25 1.25 1.25z"/></g></svg>