<svg width="89" height="89" fill="none" xmlns="http://www.w3.org/2000/svg"><path d="M41.287 76.57l.302-3.054a29.573 29.573 0 01-2.917-.44l-.607 3.01c1.057.215 2.142.379 3.222.485zm38.051-48.167l5.677-2.35a44.68 44.68 0 00-7.983-11.915l-4.34 4.34a38.508 38.508 0 016.646 9.925zm-4.476-16.435a44.653 44.653 0 00-11.914-7.983l-2.351 5.677a38.52 38.52 0 019.926 6.646l4.34-4.34zM60.114 2.806A44.248 44.248 0 0046.044 0v6.145c4.104.163 8.04.981 11.718 2.34l2.352-5.679zm26.08 26.081l-5.678 2.351a38.123 38.123 0 012.34 11.72H89a44.206 44.206 0 00-2.806-14.071zM24.006 12.05l-3.072-5.321C1.127 19.082-5.766 44.809 5.21 65.409l5.32-3.072c-4.51-8.568-5.612-18.37-3.09-27.778 2.518-9.406 8.376-17.344 16.566-22.51zM72.71 70.527l4.345 4.346a44.456 44.456 0 005.215-6.804l-5.32-3.071a38.529 38.529 0 01-4.24 5.53zM54.443 81.563c-9.407 2.52-19.21 1.417-27.777-3.092l-3.072 5.32C35.242 90 48.527 90.489 60.109 86.165l-2.344-5.659a38.884 38.884 0 01-3.322 1.058zm6.153-2.244l2.347 5.666a44.375 44.375 0 0011.934-7.952l-4.345-4.345a37.803 37.803 0 01-9.936 6.63zM44.509 76.73a32.204 32.204 0 0021.324-8.06l-2.033-2.3a29.135 29.135 0 01-19.291 7.29v3.07z" fill="#fff"/><g fill="#A0A0A0"><path d="M33.242 38.397l.344.199v2.184l-1.568.392 3.637 2.122-.026 1.275-.056.195 2.151-.479v-.51c0-.928.375-1.776.988-2.404l-2.366-.591-.003-2.183.345-.199a3.462 3.462 0 001.726-2.984v-1.206c0-1.94-1.5-3.564-3.342-3.62a3.405 3.405 0 00-2.508.971 3.421 3.421 0 00-1.047 2.476v1.379a3.46 3.46 0 001.725 2.983zm5.139-7.702A8.996 8.996 0 0146 26.448a9.008 9.008 0 017.593 4.207c.027-.028.052-.058.08-.086a4.81 4.81 0 011.456-.968l.782-1.831-2.2-2.202-1.94 1.262-.371-.227c-.93-.57-1.935-.987-2.986-1.239l-.425-.102-.48-2.262h-3.02l-.478 2.262-.424.101c-1.052.252-2.057.67-2.987 1.24l-.37.227-1.94-1.262-2.203 2.203.774 1.845a4.88 4.88 0 011.52 1.08zM26 38.862v12.606l2.96.987 2.503-10.01L26 38.862z"/><path d="M54.276 39.37a4.842 4.842 0 01-2.07-3.956v-1.38c0-.76.18-1.489.508-2.147A7.622 7.622 0 0046 27.827a7.61 7.61 0 00-6.742 4.116c.34.683.535 1.454.535 2.265v1.206c0 1.578-.784 3.06-2.07 3.958v.33l2.76.69 2.758-.69v-.331a4.842 4.842 0 01-2.069-3.957v-1.38c0-1.317.521-2.547 1.467-3.464a4.796 4.796 0 013.51-1.361c2.58.078 4.679 2.32 4.679 5v1.205c0 1.578-.785 3.06-2.07 3.958v.33l2.76.69 2.758-.69v-.331zm-20 4.716l-1.573-.917-2.432 9.724 1.358.452h.058l2.589-9.062v-.197z"/><path d="M40.67 41.767a2.067 2.067 0 00-1.567 2.008v.204l.396-.088a8.516 8.516 0 014.419.201l3.122.998a4.3 4.3 0 011.023.147l4.24 1.211h.423l.17-.09v-2.583c0-.951-.644-1.777-1.566-2.008l-3.95-.987-.003-2.183.345-.199a3.462 3.462 0 001.726-2.984v-1.206c0-1.94-1.499-3.564-3.342-3.62a3.41 3.41 0 00-2.507.971 3.421 3.421 0 00-1.047 2.476v1.379c0 1.224.66 2.367 1.724 2.983l.345.199v2.184l-3.95.987zm12.916-7.732v1.379c0 1.224.66 2.367 1.725 2.983l.344.199v2.184l-2.367.591c.613.627.988 1.476.988 2.404v1.857l7.584-3.991-3.446-.861-.002-2.183.345-.199a3.462 3.462 0 001.726-2.984v-1.206c0-1.94-1.5-3.564-3.342-3.62a3.403 3.403 0 00-2.508.971 3.422 3.422 0 00-1.047 2.476zm-6.073 16.221a1.422 1.422 0 00-1.654-.16l-2.568 1.54a2.313 2.313 0 01-3.498-1.981v-.136c0-.88.489-1.672 1.277-2.066l3.444-1.723-1.015-.324a7.105 7.105 0 00-3.7-.168l-4.656 1.035-1.858 6.5 2.12 1.271c.06-.081.12-.163.192-.236l1.212-1.212c.4-.4.954-.63 1.521-.63a2.15 2.15 0 012.145 2.076c1.125.04 2.03.944 2.069 2.07a2.145 2.145 0 012.069 2.068 2.145 2.145 0 011.852 1.206l1.539 1.282c.202.17.46.263.725.263a.72.72 0 00.46-1.272l-3.631-3.026.883-1.06 3.746 3.121a.717.717 0 00.46.168h.15a.72.72 0 00.462-1.272l-3.632-3.026.883-1.06 3.74 3.117a.742.742 0 00.475.172h.119a.742.742 0 00.497-1.293l-5.828-5.244z"/><path d="M53.067 47.828l-1.05-.027-4.333-1.238a3.001 3.001 0 00-2.15.2l-3.846 1.923a.926.926 0 00-.516.833v.136a.932.932 0 001.409.8l2.569-1.541a2.77 2.77 0 013.287.316l5.826 5.245c.041.037.08.075.118.115L66 48.78v-7.76l-12.933 6.807zm-6.573 13.378c-.106.237-.25.456-.435.64l-.518.519.516.455c.131.116.3.18.475.18h.128a.72.72 0 00.46-1.272l-.626-.522zm-1.957-1.654a.778.778 0 00-.547.226l-1.212 1.212a.774.774 0 001.094 1.094l1.212-1.212a.774.774 0 00-.547-1.32zm-3.365-3.365a.774.774 0 00-1.32-.547l-1.212 1.212a.774.774 0 001.094 1.094l1.212-1.212a.778.778 0 00.226-.547zm2.069 2.069a.774.774 0 00-1.32-.547l-1.212 1.212a.774.774 0 001.094 1.094l1.212-1.212a.779.779 0 00.226-.547zm-4.138-4.138a.774.774 0 00-1.32-.547l-1.212 1.212a.774.774 0 001.094 1.094l1.212-1.212a.778.778 0 00.226-.547z"/></g></svg>