<svg width="206" height="157" fill="none" xmlns="http://www.w3.org/2000/svg"><circle cx="103.146" cy="74.337" r="43" transform="rotate(-3.698 103.146 74.337)" stroke="#0085D0" stroke-width="2"/><g filter="url(#filter0_d)"><path d="M126.975 39.461a40.506 40.506 0 0115.113 53.808 40.5 40.5 0 01-13.737 15" stroke="#FF7A00" stroke-width="7"/></g><g filter="url(#filter1_d)"><path d="M78.442 109.476a40.497 40.497 0 01-.73-68.817" stroke="#FF7A00" stroke-width="7"/></g><path d="M80.345 96.656h17.188V79.47H80.344v17.188zm12.5-1.562h-1.563v-1.563h1.563v1.563zm3.125 0h-1.563v-1.563h1.563v1.563zm-7.813-14.063h7.813v1.563h-7.813v-1.563zm-3.124 0h1.562v1.563h-1.563v-1.563zm-3.126 0h1.563v1.563h-1.563v-1.563zm0 3.125H95.97v1.563H81.907v-1.563zm0 3.125H95.97v1.563H81.907v-1.563zm0 3.125H95.97v1.563H81.907v-1.563zm0 3.125h7.813v1.563h-7.813v-1.563z" fill="#fff"/><path d="M117.845 85.719v3.125h-13.281c10.338 0 18.75-8.412 18.75-18.75s-8.412-18.75-18.75-18.75c-10.339 0-18.75 8.412-18.75 18.75v.781h-.676l2.238 2.686 2.238-2.686h-.675v-.781c0-8.616 7.009-15.625 15.625-15.625 8.615 0 15.625 7.01 15.625 15.625 0 8.616-7.01 15.625-15.625 15.625h-5.47v7.813h18.751v3.124h9.375V85.72h-9.375zm6.25 7.813h-3.125v-1.563h3.125v1.563zm0-3.126h-3.125v-1.562h3.125v1.563z" fill="#fff"/><path d="M106.907 78.688c4.739 0 8.594-3.856 8.594-8.594 0-4.738-3.855-8.594-8.594-8.594h-.781v7.813h-7.812v.781c0 4.738 3.855 8.594 8.593 8.594zm2.344-6.25h1.563V74h-1.563v-1.562zm-3.125 0h1.563V74h-1.563v-1.562zm-3.125 0h1.563V74h-1.563v-1.562z" fill="#fff"/><path d="M104.564 58.375h-.782c-4.738 0-8.593 3.856-8.593 8.594v.781h9.375v-9.375z" fill="#fff"/><defs><filter id="filter0_d" x="57.345" y="1.451" width="148.256" height="155.086" filterUnits="userSpaceOnUse" color-interpolation-filters="sRGB"><feFlood flood-opacity="0" result="BackgroundImageFix"/><feColorMatrix in="SourceAlpha" values="0 0 0 0 0 0 0 0 0 0 0 0 0 0 0 0 0 0 127 0"/><feOffset dy="4"/><feGaussianBlur stdDeviation="19.5"/><feColorMatrix values="0 0 0 0 1 0 0 0 0 0.42 0 0 0 0 0 0 0 0 1 0"/><feBlend in2="BackgroundImageFix" result="effect1_dropShadow"/><feBlend in="SourceGraphic" in2="effect1_dropShadow" result="shape"/></filter><filter id="filter1_d" x="0" y=".336" width="148.555" height="155.134" filterUnits="userSpaceOnUse" color-interpolation-filters="sRGB"><feFlood flood-opacity="0" result="BackgroundImageFix"/><feColorMatrix in="SourceAlpha" values="0 0 0 0 0 0 0 0 0 0 0 0 0 0 0 0 0 0 127 0"/><feOffset dy="4"/><feGaussianBlur stdDeviation="19.5"/><feColorMatrix values="0 0 0 0 1 0 0 0 0 0.42 0 0 0 0 0 0 0 0 1 0"/><feBlend in2="BackgroundImageFix" result="effect1_dropShadow"/><feBlend in="SourceGraphic" in2="effect1_dropShadow" result="shape"/></filter></defs></svg>