<svg width="174" height="155" fill="none" xmlns="http://www.w3.org/2000/svg"><circle cx="87.146" cy="73.337" r="43" transform="rotate(-3.698 87.146 73.337)" stroke="#0085D0" stroke-width="2"/><g filter="url(#filter0_d)"><path d="M110.975 38.461a40.506 40.506 0 0115.113 53.808 40.5 40.5 0 01-13.737 15" stroke="#FF7A00" stroke-width="7"/></g><g filter="url(#filter1_d)"><path d="M62.442 108.476a40.496 40.496 0 01-14.607-53.947 40.5 40.5 0 0113.878-14.87" stroke="#FF7A00" stroke-width="7"/></g><path d="M104.97 84.719a6.25 6.25 0 00-5.405 3.125H87.001c10.338 0 18.75-8.412 18.75-18.75s-8.412-18.75-18.75-18.75-18.75 8.412-18.75 18.75v.781h-.676l2.239 2.686 2.238-2.686h-.676v-.781c0-8.616 7.01-15.625 15.625-15.625 8.616 0 15.625 7.01 15.625 15.625 0 8.616-7.01 15.625-15.625 15.625H79.97v7.813h18.955c.697 2.69 3.139 4.687 6.045 4.687a6.257 6.257 0 006.25-6.25 6.257 6.257 0 00-6.25-6.25zm-.781 9.698l-2.115-2.114 1.104-1.105 1.011 1.01 3.354-3.354 1.104 1.105-4.458 4.458z" fill="#fff"/><path d="M74.501 78.469h-9.375c-.43 0-.781.35-.781.781v15.625c0 .431.35.781.781.781h9.375c.43 0 .781-.35.781-.78V79.25a.782.782 0 00-.78-.781zM67.47 94.094h-1.563v-1.563h1.563v1.563zm3.125 0h-1.563v-1.563h1.563v1.563zm3.125 0h-1.563v-1.563h1.563v1.563zm0-3.125h-7.813v-1.563h7.813v1.563zm0-3.125h-7.813v-1.563h7.813v1.563zm0-3.125h-7.813v-1.563h7.813v1.563zm0-3.125h-7.813v-1.563h7.813v1.563zM87.782 73a3.91 3.91 0 003.907-3.906 3.91 3.91 0 00-3.906-3.906 3.91 3.91 0 00-3.907 3.906A3.91 3.91 0 0087.782 73zm0-6.25a2.347 2.347 0 012.344 2.344 2.347 2.347 0 01-2.344 2.344 2.347 2.347 0 01-2.343-2.344 2.347 2.347 0 012.344-2.344z" fill="#fff"/><path d="M87.782 69.875a.781.781 0 100-1.562.781.781 0 000 1.562z" fill="#fff"/><path d="M79.189 67.36v3.468l1.91.477.394.953-1.013 1.688 2.452 2.452 1.686-1.013.892.363.158.418.38 1.522h3.468l.478-1.916.953-.387 1.686 1.012 2.452-2.452-1.013-1.688.364-.889.418-.16 1.522-.38V67.36l-1.91-.477-.393-.955 1.013-1.686-2.452-2.451-1.686 1.012-.955-.392-.477-1.91H86.05l-.478 1.91-.954.392-1.686-1.012-2.452 2.451 1.013 1.686-.392.955-1.911.477zm8.594-3.735a5.475 5.475 0 015.468 5.469 5.475 5.475 0 01-5.469 5.469 5.475 5.475 0 01-5.468-5.469 5.475 5.475 0 015.469-5.469z" fill="#fff"/><defs><filter id="filter0_d" x="70.189" y=".451" width="103.121" height="152.754" filterUnits="userSpaceOnUse" color-interpolation-filters="sRGB"><feFlood flood-opacity="0" result="BackgroundImageFix"/><feColorMatrix in="SourceAlpha" values="0 0 0 0 0 0 0 0 0 0 0 0 0 0 0 0 0 0 127 0"/><feOffset dy="4"/><feGaussianBlur stdDeviation="19.5"/><feColorMatrix values="0 0 0 0 1 0 0 0 0 0.42 0 0 0 0 0 0 0 0 1 0"/><feBlend in2="BackgroundImageFix" result="effect1_dropShadow"/><feBlend in="SourceGraphic" in2="effect1_dropShadow" result="shape"/></filter><filter id="filter1_d" x=".434" y="1.705" width="102.822" height="152.765" filterUnits="userSpaceOnUse" color-interpolation-filters="sRGB"><feFlood flood-opacity="0" result="BackgroundImageFix"/><feColorMatrix in="SourceAlpha" values="0 0 0 0 0 0 0 0 0 0 0 0 0 0 0 0 0 0 127 0"/><feOffset dy="4"/><feGaussianBlur stdDeviation="19.5"/><feColorMatrix values="0 0 0 0 1 0 0 0 0 0.42 0 0 0 0 0 0 0 0 1 0"/><feBlend in2="BackgroundImageFix" result="effect1_dropShadow"/><feBlend in="SourceGraphic" in2="effect1_dropShadow" result="shape"/></filter></defs></svg>