<svg width="174" height="155" fill="none" xmlns="http://www.w3.org/2000/svg"><circle cx="87.146" cy="73.337" r="43" transform="rotate(-3.698 87.146 73.337)" stroke="#0085D0" stroke-width="2"/><g filter="url(#filter0_d)"><path d="M110.975 38.461a40.506 40.506 0 0115.113 53.808 40.5 40.5 0 01-13.737 15" stroke="#FF7A00" stroke-width="7"/></g><g filter="url(#filter1_d)"><path d="M62.442 108.476a40.496 40.496 0 01-14.607-53.947 40.5 40.5 0 0113.878-14.87" stroke="#FF7A00" stroke-width="7"/></g><path d="M110.439 58.375c0-.863-.699-1.562-1.563-1.562h-2.344a1.562 1.562 0 100-3.125h2.344a1.562 1.562 0 100-3.125h-12.5a1.562 1.562 0 100 3.125h2.344a1.562 1.562 0 100 3.125h-2.344a1.562 1.562 0 100 3.125h2.344a1.562 1.562 0 100 3.125h-2.344a1.562 1.562 0 100 3.125h12.5a1.562 1.562 0 100-3.125h-2.344a1.562 1.562 0 100-3.125h2.344c.864 0 1.563-.7 1.563-1.563zM90.907 61.5a2.347 2.347 0 012.344-2.343h.111a3.075 3.075 0 01-.11-.782c0-.27.044-.53.11-.781h-.11a3.91 3.91 0 00-3.907 3.906v16.406h1.563V61.5zm-4.687 0v16.406h1.563V61.5a3.91 3.91 0 00-3.907-3.906h-.781v1.563h.781A2.347 2.347 0 0186.22 61.5zM83.095 74v3.906h1.562V74a3.91 3.91 0 00-3.906-3.906h-.844c.037.256.063.516.063.781v.781h.78A2.347 2.347 0 0183.096 74zm13.281-2.344a3.91 3.91 0 00-3.906 3.907v2.343h1.563v-2.343a2.347 2.347 0 012.343-2.344h.86a3.894 3.894 0 010-1.563h-.86zm-12.798 7.813l2.343 4.688h22.472l-2.344-4.688H83.577zm15.142 3.125h-1.563v-1.563h1.563v1.563zm3.125 0h-1.563v-1.563h1.563v1.563zm3.125 0h-1.563v-1.563h1.563v1.563zm-36.719 3.125v10.937h12.5V80.434L78.11 85.72h-9.858zm3.125 9.375h-1.562V93.53h1.562v1.563zm0-3.125h-1.562v-1.563h1.562v1.563zm0-3.125h-1.562V87.28h1.562v1.563z" fill="#fff"/><path d="M82.314 80.434v16.222h23.437V85.72H84.956l-2.642-5.285zm18.75 14.66h-1.563V93.53h1.563v1.563zm3.125 0h-1.563V93.53h1.563v1.563zm-7.813-4.688h7.813v1.563h-7.813v-1.563zm0 3.125h1.563v1.563h-1.563V93.53zM79.487 79.469H67.953l-2.344 4.688h11.534l2.344-4.688zm21.577-4.688a2.343 2.343 0 100-4.686 2.343 2.343 0 000 4.686zM70.595 57.594h1.563v3.125h-1.563v-3.125z" fill="#fff"/><path d="M65.126 63.844h15.625c.431 0 .781-.35.781-.781V52.125a.782.782 0 00-.78-.781H65.125a.782.782 0 00-.781.781v10.938c0 .431.35.781.781.781zm.781-6.25h3.126v-1.563h3.124V54.47h3.126v-1.563h4.687v9.376H65.907v-4.688z" fill="#fff"/><path d="M73.72 56.032h1.563v4.687H73.72v-4.688zm-6.25 3.125h1.563v1.562H67.47v-1.563zm9.375-4.688h1.563v6.25h-1.563v-6.25zm1.562 20.312v-3.906a3.91 3.91 0 00-3.906-3.906h-6.25a3.91 3.91 0 00-3.906 3.906 3.91 3.91 0 003.906 3.906h10.156zm-4.687-4.687h1.563v1.563H73.72v-1.563zm-3.125 0h1.563v1.563h-1.563v-1.563zm-3.125 0h1.563v1.563H67.47v-1.563z" fill="#fff"/><defs><filter id="filter0_d" x="70.189" y=".451" width="103.121" height="152.754" filterUnits="userSpaceOnUse" color-interpolation-filters="sRGB"><feFlood flood-opacity="0" result="BackgroundImageFix"/><feColorMatrix in="SourceAlpha" values="0 0 0 0 0 0 0 0 0 0 0 0 0 0 0 0 0 0 127 0"/><feOffset dy="4"/><feGaussianBlur stdDeviation="19.5"/><feColorMatrix values="0 0 0 0 1 0 0 0 0 0.42 0 0 0 0 0 0 0 0 1 0"/><feBlend in2="BackgroundImageFix" result="effect1_dropShadow"/><feBlend in="SourceGraphic" in2="effect1_dropShadow" result="shape"/></filter><filter id="filter1_d" x=".434" y="1.705" width="102.822" height="152.765" filterUnits="userSpaceOnUse" color-interpolation-filters="sRGB"><feFlood flood-opacity="0" result="BackgroundImageFix"/><feColorMatrix in="SourceAlpha" values="0 0 0 0 0 0 0 0 0 0 0 0 0 0 0 0 0 0 127 0"/><feOffset dy="4"/><feGaussianBlur stdDeviation="19.5"/><feColorMatrix values="0 0 0 0 1 0 0 0 0 0.42 0 0 0 0 0 0 0 0 1 0"/><feBlend in2="BackgroundImageFix" result="effect1_dropShadow"/><feBlend in="SourceGraphic" in2="effect1_dropShadow" result="shape"/></filter></defs></svg>