<svg width="174" height="155" fill="none" xmlns="http://www.w3.org/2000/svg"><circle cx="87.146" cy="73.337" r="43" transform="rotate(-3.698 87.146 73.337)" stroke="#0085D0" stroke-width="2"/><g filter="url(#filter0_d)"><path d="M110.975 38.461a40.506 40.506 0 0115.113 53.808 40.5 40.5 0 01-13.737 15" stroke="#FF7A00" stroke-width="7"/></g><g filter="url(#filter1_d)"><path d="M62.442 108.476a40.496 40.496 0 01-14.607-53.947 40.5 40.5 0 0113.878-14.87" stroke="#FF7A00" stroke-width="7"/></g><path d="M79.49 65.031a13.9 13.9 0 011.423-.786l-4.068-4.068v-6.708h-12.5v7.813H75.74l3.75 3.75zm-13.582-10h9.374v1.563h-9.374v-1.563zm6.25 4.688h-6.25v-1.563h6.25v1.563zm1.562-1.563h1.563v1.563H73.72v-1.563zm2.83 28.125H63.564v3.125h17.024a14.116 14.116 0 01-4.038-3.125zm10.451-17.187c-4.308 0-7.812 3.505-7.812 7.813 0 4.307 3.504 7.812 7.812 7.812s7.813-3.505 7.813-7.813c0-4.307-3.505-7.812-7.813-7.812zM79.97 79.25v-1.562h1.563v-3.125h1.562v3.125h1.563v-1.563h1.562v1.563h1.563V73h1.562v4.688h1.563v-3.125h1.562v3.125h1.563v1.562H79.97z" fill="#fff"/><path d="M104.97 86.281H87.001c-5.17 0-9.375-4.205-9.375-9.375 0-5.169 4.206-9.375 9.375-9.375 5.17 0 9.375 4.206 9.375 9.375a9.371 9.371 0 01-4.204 7.813h4.564a12.492 12.492 0 002.765-7.813c0-6.892-5.608-12.5-12.5-12.5s-12.5 5.608-12.5 12.5c0 6.893 5.608 12.5 12.5 12.5h17.969v1.563l4.166-3.125-4.166-3.125v1.563zm-7.812-32.812v6.708l-4.068 4.068c.49.236.965.497 1.422.786l3.75-3.75h11.396V53.47h-12.5zm7.812 6.25h-6.25v-1.563h6.25v1.563zm3.125 0h-1.562v-1.563h1.562v1.563zm0-3.125H98.72v-1.563h9.375v1.563z" fill="#fff"/><defs><filter id="filter0_d" x="70.189" y=".451" width="103.121" height="152.754" filterUnits="userSpaceOnUse" color-interpolation-filters="sRGB"><feFlood flood-opacity="0" result="BackgroundImageFix"/><feColorMatrix in="SourceAlpha" values="0 0 0 0 0 0 0 0 0 0 0 0 0 0 0 0 0 0 127 0"/><feOffset dy="4"/><feGaussianBlur stdDeviation="19.5"/><feColorMatrix values="0 0 0 0 1 0 0 0 0 0.42 0 0 0 0 0 0 0 0 1 0"/><feBlend in2="BackgroundImageFix" result="effect1_dropShadow"/><feBlend in="SourceGraphic" in2="effect1_dropShadow" result="shape"/></filter><filter id="filter1_d" x=".434" y="1.705" width="102.822" height="152.765" filterUnits="userSpaceOnUse" color-interpolation-filters="sRGB"><feFlood flood-opacity="0" result="BackgroundImageFix"/><feColorMatrix in="SourceAlpha" values="0 0 0 0 0 0 0 0 0 0 0 0 0 0 0 0 0 0 127 0"/><feOffset dy="4"/><feGaussianBlur stdDeviation="19.5"/><feColorMatrix values="0 0 0 0 1 0 0 0 0 0.42 0 0 0 0 0 0 0 0 1 0"/><feBlend in2="BackgroundImageFix" result="effect1_dropShadow"/><feBlend in="SourceGraphic" in2="effect1_dropShadow" result="shape"/></filter></defs></svg>