<svg width="120" height="131" fill="none" xmlns="http://www.w3.org/2000/svg"><circle cx="65.467" cy="65.468" r="36.5" stroke="#fff" stroke-opacity=".29" stroke-width="10"/><g filter="url(#filter0_d)"><path d="M66 28a38.425 38.425 0 00-16.057 3.512 37.945 37.945 0 00-13.05 9.88 37.331 37.331 0 00-7.596 14.395 37.021 37.021 0 00-.721 16.215A37.231 37.231 0 0034.866 87a37.815 37.815 0 0012.121 10.97 38.364 38.364 0 0015.684 4.887 38.479 38.479 0 0016.307-2.111l-.506-1.374a36.962 36.962 0 01-15.671 2.028 36.863 36.863 0 01-15.072-4.697 36.341 36.341 0 01-11.65-10.541 35.78 35.78 0 01-6.044-14.412 35.576 35.576 0 01.693-15.583 35.875 35.875 0 017.3-13.834 36.465 36.465 0 0112.541-9.494A36.927 36.927 0 0166 29.463V28z" fill="red"/></g><g filter="url(#filter1_d)"><mask id="path-3-inside-1" fill="#fff"><path d="M96.761 92.349A41.498 41.498 0 0174 106.057l-2.1-9.562a31.71 31.71 0 0017.39-10.474l7.47 6.328z"/></mask><path d="M96.761 92.349A41.498 41.498 0 0174 106.057l-2.1-9.562a31.71 31.71 0 0017.39-10.474l7.47 6.328z" stroke="#3E9BFE" stroke-width="20" mask="url(#path-3-inside-1)"/></g><defs><filter id="filter0_d" x="0" y="0" width="106.978" height="131" filterUnits="userSpaceOnUse" color-interpolation-filters="sRGB"><feFlood flood-opacity="0" result="BackgroundImageFix"/><feColorMatrix in="SourceAlpha" values="0 0 0 0 0 0 0 0 0 0 0 0 0 0 0 0 0 0 127 0"/><feOffset/><feGaussianBlur stdDeviation="14"/><feColorMatrix values="0 0 0 0 1 0 0 0 0 0 0 0 0 0 0.6 0 0 0 1 0"/><feBlend in2="BackgroundImageFix" result="effect1_dropShadow"/><feBlend in="SourceGraphic" in2="effect1_dropShadow" result="shape"/></filter><filter id="filter1_d" x="67.899" y="82.021" width="32.863" height="28.037" filterUnits="userSpaceOnUse" color-interpolation-filters="sRGB"><feFlood flood-opacity="0" result="BackgroundImageFix"/><feColorMatrix in="SourceAlpha" values="0 0 0 0 0 0 0 0 0 0 0 0 0 0 0 0 0 0 127 0"/><feOffset/><feGaussianBlur stdDeviation="2"/><feColorMatrix values="0 0 0 0 0.243137 0 0 0 0 0.607843 0 0 0 0 0.996078 0 0 0 1 0"/><feBlend in2="BackgroundImageFix" result="effect1_dropShadow"/><feBlend in="SourceGraphic" in2="effect1_dropShadow" result="shape"/></filter></defs></svg>