<svg width="121" height="132" fill="none" xmlns="http://www.w3.org/2000/svg"><circle cx="55.477" cy="66.228" r="36.5" stroke="#fff" stroke-opacity=".29" stroke-width="10"/><g filter="url(#filter0_d)"><path d="M53.797 103.182a38.33 38.33 0 0016.103-2.921 37.781 37.781 0 0013.335-9.353 37.086 37.086 0 008.068-14.032 36.74 36.74 0 001.29-16.083 36.975 36.975 0 00-5.729-15.12 37.635 37.635 0 00-11.676-11.327 38.246 38.246 0 00-15.435-5.41 38.37 38.37 0 00-16.303 1.52l.456 1.384a36.872 36.872 0 0115.666-1.46 36.754 36.754 0 0114.834 5.198 36.168 36.168 0 0111.22 10.884 35.536 35.536 0 015.506 14.531 35.306 35.306 0 01-1.24 15.456c-1.554 5-4.2 9.602-7.753 13.485a36.305 36.305 0 01-12.815 8.988 36.81 36.81 0 01-15.475 2.807l-.052 1.453z" fill="red"/></g><g filter="url(#filter1_d)"><path d="M31.758 38.352a36.506 36.506 0 018.61-5.619l.07.227c-3.088 1.392-6.036 3.193-8.68 5.392z" stroke="#8E4CE8" stroke-width="10"/></g><defs><filter id="filter0_d" x="15.45" y=".651" width="105.51" height="130.555" filterUnits="userSpaceOnUse" color-interpolation-filters="sRGB"><feFlood flood-opacity="0" result="BackgroundImageFix"/><feColorMatrix in="SourceAlpha" values="0 0 0 0 0 0 0 0 0 0 0 0 0 0 0 0 0 0 127 0"/><feOffset/><feGaussianBlur stdDeviation="14"/><feColorMatrix values="0 0 0 0 1 0 0 0 0 0 0 0 0 0 0.6 0 0 0 1 0"/><feBlend in2="BackgroundImageFix" result="effect1_dropShadow"/><feBlend in="SourceGraphic" in2="effect1_dropShadow" result="shape"/></filter><filter id="filter1_d" x="18.026" y="22.152" width="32.574" height="29.348" filterUnits="userSpaceOnUse" color-interpolation-filters="sRGB"><feFlood flood-opacity="0" result="BackgroundImageFix"/><feColorMatrix in="SourceAlpha" values="0 0 0 0 0 0 0 0 0 0 0 0 0 0 0 0 0 0 127 0"/><feOffset/><feGaussianBlur stdDeviation="2"/><feColorMatrix values="0 0 0 0 0.556863 0 0 0 0 0.298039 0 0 0 0 0.909804 0 0 0 1 0"/><feBlend in2="BackgroundImageFix" result="effect1_dropShadow"/><feBlend in="SourceGraphic" in2="effect1_dropShadow" result="shape"/></filter></defs></svg>