<svg width="133" height="123" fill="none" xmlns="http://www.w3.org/2000/svg"><circle cx="66.455" cy="56.11" r="36.5" stroke="#fff" stroke-opacity=".29" stroke-width="10"/><g filter="url(#filter0_d)"><path d="M28.749 56.536A39.282 39.282 0 0032.87 72.61a38.283 38.283 0 0010.343 12.793 37.012 37.012 0 0014.623 7.114 36.374 36.374 0 0016.167.104 36.808 36.808 0 0014.68-6.926 38.017 38.017 0 0010.447-12.66 39.15 39.15 0 004.252-16.02 39.379 39.379 0 00-2.737-16.38l-1.349.565a37.852 37.852 0 012.631 15.74 37.622 37.622 0 01-4.086 15.395A36.534 36.534 0 0187.803 84.5a35.372 35.372 0 01-14.108 6.656 34.953 34.953 0 01-15.536-.1 35.567 35.567 0 01-14.054-6.837 36.789 36.789 0 01-9.939-12.293 37.748 37.748 0 01-3.961-15.446l-1.456.056z" fill="red"/></g><g filter="url(#filter1_d)"><path d="M97.86 37.392l-.012.005c-.12-.207-.243-.412-.367-.615.129.202.255.405.379.61z" stroke="#6475F3" stroke-width="10"/></g><defs><filter id="filter0_d" x=".242" y="12.549" width="132.636" height="110.345" filterUnits="userSpaceOnUse" color-interpolation-filters="sRGB"><feFlood flood-opacity="0" result="BackgroundImageFix"/><feColorMatrix in="SourceAlpha" values="0 0 0 0 0 0 0 0 0 0 0 0 0 0 0 0 0 0 127 0"/><feOffset/><feGaussianBlur stdDeviation="14"/><feColorMatrix values="0 0 0 0 1 0 0 0 0 0 0 0 0 0 0.6 0 0 0 1 0"/><feBlend in2="BackgroundImageFix" result="effect1_dropShadow"/><feBlend in="SourceGraphic" in2="effect1_dropShadow" result="shape"/></filter><filter id="filter1_d" x="83.442" y="20.942" width="25.178" height="27.02" filterUnits="userSpaceOnUse" color-interpolation-filters="sRGB"><feFlood flood-opacity="0" result="BackgroundImageFix"/><feColorMatrix in="SourceAlpha" values="0 0 0 0 0 0 0 0 0 0 0 0 0 0 0 0 0 0 127 0"/><feOffset/><feGaussianBlur stdDeviation="2"/><feColorMatrix values="0 0 0 0 0.392157 0 0 0 0 0.458824 0 0 0 0 0.952941 0 0 0 1 0"/><feBlend in2="BackgroundImageFix" result="effect1_dropShadow"/><feBlend in="SourceGraphic" in2="effect1_dropShadow" result="shape"/></filter></defs></svg>