<svg width="125" height="126" fill="none" xmlns="http://www.w3.org/2000/svg"><circle cx="59.455" cy="60.803" r="36.5" stroke="#fff" stroke-opacity=".29" stroke-width="10"/><g filter="url(#filter0_d)"><path d="M28.448 81.395A40.217 40.217 0 0040.85 92.65c4.859 2.822 10.224 4.556 15.72 5.08s10.99-.175 16.093-2.048a35.594 35.594 0 0013.451-8.791 36.284 36.284 0 008.29-13.889c1.704-5.23 2.242-10.821 1.575-16.383a40 40 0 00-5.434-15.81A40.367 40.367 0 0079.12 28.537l-.802 1.214a38.792 38.792 0 0110.98 11.796A38.44 38.44 0 0194.52 56.74c.64 5.344.124 10.718-1.514 15.744A34.869 34.869 0 0185.04 85.83a34.206 34.206 0 01-12.927 8.448c-4.905 1.8-10.183 2.471-15.465 1.968-5.282-.503-10.438-2.17-15.107-4.881a38.65 38.65 0 01-11.918-10.817l-1.175.847z" fill="red"/></g><g filter="url(#filter1_d)"><mask id="path-3-inside-1" fill="#fff"><path d="M65.843 19.908a41.04 41.04 0 0117.212 6.956L77.5 34.963a31.433 31.433 0 00-13.183-5.328l1.526-9.727z"/></mask><path d="M65.843 19.908l1.551-9.879-9.879-1.55-1.55 9.878 9.878 1.551zm17.212 6.956l8.246 5.657 5.598-8.159-8.1-5.683-5.744 8.185zM77.5 34.963l-5.744 8.185 8.273 5.806 5.717-8.334-8.246-5.657zm-13.183-5.328l-9.88-1.551-1.55 9.879 9.879 1.55 1.55-9.878zm-.024.152A31.04 31.04 0 0177.31 35.05L88.8 18.68a51.038 51.038 0 00-21.405-8.65l-3.102 19.758zm10.516-8.58l-5.555 8.099L85.746 40.62l5.555-8.099L74.81 21.208zm8.435 5.57a41.434 41.434 0 00-17.377-7.021l-3.101 19.758c3.226.506 6.3 1.747 8.99 3.634l11.488-16.37zm-9.049 4.408l1.527-9.726-19.758-3.102-1.527 9.727 19.758 3.101z" fill="#6773F3" mask="url(#path-3-inside-1)"/></g><defs><filter id="filter0_d" x=".448" y=".536" width="123.809" height="125.363" filterUnits="userSpaceOnUse" color-interpolation-filters="sRGB"><feFlood flood-opacity="0" result="BackgroundImageFix"/><feColorMatrix in="SourceAlpha" values="0 0 0 0 0 0 0 0 0 0 0 0 0 0 0 0 0 0 127 0"/><feOffset/><feGaussianBlur stdDeviation="14"/><feColorMatrix values="0 0 0 0 1 0 0 0 0 0 0 0 0 0 0.6 0 0 0 1 0"/><feBlend in2="BackgroundImageFix" result="effect1_dropShadow"/><feBlend in="SourceGraphic" in2="effect1_dropShadow" result="shape"/></filter><filter id="filter1_d" x="60.316" y="15.908" width="26.739" height="23.055" filterUnits="userSpaceOnUse" color-interpolation-filters="sRGB"><feFlood flood-opacity="0" result="BackgroundImageFix"/><feColorMatrix in="SourceAlpha" values="0 0 0 0 0 0 0 0 0 0 0 0 0 0 0 0 0 0 127 0"/><feOffset/><feGaussianBlur stdDeviation="2"/><feColorMatrix values="0 0 0 0 0.403922 0 0 0 0 0.45098 0 0 0 0 0.952941 0 0 0 1 0"/><feBlend in2="BackgroundImageFix" result="effect1_dropShadow"/><feBlend in="SourceGraphic" in2="effect1_dropShadow" result="shape"/></filter></defs></svg>