<svg width="132" height="121" fill="none" xmlns="http://www.w3.org/2000/svg"><circle cx="65.998" cy="54.725" r="36.5" stroke="#fff" stroke-opacity=".29" stroke-width="10"/><g filter="url(#filter0_d)"><path d="M32.178 38.947a39.752 39.752 0 00-3.298 16.338 38.445 38.445 0 003.715 16.057 36.786 36.786 0 0010.031 12.766 35.954 35.954 0 0014.47 7.085 36.52 36.52 0 0016.196.077c5.37-1.187 10.453-3.558 14.89-6.947a39.574 39.574 0 0010.793-12.668 39.874 39.874 0 004.675-16.017l-1.456-.072a38.317 38.317 0 01-4.493 15.392A38.03 38.03 0 0187.33 83.132c-4.264 3.256-9.148 5.535-14.309 6.676a35.097 35.097 0 01-15.565-.074 34.552 34.552 0 01-13.905-6.808 35.352 35.352 0 01-9.64-12.27 36.945 36.945 0 01-3.57-15.43 38.2 38.2 0 013.17-15.7l-1.332-.579z" fill="red"/></g><g filter="url(#filter1_d)"><path d="M101.291 45.325l.139-.056a36.993 36.993 0 011.087 6.308l-.065-.006c-.191-2.16-.606-4.24-1.161-6.246z" stroke="#5B7EF6" stroke-width="10"/></g><defs><filter id="filter0_d" x=".877" y="10.947" width="130.773" height="109.194" filterUnits="userSpaceOnUse" color-interpolation-filters="sRGB"><feFlood flood-opacity="0" result="BackgroundImageFix"/><feColorMatrix in="SourceAlpha" values="0 0 0 0 0 0 0 0 0 0 0 0 0 0 0 0 0 0 127 0"/><feOffset/><feGaussianBlur stdDeviation="14"/><feColorMatrix values="0 0 0 0 1 0 0 0 0 0 0 0 0 0 0.6 0 0 0 1 0"/><feBlend in2="BackgroundImageFix" result="effect1_dropShadow"/><feBlend in="SourceGraphic" in2="effect1_dropShadow" result="shape"/></filter><filter id="filter1_d" x="91.065" y="34.634" width="20.556" height="26.366" filterUnits="userSpaceOnUse" color-interpolation-filters="sRGB"><feFlood flood-opacity="0" result="BackgroundImageFix"/><feColorMatrix in="SourceAlpha" values="0 0 0 0 0 0 0 0 0 0 0 0 0 0 0 0 0 0 127 0"/><feOffset/><feGaussianBlur stdDeviation="2"/><feColorMatrix values="0 0 0 0 0.356863 0 0 0 0 0.494118 0 0 0 0 0.964706 0 0 0 1 0"/><feBlend in2="BackgroundImageFix" result="effect1_dropShadow"/><feBlend in="SourceGraphic" in2="effect1_dropShadow" result="shape"/></filter></defs></svg>