<svg width="149" height="149" fill="none" xmlns="http://www.w3.org/2000/svg"><circle cx="74.027" cy="75.262" r="36.5" transform="rotate(31.105 74.027 75.262)" stroke="#fff" stroke-opacity=".29" stroke-width="10"/><g filter="url(#filter0_d)"><path d="M45.826 50.196a39.026 39.026 0 00-7.792 14.592 38.17 38.17 0 00-.996 16.388 37.078 37.078 0 005.989 15.115 36.532 36.532 0 0011.85 11.01 36.912 36.912 0 0015.493 4.842 37.945 37.945 0 0016.233-2.231 38.91 38.91 0 0013.931-8.888 39.106 39.106 0 009.021-13.88l-1.374-.498a37.593 37.593 0 01-8.67 13.338 37.394 37.394 0 01-13.387 8.542 36.456 36.456 0 01-15.6 2.144 35.47 35.47 0 01-14.888-4.653 35.108 35.108 0 01-11.389-10.581 35.633 35.633 0 01-5.755-14.525 36.682 36.682 0 01.957-15.75 37.502 37.502 0 017.489-14.022l-1.112-.943z" fill="red"/></g><g filter="url(#filter1_d)"><mask id="path-3-inside-1" fill="#fff"><path d="M115.505 72.293a41.507 41.507 0 01-3.097 18.29l-9.147-3.793a31.595 31.595 0 002.358-13.927l9.886-.57z"/></mask><path d="M115.505 72.293a41.507 41.507 0 01-3.097 18.29l-9.147-3.793a31.595 31.595 0 002.358-13.927l9.886-.57z" stroke="#4C8DFA" stroke-width="20" mask="url(#path-3-inside-1)"/></g><defs><filter id="filter0_d" x="8.573" y="22.196" width="128.982" height="118.073" filterUnits="userSpaceOnUse" color-interpolation-filters="sRGB"><feFlood flood-opacity="0" result="BackgroundImageFix"/><feColorMatrix in="SourceAlpha" values="0 0 0 0 0 0 0 0 0 0 0 0 0 0 0 0 0 0 127 0"/><feOffset/><feGaussianBlur stdDeviation="14"/><feColorMatrix values="0 0 0 0 1 0 0 0 0 0 0 0 0 0 0.6 0 0 0 1 0"/><feBlend in2="BackgroundImageFix" result="effect1_dropShadow"/><feBlend in="SourceGraphic" in2="effect1_dropShadow" result="shape"/></filter><filter id="filter1_d" x="99.261" y="68.293" width="20.313" height="26.291" filterUnits="userSpaceOnUse" color-interpolation-filters="sRGB"><feFlood flood-opacity="0" result="BackgroundImageFix"/><feColorMatrix in="SourceAlpha" values="0 0 0 0 0 0 0 0 0 0 0 0 0 0 0 0 0 0 127 0"/><feOffset/><feGaussianBlur stdDeviation="2"/><feColorMatrix values="0 0 0 0 0.298039 0 0 0 0 0.552941 0 0 0 0 0.980392 0 0 0 1 0"/><feBlend in2="BackgroundImageFix" result="effect1_dropShadow"/><feBlend in="SourceGraphic" in2="effect1_dropShadow" result="shape"/></filter></defs></svg>