<svg width="120" height="128" fill="none" xmlns="http://www.w3.org/2000/svg"><circle cx="53.619" cy="65.733" r="36.5" stroke="#fff" stroke-opacity=".29" stroke-width="10"/><g filter="url(#filter0_d)"><path d="M67.873 100a37.81 37.81 0 0013.332-9.294 37.53 37.53 0 008.166-14.003 37.162 37.162 0 001.47-16.09 36.975 36.975 0 00-5.503-15.16A37.104 37.104 0 0073.895 34.06a37.455 37.455 0 00-15.24-5.49 37.844 37.844 0 00-30.276 9.542l.985 1.07a36.37 36.37 0 0129.095-9.17 35.992 35.992 0 0114.646 5.277A35.655 35.655 0 0184.1 46.237a35.533 35.533 0 015.288 14.57 35.712 35.712 0 01-1.412 15.462 36.066 36.066 0 01-7.847 13.457 36.342 36.342 0 01-12.813 8.931l.556 1.343z" fill="red"/></g><g filter="url(#filter1_d)"><mask id="path-3-inside-1" fill="#fff"><path d="M12.469 70.58a41.5 41.5 0 0120.767-40.703l4.825 8.506a31.72 31.72 0 00-15.873 31.112l-9.72 1.085z"/></mask><path d="M12.469 70.58a41.5 41.5 0 0120.767-40.703l4.825 8.506a31.72 31.72 0 00-15.873 31.112l-9.72 1.085z" stroke="#A338E2" stroke-width="20" mask="url(#path-3-inside-1)"/></g><defs><filter id="filter0_d" x=".379" y=".261" width="118.766" height="127.74" filterUnits="userSpaceOnUse" color-interpolation-filters="sRGB"><feFlood flood-opacity="0" result="BackgroundImageFix"/><feColorMatrix in="SourceAlpha" values="0 0 0 0 0 0 0 0 0 0 0 0 0 0 0 0 0 0 127 0"/><feOffset/><feGaussianBlur stdDeviation="14"/><feColorMatrix values="0 0 0 0 1 0 0 0 0 0 0 0 0 0 0.6 0 0 0 1 0"/><feBlend in2="BackgroundImageFix" result="effect1_dropShadow"/><feBlend in="SourceGraphic" in2="effect1_dropShadow" result="shape"/></filter><filter id="filter1_d" x="8.212" y="25.877" width="33.849" height="48.704" filterUnits="userSpaceOnUse" color-interpolation-filters="sRGB"><feFlood flood-opacity="0" result="BackgroundImageFix"/><feColorMatrix in="SourceAlpha" values="0 0 0 0 0 0 0 0 0 0 0 0 0 0 0 0 0 0 127 0"/><feOffset/><feGaussianBlur stdDeviation="2"/><feColorMatrix values="0 0 0 0 0.639216 0 0 0 0 0.219608 0 0 0 0 0.886275 0 0 0 1 0"/><feBlend in2="BackgroundImageFix" result="effect1_dropShadow"/><feBlend in="SourceGraphic" in2="effect1_dropShadow" result="shape"/></filter></defs></svg>