<svg width="124" height="131" fill="none" xmlns="http://www.w3.org/2000/svg"><circle cx="65.478" cy="66.229" r="36.5" stroke="#fff" stroke-opacity=".29" stroke-width="10"/><g filter="url(#filter0_d)"><path d="M87.16 35.523a38.747 38.747 0 00-15.24-6.232 37.997 37.997 0 00-16.343.694 37.043 37.043 0 00-14.383 7.49 36.56 36.56 0 00-9.73 12.884 36.89 36.89 0 00-3.252 15.864 37.8 37.8 0 003.832 15.871 38.645 38.645 0 0010.2 12.907 38.812 38.812 0 0014.657 7.524l.357-1.414a37.304 37.304 0 01-14.086-7.23 37.137 37.137 0 01-9.802-12.404 36.325 36.325 0 01-3.683-15.253 35.451 35.451 0 013.126-15.245 35.136 35.136 0 019.35-12.381A35.6 35.6 0 0155.985 31.4a36.514 36.514 0 0115.705-.667 37.234 37.234 0 0114.646 5.99l.824-1.2z" fill="red"/></g><g filter="url(#filter1_d)"><mask id="path-3-inside-1" fill="#fff"><path d="M81.51 104.337c-8.39 3.512-18.076 4.294-26.912 1.916l2.747-9.622a31.525 31.525 0 0020.38-1.34l3.786 9.046z"/></mask><path d="M81.51 104.337l3.861 9.225 9.225-3.861-3.86-9.225-9.225 3.861zm-26.912 1.916l-9.615-2.746-2.787 9.763 9.803 2.639 2.6-9.656zm2.747-9.622l2.6-9.656-9.512-2.56-2.704 9.47 9.616 2.746zm20.38-1.34l9.224-3.861-3.86-9.225-9.225 3.86 3.86 9.225zm-.075-.179c-6.436 2.694-13.851 3.261-20.452 1.484l-5.199 19.313c11.07 2.98 23.025 1.983 33.372-2.347l-7.721-18.45zm-13.436 13.886l2.747-9.622-19.232-5.49-2.746 9.621 19.231 5.491zm-9.468-2.711a41.528 41.528 0 0026.84-1.772l-7.722-18.45a21.525 21.525 0 01-13.92.91l-5.198 19.312zM68.5 99.151l3.786 9.047 18.45-7.722-3.787-9.046-18.45 7.72z" fill="#706AF0" mask="url(#path-3-inside-1)"/></g><defs><filter id="filter0_d" x=".206" y=".714" width="114.954" height="129.811" filterUnits="userSpaceOnUse" color-interpolation-filters="sRGB"><feFlood flood-opacity="0" result="BackgroundImageFix"/><feColorMatrix in="SourceAlpha" values="0 0 0 0 0 0 0 0 0 0 0 0 0 0 0 0 0 0 127 0"/><feOffset/><feGaussianBlur stdDeviation="14"/><feColorMatrix values="0 0 0 0 1 0 0 0 0 0 0 0 0 0 0.6 0 0 0 1 0"/><feBlend in2="BackgroundImageFix" result="effect1_dropShadow"/><feBlend in="SourceGraphic" in2="effect1_dropShadow" result="shape"/></filter><filter id="filter1_d" x="50.598" y="91.29" width="34.912" height="20.329" filterUnits="userSpaceOnUse" color-interpolation-filters="sRGB"><feFlood flood-opacity="0" result="BackgroundImageFix"/><feColorMatrix in="SourceAlpha" values="0 0 0 0 0 0 0 0 0 0 0 0 0 0 0 0 0 0 127 0"/><feOffset/><feGaussianBlur stdDeviation="2"/><feColorMatrix values="0 0 0 0 0.439216 0 0 0 0 0.415686 0 0 0 0 0.941176 0 0 0 1 0"/><feBlend in2="BackgroundImageFix" result="effect1_dropShadow"/><feBlend in="SourceGraphic" in2="effect1_dropShadow" result="shape"/></filter></defs></svg>