<svg width="124" height="131" fill="none" xmlns="http://www.w3.org/2000/svg"><circle cx="58.461" cy="65.934" r="36.5" stroke="#fff" stroke-opacity=".29" stroke-width="10"/><g filter="url(#filter0_d)"><path d="M36.123 95.682a40.98 40.98 0 0015.621 6.52c5.575 1.05 11.256.899 16.646-.443 5.39-1.341 10.356-3.84 14.552-7.322a35.358 35.358 0 009.73-12.83c2.216-4.969 3.27-10.407 3.09-15.933-.181-5.527-1.592-11.006-4.134-16.054a40.714 40.714 0 00-10.58-13.166A41.158 41.158 0 0066 28.643l-.342 1.419a39.553 39.553 0 0114.459 7.507 39.124 39.124 0 0110.168 12.652c2.442 4.851 3.798 10.117 3.972 15.428.173 5.31-.84 10.537-2.968 15.312a33.98 33.98 0 01-9.352 12.33c-4.032 3.345-8.805 5.747-13.984 7.036-5.18 1.289-10.64 1.434-15.996.425a39.374 39.374 0 01-15.013-6.265l-.822 1.195z" fill="red"/></g><g filter="url(#filter1_d)"><mask id="path-3-inside-1" fill="#fff"><path d="M49.703 25.332c8.91-1.832 18.463-1.016 26.714 3.203l-4.138 9.037c-6.44-3.293-13.795-3.907-20.75-2.477l-1.827-9.763z"/></mask><path d="M49.703 25.332l-2.015-9.795-9.622 1.978 1.807 9.656 9.83-1.84zm26.714 3.203l9.093 4.163 3.986-8.707-8.526-4.36-4.553 8.904zm-4.138 9.037l-4.552 8.904 9.297 4.754 4.347-9.495-9.092-4.163zm-20.75-2.477l-9.83 1.839 1.873 10.006 9.971-2.05-2.014-9.795zm.188.032c7.035-1.447 14.219-.72 20.148 2.311l9.105-17.807c-10.573-5.406-22.497-6.312-33.282-4.094l4.029 19.59zM67.325 24.37l-4.138 9.038 18.184 8.326 4.139-9.037-18.185-8.326zm9.507 4.297c-8.772-4.485-18.5-5.182-27.317-3.368l4.029 19.59c5.091-1.047 10.074-.515 14.183 1.586l9.105-17.808zm-15.473 4.587l-1.827-9.762-19.659 3.678 1.827 9.763 19.659-3.678z" fill="#7D5DED" mask="url(#path-3-inside-1)"/></g><defs><filter id="filter0_d" x="8.123" y=".643" width="115.658" height="130.249" filterUnits="userSpaceOnUse" color-interpolation-filters="sRGB"><feFlood flood-opacity="0" result="BackgroundImageFix"/><feColorMatrix in="SourceAlpha" values="0 0 0 0 0 0 0 0 0 0 0 0 0 0 0 0 0 0 127 0"/><feOffset/><feGaussianBlur stdDeviation="14"/><feColorMatrix values="0 0 0 0 1 0 0 0 0 0 0 0 0 0 0.6 0 0 0 1 0"/><feBlend in2="BackgroundImageFix" result="effect1_dropShadow"/><feBlend in="SourceGraphic" in2="effect1_dropShadow" result="shape"/></filter><filter id="filter1_d" x="45.702" y="20.41" width="34.715" height="21.162" filterUnits="userSpaceOnUse" color-interpolation-filters="sRGB"><feFlood flood-opacity="0" result="BackgroundImageFix"/><feColorMatrix in="SourceAlpha" values="0 0 0 0 0 0 0 0 0 0 0 0 0 0 0 0 0 0 127 0"/><feOffset/><feGaussianBlur stdDeviation="2"/><feColorMatrix values="0 0 0 0 0.490196 0 0 0 0 0.364706 0 0 0 0 0.929412 0 0 0 1 0"/><feBlend in2="BackgroundImageFix" result="effect1_dropShadow"/><feBlend in="SourceGraphic" in2="effect1_dropShadow" result="shape"/></filter></defs></svg>