<svg width="130" height="119" fill="none" xmlns="http://www.w3.org/2000/svg"><circle cx="66.174" cy="66.174" r="36.5" stroke="#fff" stroke-opacity=".29" stroke-width="10"/><g filter="url(#filter0_d)"><path d="M101.686 55.072a37.382 37.382 0 00-7.848-14.092 37.26 37.26 0 00-13.045-9.458 37.107 37.107 0 00-15.799-3.051 37.03 37.03 0 00-15.592 3.926 37.08 37.08 0 00-12.465 10.169 37.228 37.228 0 00-7.003 14.506 37.39 37.39 0 006.359 30.852l1.162-.866a35.932 35.932 0 01-6.11-29.649 35.776 35.776 0 016.729-13.94 35.637 35.637 0 0111.979-9.772 35.586 35.586 0 0114.984-3.774 35.659 35.659 0 0115.182 2.933 35.807 35.807 0 0112.537 9.089 35.928 35.928 0 017.542 13.542l1.388-.415z" fill="red"/></g><g filter="url(#filter1_d)"><mask id="path-3-inside-1" fill="#fff"><path d="M46.397 102.897a41.503 41.503 0 01-21.63-40.252l9.936.896a31.525 31.525 0 0016.43 30.576l-4.736 8.78z"/></mask><path d="M46.397 102.897a41.503 41.503 0 01-21.63-40.252l9.936.896a31.525 31.525 0 0016.43 30.576l-4.736 8.78z" stroke="#D10BD5" stroke-width="20" mask="url(#path-3-inside-1)"/></g><defs><filter id="filter0_d" x=".935" y=".456" width="128.751" height="115.467" filterUnits="userSpaceOnUse" color-interpolation-filters="sRGB"><feFlood flood-opacity="0" result="BackgroundImageFix"/><feColorMatrix in="SourceAlpha" values="0 0 0 0 0 0 0 0 0 0 0 0 0 0 0 0 0 0 127 0"/><feOffset/><feGaussianBlur stdDeviation="14"/><feColorMatrix values="0 0 0 0 1 0 0 0 0 0 0 0 0 0 0.6 0 0 0 1 0"/><feBlend in2="BackgroundImageFix" result="effect1_dropShadow"/><feBlend in="SourceGraphic" in2="effect1_dropShadow" result="shape"/></filter><filter id="filter1_d" x="20.6" y="58.645" width="34.533" height="48.252" filterUnits="userSpaceOnUse" color-interpolation-filters="sRGB"><feFlood flood-opacity="0" result="BackgroundImageFix"/><feColorMatrix in="SourceAlpha" values="0 0 0 0 0 0 0 0 0 0 0 0 0 0 0 0 0 0 127 0"/><feOffset/><feGaussianBlur stdDeviation="2"/><feColorMatrix values="0 0 0 0 0.819608 0 0 0 0 0.0431373 0 0 0 0 0.835294 0 0 0 1 0"/><feBlend in2="BackgroundImageFix" result="effect1_dropShadow"/><feBlend in="SourceGraphic" in2="effect1_dropShadow" result="shape"/></filter></defs></svg>