<svg width="220" height="73" viewBox="0 0 220 73" fill="none" xmlns="http://www.w3.org/2000/svg">
<rect width="204" height="57.2467" transform="translate(8 8)" fill="#100955"/>
<g filter="url(#filter0_d)">
<rect x="9.25562" y="9.25244" width="201.489" height="54.7403" stroke="#FF6B00"/>
</g>
<line x1="8.75562" y1="8.75977" x2="20.8445" y2="8.75977" stroke="#FF6B00" stroke-width="3"/>
<line y1="-1.5" x2="12.0889" y2="-1.5" transform="matrix(-1 0 0 1 211.244 10.2598)" stroke="#FF6B00" stroke-width="3"/>
<line y1="-1.5" x2="12.0889" y2="-1.5" transform="matrix(1 1.17515e-07 6.5052e-08 -1 8.75562 62.9871)" stroke="#FF6B00" stroke-width="3"/>
<line x1="211.244" y1="64.4871" x2="199.156" y2="64.4871" stroke="#FF6B00" stroke-width="3"/>
<line x1="9.5" y1="8" x2="9.5" y2="20.0519" stroke="#FF6B00" stroke-width="3"/>
<line y1="-1.5" x2="12.0519" y2="-1.5" transform="matrix(3.41726e-09 1 1 -5.59128e-07 212 8)" stroke="#FF6B00" stroke-width="3"/>
<line y1="-1.5" x2="12.8052" y2="-1.5" transform="matrix(5.80307e-08 -1 -1 -3.29254e-08 8 65.2468)" stroke="#FF6B00" stroke-width="3"/>
<line x1="210.5" y1="65.2468" x2="210.5" y2="52.4416" stroke="#FF6B00" stroke-width="3"/>
<defs>
<filter id="filter0_d" x="0.755615" y="0.752441" width="218.489" height="71.7403" filterUnits="userSpaceOnUse" color-interpolation-filters="sRGB">
<feFlood flood-opacity="0" result="BackgroundImageFix"/>
<feColorMatrix in="SourceAlpha" type="matrix" values="0 0 0 0 0 0 0 0 0 0 0 0 0 0 0 0 0 0 127 0"/>
<feOffset/>
<feGaussianBlur stdDeviation="4"/>
<feColorMatrix type="matrix" values="0 0 0 0 1 0 0 0 0 0.419608 0 0 0 0 0 0 0 0 1 0"/>
<feBlend mode="normal" in2="BackgroundImageFix" result="effect1_dropShadow"/>
<feBlend mode="normal" in="SourceGraphic" in2="effect1_dropShadow" result="shape"/>
</filter>
</defs>
</svg>
