<svg width="204" height="60" viewBox="0 0 204 60" fill="none" xmlns="http://www.w3.org/2000/svg">
<rect x="1.25549" y="2.26318" width="201.489" height="55.4737" fill="#100955" stroke="#00C2FF"/>
<line x1="0.755493" y1="1.78955" x2="12.8444" y2="1.78955" stroke="#00C2FF" stroke-width="3"/>
<line y1="-1.5" x2="12.0889" y2="-1.5" transform="matrix(-1 0 0 1 203.245 3.28955)" stroke="#00C2FF" stroke-width="3"/>
<line y1="-1.5" x2="12.0889" y2="-1.5" transform="matrix(1 1.17515e-07 6.5052e-08 -1 0.755493 56.7104)" stroke="#00C2FF" stroke-width="3"/>
<line x1="203.245" y1="58.2104" x2="191.156" y2="58.2104" stroke="#00C2FF" stroke-width="3"/>
<line x1="1.5" y1="1" x2="1.5" y2="13.2105" stroke="#00C2FF" stroke-width="3"/>
<line y1="-1.5" x2="12.2105" y2="-1.5" transform="matrix(3.98807e-09 1 1 -4.791e-07 204 1)" stroke="#00C2FF" stroke-width="3"/>
<line y1="-1.5" x2="12.9737" y2="-1.5" transform="matrix(5.7277e-08 -1 -1 -3.33587e-08 0 59)" stroke="#00C2FF" stroke-width="3"/>
<line x1="202.5" y1="59" x2="202.5" y2="46.0263" stroke="#00C2FF" stroke-width="3"/>
</svg>
