<svg width="284" height="90" viewBox="0 0 284 90" fill="none" xmlns="http://www.w3.org/2000/svg">
<g filter="url(#filter0_d)">
<rect x="8.5" y="8.5" width="267" height="73" stroke="#00C2FF"/>
</g>
<line x1="8" y1="8.5" x2="24" y2="8.5" stroke="#00C2FF" stroke-width="3"/>
<line y1="-1.5" x2="16" y2="-1.5" transform="matrix(-1 0 0 1 276 10)" stroke="#00C2FF" stroke-width="3"/>
<line y1="-1.5" x2="16" y2="-1.5" transform="matrix(1 8.87888e-08 8.60982e-08 -1 8 80)" stroke="#00C2FF" stroke-width="3"/>
<line x1="276" y1="81.5" x2="260" y2="81.5" stroke="#00C2FF" stroke-width="3"/>
<line x1="8.5" y1="7" x2="8.5" y2="23" stroke="#00C2FF" stroke-width="3"/>
<line y1="-1.5" x2="16" y2="-1.5" transform="matrix(2.57126e-09 1 1 -7.43094e-07 277 7)" stroke="#00C2FF" stroke-width="3"/>
<line y1="-1.5" x2="17" y2="-1.5" transform="matrix(4.37114e-08 -1 -1 -4.37114e-08 7 83)" stroke="#00C2FF" stroke-width="3"/>
<line x1="275.5" y1="83" x2="275.5" y2="66" stroke="#00C2FF" stroke-width="3"/>
<defs>
<filter id="filter0_d" x="0" y="0" width="284" height="90" filterUnits="userSpaceOnUse" color-interpolation-filters="sRGB">
<feFlood flood-opacity="0" result="BackgroundImageFix"/>
<feColorMatrix in="SourceAlpha" type="matrix" values="0 0 0 0 0 0 0 0 0 0 0 0 0 0 0 0 0 0 127 0"/>
<feOffset/>
<feGaussianBlur stdDeviation="4"/>
<feColorMatrix type="matrix" values="0 0 0 0 0.00416666 0 0 0 0 0.8805 0 0 0 0 1 0 0 0 1 0"/>
<feBlend mode="normal" in2="BackgroundImageFix" result="effect1_dropShadow"/>
<feBlend mode="normal" in="SourceGraphic" in2="effect1_dropShadow" result="shape"/>
</filter>
</defs>
</svg>
