<svg width="587" height="582" viewBox="0 0 587 582" fill="none" xmlns="http://www.w3.org/2000/svg">
<mask id="mask0" mask-type="alpha" maskUnits="userSpaceOnUse" x="0" y="0" width="587" height="582">
<path d="M291.619 87.8266C313.225 88.1545 334.644 91.881 355.091 98.8693L338.908 146.218C323.43 140.928 307.215 138.107 290.86 137.859L291.619 87.8266Z" fill="#C4C4C4"/>
<path d="M361.766 101.211C382.532 109.131 401.879 120.361 419.056 134.464L387.303 173.137C374.3 162.46 359.654 153.959 343.934 147.964L361.766 101.211Z" fill="#C4C4C4"/>
<path d="M424.882 139.363C442.845 155.397 457.856 174.458 469.234 195.679L425.135 219.324C416.522 203.26 405.158 188.831 391.56 176.693L424.882 139.363Z" fill="#C4C4C4"/>
<path d="M472.438 201.592C481.846 221.044 488.133 241.857 491.069 263.264L441.495 270.063C439.273 253.858 434.513 238.103 427.392 223.377L472.438 201.592Z" fill="#C4C4C4"/>
<path d="M492.303 270.735C495.509 306.119 489.505 341.731 474.875 374.108L429.276 353.503C440.351 328.994 444.896 302.036 442.469 275.25L492.303 270.735Z" fill="#C4C4C4"/>
<path d="M471.902 380.413C455.462 414.063 430.157 442.592 398.71 462.93L371.537 420.913C395.342 405.517 414.498 383.921 426.943 358.448L471.902 380.413Z" fill="#C4C4C4"/>
<path d="M391.603 467.318C355.427 486.036 314.512 493.605 274.034 489.068C233.556 484.53 195.332 468.09 164.199 441.826L196.463 403.579C220.031 423.461 248.966 435.906 279.608 439.341C310.25 442.776 341.223 437.046 368.608 422.877L391.603 467.318Z" fill="#C4C4C4"/>
<path d="M159.08 437.102C127.233 407.477 105.586 368.528 97.2411 325.841C88.8963 283.154 94.2826 238.92 112.628 199.483L157.997 220.588C144.11 250.442 140.033 283.927 146.35 316.241C152.667 348.555 169.054 378.039 193.161 400.466L159.08 437.102Z" fill="#C4C4C4"/>
<path d="M115.702 192.902C130.929 164.42 152.642 139.918 179.087 121.377L207.813 162.348C187.794 176.384 171.357 194.932 159.83 216.493L115.702 192.902Z" fill="#C4C4C4"/>
<path d="M185.984 116.098C215.685 98.6246 249.297 88.8843 283.74 87.77L285.358 137.782C259.285 138.626 233.841 145.999 211.357 159.227L185.984 116.098Z" fill="#C4C4C4"/>
</mask>
<g mask="url(#mask0)">
<path d="M513.228 290.063C513.228 411.004 415.185 509.047 294.244 509.047C173.302 509.047 75.2595 411.004 75.2595 290.063C75.2595 169.121 173.302 71.0784 294.244 71.0784C415.185 71.0784 513.228 169.121 513.228 290.063Z" fill="url(#paint0_angular)"/>
</g>
<defs>
<radialGradient id="paint0_angular" cx="0" cy="0" r="1" gradientUnits="userSpaceOnUse" gradientTransform="translate(294.244 290.063) rotate(23.642) scale(407.921)">
<stop offset="0.161458" stop-color="#DB00D2"/>
<stop offset="1" stop-color="#38A0FF"/>
</radialGradient>
</defs>
</svg>
