<svg width="89" height="89" viewBox="0 0 89 89" fill="none" xmlns="http://www.w3.org/2000/svg">
<path d="M41.2866 76.5709L41.589 73.5159C40.6127 73.4192 39.6318 73.2703 38.6723 73.0769L38.0645 76.0858C39.1221 76.3007 40.2074 76.4649 41.2866 76.5709Z" fill="white"/>
<path d="M79.3378 28.4028L85.0146 26.0526C83.0021 21.6513 80.2957 17.6324 77.0321 14.1384L72.6924 18.4782C75.3941 21.4027 77.6431 24.7492 79.3378 28.4028Z" fill="white"/>
<path d="M74.8623 11.9678C71.3684 8.70409 67.3511 5.99766 62.9484 3.98511L60.5967 9.66201C64.2517 11.3568 67.5967 13.6058 70.5226 16.3076L74.8623 11.9678Z" fill="white"/>
<path d="M60.114 2.80621C55.7083 1.15135 50.9787 0.168864 46.0433 0V6.14512C50.1482 6.30784 54.0841 7.12606 57.7622 8.48465L60.114 2.80621Z" fill="white"/>
<path d="M86.1939 28.8865L80.5156 31.2383C81.8742 34.9165 82.6924 38.8525 82.8551 42.9575H89.0001C88.8328 38.022 87.8488 33.2923 86.1939 28.8865Z" fill="white"/>
<path d="M24.0058 12.0493L20.934 6.72852C1.12676 19.0817 -5.7658 44.8089 5.2101 65.4088L10.5307 62.337C6.02063 53.7694 4.91844 43.9661 7.43906 34.5589C9.95814 25.1531 15.8161 17.215 24.0058 12.0493Z" fill="white"/>
<path d="M72.7109 70.5271L77.0552 74.873C78.9772 72.8129 80.7272 70.5424 82.2699 68.0694L76.9493 64.9976C75.6967 66.984 74.2737 68.8277 72.7109 70.5271Z" fill="white"/>
<path d="M54.4429 81.5629C45.0359 84.0821 35.2328 82.9799 26.6655 78.4712L23.5938 83.7919C35.242 89.9985 48.5267 90.4882 60.109 86.1637L57.7649 80.5052C56.6796 80.9028 55.5728 81.2605 54.4429 81.5629Z" fill="white"/>
<path d="M60.5957 79.3185L62.9429 84.9846C67.278 83.0181 71.3183 80.3501 74.8767 77.0326L70.5324 72.6882C67.6003 75.4039 64.2584 77.6375 60.5957 79.3185Z" fill="white"/>
<path d="M44.5088 76.7302C52.3715 76.7302 59.9441 73.8672 65.8327 68.6708L63.8003 66.3696C58.4735 71.0702 51.6224 73.66 44.5088 73.66V76.7302Z" fill="white"/>
<g>
<path d="M52.25 47.4625V40.5H49.75V47.39C49.9581 47.3837 50.1656 47.375 50.375 47.375C51.005 47.375 51.63 47.4062 52.25 47.4625Z" fill="#A0A0A0"/>
<path d="M57.25 38H54.75V47.8475C55.5994 48.0319 56.435 48.265 57.25 48.555V38Z" fill="#A0A0A0"/>
<path d="M62.25 35.5H59.75V49.6419C60.6156 50.0887 61.4506 50.5994 62.25 51.1706V35.5Z" fill="#A0A0A0"/>
<path d="M27.875 48.6086V59.8749C27.875 60.5643 28.4356 61.1249 29.125 61.1249C29.8144 61.1249 30.375 60.5643 30.375 59.8749V49.2499H29.75C29.0438 49.2499 28.3988 49.0055 27.875 48.6086Z" fill="#A0A0A0"/>
<path d="M32.875 33C34.6009 33 36 31.6009 36 29.875C36 28.1491 34.6009 26.75 32.875 26.75C31.1491 26.75 29.75 28.1491 29.75 29.875C29.75 31.6009 31.1491 33 32.875 33Z" fill="#A0A0A0"/>
<path d="M55.375 24.875H56.625V33.625H55.375V24.875Z" fill="#A0A0A0"/>
<path d="M42.0525 29.7108C42.4488 29.4139 42.94 29.2501 43.435 29.2501H43.6962C44.6369 29.2501 45.4444 29.8176 45.8019 30.627L49.125 31.042V27.4583L40.375 28.552V29.9483L41.5412 30.0939L42.0525 29.7108Z" fill="#A0A0A0"/>
<path d="M37.875 47.375C37.875 46.3413 37.0337 45.5 36 45.5H33.5V36.125H38.4631C39.1544 36.125 39.8356 35.8913 40.3813 35.4669L44.3425 32.3856C44.6019 32.1844 44.75 31.8812 44.75 31.5537C44.75 30.9725 44.2769 30.5 43.6956 30.5H43.4344C43.2081 30.5 42.9831 30.575 42.8013 30.7113L38.5825 33.875C38.2606 34.1169 37.8619 34.25 37.4575 34.25H31C29.2769 34.25 27.875 35.6519 27.875 37.375V46.125C27.875 47.1588 28.7162 48 29.75 48H34.125C34.8144 48 35.375 48.5606 35.375 49.25L35.3744 52.9994C35.3744 53.2869 35.4781 53.555 35.6487 53.7713C35.7213 53.6313 35.8031 53.4956 35.9025 53.3719L36.0194 53.2513C36.6088 52.6712 37.2306 52.1362 37.8756 51.6375V47.375H37.875Z" fill="#A0A0A0"/>
<path d="M50.375 26.125H54.125V32.375H50.375V26.125Z" fill="#A0A0A0"/>
<path d="M50.375 48.625C46.9288 48.625 44.125 51.4288 44.125 54.875C44.125 58.3212 46.9288 61.125 50.375 61.125C53.8212 61.125 56.625 58.3212 56.625 54.875C56.625 51.4288 53.8212 48.625 50.375 48.625ZM55.3406 55.3919L54.955 55.58C54.4587 55.7581 54.125 56.2288 54.125 56.75C54.125 56.9563 54.1812 57.16 54.2912 57.3563L54.5025 57.7306L54.2288 58.0612C53.2744 59.2137 51.87 59.875 50.375 59.875C47.6181 59.875 45.375 57.6319 45.375 54.875C45.375 52.1181 47.6181 49.875 50.375 49.875C53.1319 49.875 55.375 52.1181 55.375 54.875C55.375 54.9125 55.3731 54.9494 55.37 54.9863L55.3406 55.3919Z" fill="#A0A0A0"/>
<path d="M42.875 54.8752C42.875 52.6496 43.855 50.6527 45.4 49.2783C42.2219 50.1252 39.2994 51.7789 36.895 54.1427L36.8581 54.1789C36.7075 54.3789 36.625 54.6252 36.625 54.8752C36.625 55.1252 36.7075 55.3714 36.8581 55.5714L36.8944 55.6071C39.2994 57.9714 42.2219 59.6252 45.4 60.4721C43.855 59.0971 42.875 57.1008 42.875 54.8752Z" fill="#A0A0A0"/>
<path d="M63.8916 54.1789L63.8554 54.1433C61.4504 51.7789 58.5279 50.1252 55.3497 49.2783C56.8947 50.6527 57.8747 52.6496 57.8747 54.8752C57.8747 57.1008 56.8947 59.0977 55.3497 60.4721C58.5279 59.6252 61.4504 57.9714 63.8547 55.6077L63.8916 55.5714C64.0422 55.3714 64.1247 55.1252 64.1247 54.8752C64.1247 54.6252 64.0422 54.3789 63.8916 54.1789Z" fill="#A0A0A0"/>
<path d="M51.3531 51.2578C51.5256 51.5978 51.625 51.9772 51.625 52.3753C51.625 53.7541 50.5038 54.8753 49.125 54.8753C48.1463 54.8753 47.3056 54.3047 46.8956 53.4834C46.7225 53.9147 46.625 54.3834 46.625 54.8753C46.625 56.9434 48.3069 58.6253 50.375 58.6253C51.3688 58.6253 52.31 58.2353 53.0094 57.5441C52.92 57.2866 52.875 57.0216 52.875 56.7503C52.875 55.8591 53.3569 55.0434 54.1119 54.6009C53.9888 52.9859 52.8562 51.6659 51.3531 51.2578Z" fill="#A0A0A0"/>
<path d="M49.125 53.6251C49.8144 53.6251 50.375 53.0644 50.375 52.3751C50.375 51.8557 50.045 51.3976 49.5625 51.2163C48.9481 51.3526 48.3906 51.6401 47.93 52.0382C47.8975 52.1501 47.875 52.2632 47.875 52.3751C47.875 53.0644 48.4356 53.6251 49.125 53.6251Z" fill="#A0A0A0"/>
</g>
</svg>
