<svg width="89" height="89" viewBox="0 0 89 89" fill="none" xmlns="http://www.w3.org/2000/svg">
<path d="M41.2869 76.5709L41.5893 73.5159C40.613 73.4192 39.632 73.2703 38.6726 73.0769L38.0647 76.0858C39.1224 76.3007 40.2077 76.4649 41.2869 76.5709Z" fill="white"/>
<path d="M79.3377 28.4031L85.0145 26.0528C83.0019 21.6516 80.2956 17.6326 77.032 14.1387L72.6923 18.4785C75.394 21.4029 77.6429 24.7495 79.3377 28.4031Z" fill="white"/>
<path d="M74.8622 11.968C71.3683 8.70433 67.351 5.9979 62.9483 3.98535L60.5966 9.66225C64.2516 11.357 67.5966 13.606 70.5225 16.3078L74.8622 11.968Z" fill="white"/>
<path d="M60.1141 2.80621C55.7084 1.15135 50.9788 0.168864 46.0435 0V6.14512C50.1483 6.30784 54.0843 7.12606 57.7624 8.48465L60.1141 2.80621Z" fill="white"/>
<path d="M86.1947 28.8867L80.5164 31.2385C81.8749 34.9167 82.6931 38.8528 82.8558 42.9577H89.0008C88.8335 38.0223 87.8495 33.2925 86.1947 28.8867Z" fill="white"/>
<path d="M24.0058 12.0493L20.9341 6.72852C1.12676 19.0817 -5.76581 44.8089 5.21011 65.4088L10.5307 62.337C6.02064 53.7694 4.91844 43.9661 7.43907 34.5589C9.95815 25.1531 15.8161 17.215 24.0058 12.0493Z" fill="white"/>
<path d="M72.7114 70.5271L77.0557 74.873C78.9777 72.8129 80.7277 70.5424 82.2704 68.0694L76.9498 64.9976C75.6972 66.984 74.2742 68.8277 72.7114 70.5271Z" fill="white"/>
<path d="M54.4423 81.5629C45.0352 84.0821 35.2321 82.9799 26.6647 78.4712L23.593 83.7919C35.2413 89.9985 48.526 90.4882 60.1083 86.1637L57.7642 80.5052C56.6789 80.9028 55.5721 81.2605 54.4423 81.5629Z" fill="white"/>
<path d="M60.5956 79.3185L62.9427 84.9846C67.2778 83.0181 71.3182 80.3501 74.8766 77.0326L70.5322 72.6882C67.6002 75.4039 64.2583 77.6375 60.5956 79.3185Z" fill="white"/>
<path d="M44.5092 76.73C52.3719 76.73 59.9445 73.867 65.8331 68.6705L63.8007 66.3694C58.4739 71.0699 51.6228 73.6597 44.5092 73.6597V76.73Z" fill="white"/>
<g>
<path d="M38.273 39.114H35.5144V45.0775C36.0875 44.7595 36.6516 44.4237 37.2006 44.0575L37.3744 43.9416H38.273V39.114Z" fill="#A0A0A0"/>
<path d="M25.8601 56.4322C29.7656 56.7301 33.5248 57.9363 36.8944 59.9508V45.8625C33.5248 47.877 29.7656 49.0832 25.8601 49.3812V56.4322ZM27.2394 50.8377H28.6187V52.217H27.2394V50.8377ZM27.2394 53.5963H28.6187V54.9757H27.2394V53.5963Z" fill="#A0A0A0"/>
<path d="M23.7908 49.4587C21.8894 49.4587 20.3425 51.0056 20.3425 52.907C20.3425 54.8083 21.8894 56.3552 23.7908 56.3552H23.917C24.1059 56.3552 24.2921 56.3711 24.4804 56.3759V49.438C24.2921 49.4428 24.1059 49.4587 23.917 49.4587H23.7908Z" fill="#A0A0A0"/>
<path d="M25.1696 58.9738V65.3207C25.1696 66.0813 25.7883 66.7 26.5489 66.7C27.3096 66.7 27.9282 66.0813 27.9282 65.3207V58.0841C26.831 57.8986 25.7179 57.791 24.5945 57.7593L25.1696 58.9738Z" fill="#A0A0A0"/>
<path d="M43.7908 36.3552H46.5494V57.0449H43.7908V36.3552Z" fill="#A0A0A0"/>
<path d="M38.2732 45.3206H39.6525V60.493H38.2732V45.3206Z" fill="#A0A0A0"/>
<path d="M53.4455 37.7347C54.2072 37.7347 54.8247 37.1172 54.8247 36.3554C54.8247 35.5936 54.2072 34.9761 53.4455 34.9761C52.6837 34.9761 52.0662 35.5936 52.0662 36.3554C52.0662 37.1172 52.6837 37.7347 53.4455 37.7347Z" fill="#A0A0A0"/>
<path d="M29.9982 26.7V47.2813C31.4175 46.9089 32.8043 46.4206 34.136 45.7917V37.7344H39.6532V43.9413H41.0325V57.0448H42.4118V34.9758H47.9289V57.0448H50.6875V40.4931H56.2047V57.0448H60.3426V26.7H29.9982ZM53.4461 39.1137C51.9247 39.1137 50.6875 37.8765 50.6875 36.3551C50.6875 36.0379 50.7523 35.7379 50.851 35.4537L47 32.8862C46.5117 33.3227 45.8752 33.5965 45.1704 33.5965C44.2021 33.5965 43.3518 33.0924 42.8594 32.3351L39.6339 33.4103C39.6387 33.4731 39.6532 33.5324 39.6532 33.5965C39.6532 35.1179 38.416 36.3551 36.8946 36.3551C35.3733 36.3551 34.136 35.1179 34.136 33.5965C34.136 32.0751 35.3733 30.8379 36.8946 30.8379C37.8629 30.8379 38.7132 31.342 39.2056 32.0993L42.4311 31.0241C42.4263 30.9613 42.4118 30.9013 42.4118 30.8379C42.4118 29.3165 43.649 28.0793 45.1704 28.0793C46.6917 28.0793 47.9289 29.3165 47.9289 30.8379C47.9289 31.1551 47.8641 31.4551 47.7655 31.7393L51.6165 34.3068C52.1047 33.8703 52.7413 33.5965 53.4461 33.5965C54.9675 33.5965 56.2047 34.8337 56.2047 36.3551C56.2047 37.8765 54.9675 39.1137 53.4461 39.1137Z" fill="#A0A0A0"/>
<path d="M52.0662 41.8721H54.8247V57.0445H52.0662V41.8721Z" fill="#A0A0A0"/>
<path d="M36.8937 34.9754C37.6555 34.9754 38.273 34.3579 38.273 33.5961C38.273 32.8343 37.6555 32.2168 36.8937 32.2168C36.1319 32.2168 35.5144 32.8343 35.5144 33.5961C35.5144 34.3579 36.1319 34.9754 36.8937 34.9754Z" fill="#A0A0A0"/>
<path d="M45.1701 32.2174C45.9318 32.2174 46.5494 31.5998 46.5494 30.8381C46.5494 30.0763 45.9318 29.4587 45.1701 29.4587C44.4083 29.4587 43.7908 30.0763 43.7908 30.8381C43.7908 31.5998 44.4083 32.2174 45.1701 32.2174Z" fill="#A0A0A0"/>
</g>
</svg>
