<svg width="89" height="89" viewBox="0 0 89 89" fill="none" xmlns="http://www.w3.org/2000/svg">
<path d="M41.2866 76.5709L41.589 73.5159C40.6127 73.4192 39.6318 73.2703 38.6723 73.0769L38.0645 76.0858C39.1221 76.3007 40.2074 76.4649 41.2866 76.5709Z" fill="white"/>
<path d="M79.3378 28.4028L85.0146 26.0526C83.0021 21.6513 80.2957 17.6324 77.0321 14.1384L72.6924 18.4782C75.3941 21.4027 77.6431 24.7492 79.3378 28.4028Z" fill="white"/>
<path d="M74.8623 11.9678C71.3684 8.70409 67.3511 5.99766 62.9484 3.98511L60.5967 9.66201C64.2517 11.3568 67.5967 13.6058 70.5226 16.3076L74.8623 11.9678Z" fill="white"/>
<path d="M60.114 2.80621C55.7083 1.15135 50.9787 0.168864 46.0433 0V6.14512C50.1482 6.30784 54.0841 7.12606 57.7622 8.48465L60.114 2.80621Z" fill="white"/>
<path d="M86.1939 28.8865L80.5156 31.2383C81.8742 34.9165 82.6924 38.8525 82.8551 42.9575H89.0001C88.8328 38.022 87.8488 33.2923 86.1939 28.8865Z" fill="white"/>
<path d="M24.0058 12.0493L20.934 6.72852C1.12676 19.0817 -5.7658 44.8089 5.2101 65.4088L10.5307 62.337C6.02063 53.7694 4.91844 43.9661 7.43906 34.5589C9.95814 25.1531 15.8161 17.215 24.0058 12.0493Z" fill="white"/>
<path d="M72.7109 70.5271L77.0552 74.873C78.9772 72.8129 80.7272 70.5424 82.2699 68.0694L76.9493 64.9976C75.6967 66.984 74.2737 68.8277 72.7109 70.5271Z" fill="white"/>
<path d="M54.4429 81.5629C45.0359 84.0821 35.2328 82.9799 26.6655 78.4712L23.5938 83.7919C35.242 89.9985 48.5267 90.4882 60.109 86.1637L57.7649 80.5052C56.6796 80.9028 55.5728 81.2605 54.4429 81.5629Z" fill="white"/>
<path d="M60.5957 79.3185L62.9429 84.9846C67.278 83.0181 71.3183 80.3501 74.8767 77.0326L70.5324 72.6882C67.6003 75.4039 64.2584 77.6375 60.5957 79.3185Z" fill="white"/>
<path d="M44.5088 76.7302C52.3715 76.7302 59.9441 73.8672 65.8327 68.6708L63.8003 66.3696C58.4735 71.0702 51.6224 73.66 44.5088 73.66V76.7302Z" fill="white"/>
<g>
<path d="M33.2421 38.3967L33.5863 38.5957V40.7799L32.0181 41.1718L35.6553 43.2937L35.629 44.5689L35.5731 44.7642L37.7242 44.2854V43.7745C37.7242 42.8475 38.0987 41.9985 38.7119 41.3712L36.3456 40.7799L36.3429 38.5974L36.6877 38.3981C37.7525 37.7815 38.4139 36.6379 38.4139 35.4138V34.2083C38.4139 32.2676 36.9147 30.6435 35.0717 30.5883C34.1379 30.5519 33.2395 30.9048 32.5643 31.5594C31.8891 32.2144 31.5173 33.094 31.5173 34.0345V35.4138C31.5173 36.6379 32.178 37.7815 33.2421 38.3967Z" fill="#A0A0A0"/>
<path d="M38.3814 30.6953C40.0021 28.0862 42.8827 26.4483 45.9999 26.4483C49.0949 26.4483 51.9674 28.0711 53.5929 30.6546C53.6205 30.627 53.6447 30.5966 53.673 30.569C54.1027 30.1518 54.5964 29.8302 55.1288 29.6012L55.911 27.7697L53.7104 25.5684L51.7711 26.8305L51.4 26.6028C50.4702 26.0331 49.4654 25.6158 48.4137 25.3643L47.9887 25.2619L47.5095 23H44.4896L44.0111 25.2619L43.5868 25.3633C42.5351 25.6152 41.5303 26.0324 40.6005 26.6022L40.2294 26.8298L38.2901 25.5677L36.0868 27.771L36.8606 29.6157C37.4318 29.873 37.9476 30.2414 38.3814 30.6953Z" fill="#A0A0A0"/>
<path d="M26 38.8621V51.4681L28.96 52.4551L31.4627 42.4447L26 38.8621Z" fill="#A0A0A0"/>
<path d="M54.2759 39.3709C52.9905 38.4732 52.2069 36.9925 52.2069 35.4138V34.0345C52.2069 33.2745 52.3854 32.5454 52.7137 31.8871C51.4089 29.4117 48.8132 27.8276 46 27.8276C43.1599 27.8276 40.5532 29.4332 39.2581 31.9427C39.5978 32.6263 39.7931 33.3967 39.7931 34.2083V35.4138C39.7931 36.9925 39.0089 38.4745 37.7235 39.3716V39.702L40.4828 40.3926L43.2414 39.702V39.3709C41.9561 38.4732 41.1725 36.9925 41.1725 35.4138V34.0345C41.1725 32.7172 41.6931 31.4871 42.6386 30.5698C43.5836 29.6525 44.8282 29.1713 46.1482 29.209C48.7284 29.2871 50.8276 31.5291 50.8276 34.2083V35.4138C50.8276 36.9925 50.0434 38.4745 48.758 39.3716V39.702L51.5173 40.3926L54.2759 39.702V39.3709Z" fill="#A0A0A0"/>
<path d="M34.2757 44.0858L32.7028 43.1685L30.2715 52.8927L31.6289 53.3449H31.6868L34.2757 44.2828V44.0858Z" fill="#A0A0A0"/>
<path d="M40.6703 41.7669C39.7483 41.9979 39.1034 42.8236 39.1034 43.7745V43.9786L39.4987 43.8911C40.9552 43.5684 42.4951 43.6365 43.9178 44.0924L47.0398 45.0902C47.3853 45.1033 47.7295 45.1414 48.0628 45.2367L52.3035 46.4483H52.7261L52.8965 46.3587V43.7745C52.8965 42.8236 52.2516 41.9979 51.3296 41.7669L47.3799 40.7799L47.3772 38.5974L47.7221 38.3981C48.7869 37.7815 49.4482 36.6379 49.4482 35.4138V34.2083C49.4482 32.2676 47.949 30.6435 46.106 30.5883C45.1753 30.5519 44.2738 30.9048 43.5986 31.5594C42.9234 32.2144 42.5517 33.094 42.5517 34.0345V35.4138C42.5517 36.6379 43.2124 37.7815 44.2765 38.3967L44.6206 38.5957V40.7799L40.6703 41.7669Z" fill="#A0A0A0"/>
<path d="M53.5861 34.0345V35.4138C53.5861 36.6379 54.2468 37.7815 55.3109 38.3967L55.6551 38.5957V40.7799L53.2881 41.3712C53.9006 41.9985 54.2758 42.8468 54.2758 43.7745V45.6324L61.8599 41.6406L58.4144 40.7799L58.4117 38.5974L58.7565 38.3981C59.8213 37.7815 60.4827 36.6379 60.4827 35.4138V34.2083C60.4827 32.2676 58.9835 30.6435 57.1405 30.5883C56.2046 30.5519 55.3089 30.9048 54.633 31.5594C53.9579 32.2144 53.5861 33.094 53.5861 34.0345Z" fill="#A0A0A0"/>
<path d="M47.5129 50.256C47.0674 49.8552 46.375 49.7869 45.8591 50.0967L43.2908 51.6366C42.9338 51.8518 42.522 51.9656 42.1034 51.9656C40.8295 51.9656 39.793 50.9291 39.793 49.6552V49.5188C39.793 48.6386 40.282 47.8469 41.0703 47.4526L44.5145 45.7304L43.4986 45.4055C42.3068 45.0243 41.0191 44.965 39.7984 45.2381L35.1426 46.2733L33.2854 52.7731L35.4042 54.0444C35.4648 53.9629 35.5248 53.8807 35.5972 53.8083L36.8094 52.596C37.2088 52.1953 37.7634 51.9656 38.3302 51.9656C39.491 51.9656 40.4345 52.891 40.4749 54.0423C41.6 54.0821 42.5042 54.9862 42.5439 56.1113C43.669 56.151 44.5731 57.0552 44.6129 58.1803C45.4288 58.2092 46.1255 58.6925 46.4646 59.3855L48.0039 60.6685C48.2063 60.8372 48.4642 60.9311 48.7289 60.9311C49.1256 60.9311 49.4482 60.6085 49.4482 60.2119C49.4482 59.9973 49.3536 59.796 49.1896 59.6593L45.5578 56.6333L46.4414 55.5732L50.1873 58.6945C50.3163 58.8029 50.48 58.8622 50.6473 58.8622H50.7979C51.1945 58.8622 51.5171 58.5396 51.5171 58.1429C51.5171 57.9284 51.4225 57.727 51.2585 57.5903L47.6267 54.5643L48.5103 53.5042L52.2502 56.6208C52.3826 56.7319 52.5523 56.7932 52.7247 56.7932H52.8439C53.2537 56.7932 53.5861 56.4608 53.5861 56.0517C53.5861 55.8416 53.4965 55.6409 53.3406 55.5001L47.5129 50.256Z" fill="#A0A0A0"/>
<path d="M53.0669 47.8275L52.0179 47.8012L47.684 46.5633C46.9745 46.3593 46.1929 46.4337 45.5346 46.7627L41.6876 48.6862C41.3697 48.8455 41.1724 49.164 41.1724 49.5186V49.655C41.1724 50.1682 41.5896 50.5861 42.1035 50.5861C42.2718 50.5861 42.4365 50.5406 42.5806 50.4544L45.1497 48.9138C45.582 48.6539 46.075 48.5171 46.5785 48.5171C47.2661 48.5171 47.9261 48.7704 48.4366 49.2304L54.2627 54.4745C54.3041 54.5116 54.3435 54.5496 54.3812 54.5897L65.9999 48.7805V41.0205L53.0669 47.8275Z" fill="#A0A0A0"/>
<path d="M46.4936 61.2061C46.3875 61.4428 46.244 61.662 46.0592 61.8469L45.5413 62.3648L46.0571 62.8197C46.1881 62.9359 46.3572 62.9999 46.5323 62.9999H46.6599C47.0566 62.9999 47.3792 62.6773 47.3792 62.2806C47.3792 62.0661 47.2846 61.8647 47.1206 61.728L46.4936 61.2061Z" fill="#A0A0A0"/>
<path d="M44.5371 59.5518C44.3337 59.5518 44.1343 59.6339 43.9902 59.7781L42.7779 60.9903C42.6338 61.1345 42.5516 61.3338 42.5516 61.5372C42.5516 61.9635 42.8985 62.3104 43.3248 62.3104C43.5282 62.3104 43.7276 62.2282 43.8717 62.0841L45.084 60.8718C45.2281 60.7277 45.3103 60.5283 45.3103 60.3249C45.3103 59.8986 44.9634 59.5518 44.5371 59.5518Z" fill="#A0A0A0"/>
<path d="M41.1723 56.187C41.1723 55.7607 40.8255 55.4138 40.3991 55.4138C40.1958 55.4138 39.9964 55.496 39.8523 55.6401L38.64 56.8524C38.4959 56.9965 38.4137 57.1959 38.4137 57.3993C38.4137 57.8256 38.7605 58.1724 39.1869 58.1724C39.3903 58.1724 39.5896 58.0903 39.7337 57.9461L40.946 56.7339C41.0902 56.5897 41.1723 56.3904 41.1723 56.187Z" fill="#A0A0A0"/>
<path d="M43.2413 58.2561C43.2413 57.8298 42.8944 57.4829 42.4681 57.4829C42.2647 57.4829 42.0654 57.5651 41.9212 57.7092L40.709 58.9215C40.5648 59.0656 40.4827 59.265 40.4827 59.4684C40.4827 59.8947 40.8295 60.2415 41.2558 60.2415C41.4592 60.2415 41.6586 60.1594 41.8027 60.0152L43.015 58.803C43.1591 58.6588 43.2413 58.4595 43.2413 58.2561Z" fill="#A0A0A0"/>
<path d="M39.1033 54.1179C39.1033 53.6916 38.7565 53.3447 38.3302 53.3447C38.1268 53.3447 37.9274 53.4269 37.7833 53.571L36.571 54.7833C36.4269 54.9274 36.3447 55.1268 36.3447 55.3302C36.3447 55.7565 36.6916 56.1033 37.1179 56.1033C37.3213 56.1033 37.5206 56.0212 37.6648 55.8771L38.877 54.6648C39.0212 54.5206 39.1033 54.3213 39.1033 54.1179Z" fill="#A0A0A0"/>
</g>
</svg>
