<svg width="89" height="89" viewBox="0 0 89 89" fill="none" xmlns="http://www.w3.org/2000/svg">
<path d="M41.2866 76.5709L41.589 73.5159C40.6127 73.4192 39.6318 73.2703 38.6723 73.0769L38.0645 76.0858C39.1221 76.3007 40.2074 76.4649 41.2866 76.5709Z" fill="white"/>
<path d="M79.3378 28.4028L85.0146 26.0526C83.0021 21.6513 80.2957 17.6324 77.0321 14.1384L72.6924 18.4782C75.3941 21.4027 77.6431 24.7492 79.3378 28.4028Z" fill="white"/>
<path d="M74.8623 11.9678C71.3684 8.70409 67.3511 5.99766 62.9484 3.98511L60.5967 9.66201C64.2517 11.3568 67.5967 13.6058 70.5226 16.3076L74.8623 11.9678Z" fill="white"/>
<path d="M60.114 2.80621C55.7083 1.15135 50.9787 0.168864 46.0433 0V6.14512C50.1482 6.30784 54.0841 7.12606 57.7622 8.48465L60.114 2.80621Z" fill="white"/>
<path d="M86.1939 28.8865L80.5156 31.2383C81.8742 34.9165 82.6924 38.8525 82.8551 42.9575H89.0001C88.8328 38.022 87.8488 33.2923 86.1939 28.8865Z" fill="white"/>
<path d="M24.0058 12.0493L20.934 6.72852C1.12676 19.0817 -5.7658 44.8089 5.2101 65.4088L10.5307 62.337C6.02063 53.7694 4.91844 43.9661 7.43906 34.5589C9.95814 25.1531 15.8161 17.215 24.0058 12.0493Z" fill="white"/>
<path d="M72.7109 70.5271L77.0552 74.873C78.9772 72.8129 80.7272 70.5424 82.2699 68.0694L76.9493 64.9976C75.6967 66.984 74.2737 68.8277 72.7109 70.5271Z" fill="white"/>
<path d="M54.4429 81.5629C45.0359 84.0821 35.2328 82.9799 26.6655 78.4712L23.5938 83.7919C35.242 89.9985 48.5267 90.4882 60.109 86.1637L57.7649 80.5052C56.6796 80.9028 55.5728 81.2605 54.4429 81.5629Z" fill="white"/>
<path d="M60.5957 79.3185L62.9429 84.9846C67.278 83.0181 71.3183 80.3501 74.8767 77.0326L70.5324 72.6882C67.6003 75.4039 64.2584 77.6375 60.5957 79.3185Z" fill="white"/>
<path d="M44.5088 76.7302C52.3715 76.7302 59.9441 73.8672 65.8327 68.6708L63.8003 66.3696C58.4735 71.0702 51.6224 73.66 44.5088 73.66V76.7302Z" fill="white"/>
<g>
<path d="M59 51.75C59.3452 51.75 59.625 51.4702 59.625 51.125C59.625 50.7798 59.3452 50.5 59 50.5C58.6548 50.5 58.375 50.7798 58.375 51.125C58.375 51.4702 58.6548 51.75 59 51.75Z" fill="#A0A0A0"/>
<path d="M54.625 55.5C54.9702 55.5 55.25 55.2202 55.25 54.875C55.25 54.5298 54.9702 54.25 54.625 54.25C54.2798 54.25 54 54.5298 54 54.875C54 55.2202 54.2798 55.5 54.625 55.5Z" fill="#A0A0A0"/>
<path d="M50.25 53C50.5952 53 50.875 52.7202 50.875 52.375C50.875 52.0298 50.5952 51.75 50.25 51.75C49.9048 51.75 49.625 52.0298 49.625 52.375C49.625 52.7202 49.9048 53 50.25 53Z" fill="#A0A0A0"/>
<path d="M61.5 48H47.75C47.405 48 47.125 48.28 47.125 48.625V57.375C47.125 57.72 47.405 58 47.75 58H61.5C61.845 58 62.125 57.72 62.125 57.375V48.625C62.125 48.28 61.845 48 61.5 48ZM59 53C58.6606 53 58.3462 52.9025 58.0719 52.7444L56.37 54.2025C56.4513 54.4119 56.5 54.6375 56.5 54.875C56.5 55.9088 55.6587 56.75 54.625 56.75C53.5912 56.75 52.75 55.9088 52.75 54.875C52.75 54.7613 52.7644 54.6506 52.7838 54.5425L51.4669 53.79C51.1381 54.0725 50.7162 54.25 50.25 54.25C49.2162 54.25 48.375 53.4088 48.375 52.375C48.375 51.3412 49.2162 50.5 50.25 50.5C51.2838 50.5 52.125 51.3412 52.125 52.375C52.125 52.4887 52.1106 52.5994 52.0912 52.7075L53.4081 53.46C53.7369 53.1775 54.1588 53 54.625 53C54.9644 53 55.2788 53.0975 55.5538 53.2556L57.255 51.7975C57.1737 51.5881 57.125 51.3625 57.125 51.125C57.125 50.0912 57.9663 49.25 59 49.25C60.0337 49.25 60.875 50.0912 60.875 51.125C60.875 52.1588 60.0337 53 59 53Z" fill="#A0A0A0"/>
<path d="M47.75 36.125H49V41.125H47.75V36.125Z" fill="#A0A0A0"/>
<path d="M55.25 32.375H56.5V41.125H55.25V32.375Z" fill="#A0A0A0"/>
<path d="M52.75 33.625H54V41.125H52.75V33.625Z" fill="#A0A0A0"/>
<path d="M42.4375 41.125C41.9206 41.125 41.5 41.5456 41.5 42.0625V47.375C41.5 48.7537 40.3787 49.875 39 49.875H34.225L34.6444 55.74L32.75 57.6338L30.8563 55.74L31.2744 49.8869C28.2775 50.0063 25.875 52.4744 25.875 55.5V61.125H27.75V53H29V61.125H36.5V54.9294C36.5 53.8713 37.2556 52.9656 38.2963 52.7769L40.2956 52.4137C42.08 52.0887 43.375 50.5375 43.375 48.7238V42.0625C43.375 41.5456 42.9544 41.125 42.4375 41.125Z" fill="#A0A0A0"/>
<path d="M32.75 38.625C34.6431 38.625 36.4494 37.8294 37.75 36.4456V30.5C37.75 29.7125 38.2394 29.0394 38.9294 28.7625C37.7919 26.4113 35.3981 24.875 32.75 24.875C28.9594 24.875 25.875 27.9594 25.875 31.75C25.875 35.5406 28.9594 38.625 32.75 38.625ZM32.75 32.375C31.3713 32.375 30.25 31.2537 30.25 29.875V27.375H32.125V26.125H33.375V27.4638C34.4506 27.7431 35.25 28.7131 35.25 29.875H34C34 29.1856 33.4394 28.625 32.75 28.625H31.5V29.875C31.5 30.5644 32.0606 31.125 32.75 31.125C34.1287 31.125 35.25 32.2463 35.25 33.625V36.125H33.375V37.375H32.125V36.0363C31.0494 35.7569 30.25 34.7869 30.25 33.625H31.5C31.5 34.3144 32.0606 34.875 32.75 34.875H34V33.625C34 32.9356 33.4394 32.375 32.75 32.375Z" fill="#A0A0A0"/>
<path d="M32.75 48.625C34.4759 48.625 35.875 47.2259 35.875 45.5C35.875 43.7741 34.4759 42.375 32.75 42.375C31.0241 42.375 29.625 43.7741 29.625 45.5C29.625 47.2259 31.0241 48.625 32.75 48.625Z" fill="#A0A0A0"/>
<path d="M32.1434 55.26L32.7497 55.8662L33.3559 55.26L32.9716 49.875H32.5278L32.1434 55.26Z" fill="#A0A0A0"/>
<path d="M50.25 34.875H51.5V41.125H50.25V34.875Z" fill="#A0A0A0"/>
<path d="M58.375 43.625C58.72 43.625 59 43.345 59 43V30.5C59 30.155 58.72 29.875 58.375 29.875H39.625C39.28 29.875 39 30.155 39 30.5V43C39 43.345 39.28 43.625 39.625 43.625H40.25V42.0625C40.25 40.8562 41.2313 39.875 42.4375 39.875C43.6438 39.875 44.625 40.8562 44.625 42.0625V43.625H58.375ZM49 33.625H51.5V32.375H54V31.125H57.75V42.375H46.5V34.875H49V33.625ZM45.25 31.125H46.5V32.375H45.25V31.125ZM42.75 31.125H44V32.375H42.75V31.125ZM40.25 31.125H41.5V32.375H40.25V31.125ZM40.25 33.625H45.25V34.875H40.25V33.625ZM40.25 37.375V36.125H45.25V37.375H40.25Z" fill="#A0A0A0"/>
</g>
</svg>
