<svg width="89" height="89" viewBox="0 0 89 89" fill="none" xmlns="http://www.w3.org/2000/svg">
<path d="M56.276 28.8968C57.4187 28.8968 58.345 27.9704 58.345 26.8278C58.345 25.6851 57.4187 24.7588 56.276 24.7588C55.1333 24.7588 54.207 25.6851 54.207 26.8278C54.207 27.9704 55.1333 28.8968 56.276 28.8968Z" fill="#A0A0A0"/>
<path d="M53.9449 29.3525C53.2628 28.7221 52.8277 27.8276 52.8277 26.8276C52.8277 24.9262 54.3746 23.3793 56.2759 23.3793C58.1773 23.3793 59.7242 24.9262 59.7242 26.8276C59.7242 27.8276 59.289 28.7221 58.607 29.3525C60.1359 29.9704 61.367 31.1808 62.0035 32.7325C62.7408 31.6352 63.1725 30.3152 63.1725 28.8966C63.1725 25.0938 60.0787 22 56.2759 22C52.4732 22 49.3794 25.0938 49.3794 28.8966C49.3794 30.3152 49.8111 31.6352 50.5484 32.7325C51.1849 31.1814 52.4159 29.9704 53.9449 29.3525V29.3525Z" fill="#A0A0A0"/>
<path d="M42.719 31.6363C42.6252 31.1218 42.259 30.699 41.7624 30.5335L41.1396 30.3259L36.4376 32.4156C35.9203 32.6453 35.5865 33.1591 35.5865 33.7246V34.2218L34.4548 34.5991C33.8941 34.786 33.5176 35.308 33.5176 35.8991C33.5176 36.4218 33.8079 36.8915 34.2755 37.1253L34.8969 37.4363V40.1405L33.5176 42.2095V44.4364L36.6783 47.0702L37.6555 44.626V42.6902H36.2762V41.3108H40.7872C41.4424 41.3108 42.0114 40.8446 42.1396 40.2019L42.5624 38.086L43.781 37.477L42.719 31.6363Z" fill="#A0A0A0"/>
<path d="M32.6081 41.0858L33.517 39.7223V38.2837C32.6626 37.7941 32.1377 36.8941 32.1377 35.8989C32.1377 34.7133 32.8936 33.6644 34.0184 33.2899L34.2543 33.2113C34.4219 32.3113 35.0219 31.5347 35.877 31.1547L41.0681 28.8478L42.1991 29.2243C43.1736 29.5492 43.8929 30.3788 44.0763 31.3892L44.186 31.9906L44.4019 31.8471C44.9267 31.4961 45.2412 30.9085 45.2412 30.2761C45.2412 27.2547 42.7998 24.7926 39.786 24.7588C38.915 24.9257 28.6895 26.9981 28.6895 32.3451C28.6895 37.9685 31.4619 40.343 32.6081 41.0858Z" fill="#A0A0A0"/>
<path d="M57.6555 52.3449C61.8383 52.3449 65.2418 48.9414 65.2418 44.7586C65.2418 40.5758 61.8383 37.1724 57.6555 37.1724C53.4728 37.1724 50.0693 40.5758 50.0693 44.7586C50.0693 46.529 50.6907 48.2283 51.8135 49.5863H54.2073V51.4987C55.2707 52.0435 56.4493 52.3449 57.6555 52.3449ZM57.6555 45.4483C56.1342 45.4483 54.8969 44.211 54.8969 42.6896V39.931H56.9659V38.5517H58.3452V40.0289C59.5314 40.3372 60.4142 41.4083 60.4142 42.6896H59.0349C59.0349 41.929 58.4162 41.3103 57.6555 41.3103H56.2762V42.6896C56.2762 43.4503 56.8949 44.069 57.6555 44.069C59.1769 44.069 60.4142 45.3062 60.4142 46.8276V49.5863H58.3452V50.9656H56.9659V49.4883C55.7797 49.18 54.8969 48.109 54.8969 46.8276H56.2762C56.2762 47.5883 56.8949 48.2069 57.6555 48.2069H59.0349V46.8276C59.0349 46.0669 58.4162 45.4483 57.6555 45.4483Z" fill="#A0A0A0"/>
<path d="M56.275 30.2759C54.0329 30.2759 52.1198 31.8007 51.5957 33.9483C52.8267 35.089 54.4681 35.7932 56.275 35.7932C58.0819 35.7932 59.7233 35.089 60.9543 33.9483C60.4302 31.8007 58.5171 30.2759 56.275 30.2759Z" fill="#A0A0A0"/>
<path d="M43.5059 51.0017C42.7962 48.5975 41.0431 46.6368 38.7279 45.6596L37.2535 49.3451L32.6555 45.5127L30.8369 45.9672C31.7769 46.4893 32.5059 47.3686 32.8066 48.452L35.4211 57.8624H41.5079L42.0411 57.3293C41.0679 56.7197 40.4142 55.6452 40.4142 54.4141C40.4142 52.6348 41.7735 51.1831 43.5059 51.0017Z" fill="#A0A0A0"/>
<path d="M51.4482 50.9658H52.8276V57.8624H51.4482V50.9658Z" fill="#A0A0A0"/>
<path d="M53.663 36.7428C53.1202 36.5614 52.6037 36.3241 52.1168 36.0393C49.1443 37.9324 47.3105 41.2345 47.3105 44.7587C47.3105 46.738 47.8705 48.6387 48.9223 50.2932C49.3671 50.1415 49.8023 49.9643 50.2271 49.7629C49.234 48.2911 48.6899 46.5559 48.6899 44.7587C48.6899 41.2504 50.7202 38.2145 53.663 36.7428V36.7428Z" fill="#A0A0A0"/>
<path d="M61.6063 35.2178C61.1781 35.5798 60.7153 35.9012 60.2194 36.1716C63.9167 37.2771 66.6208 40.7061 66.6208 44.7585C66.6208 49.702 62.5988 53.7241 57.6553 53.7241C56.4663 53.7241 55.2939 53.4876 54.207 53.0345V54.5021C55.3119 54.8938 56.4677 55.1034 57.6553 55.1034C63.3594 55.1034 68.0001 50.4627 68.0001 44.7585C68.0001 40.5888 65.445 36.8095 61.6063 35.2178Z" fill="#A0A0A0"/>
<path d="M31.4779 48.8212C31.1517 47.6474 30.0731 46.8274 28.8545 46.8274H28.851C28.3221 47.3281 28 48.0329 28 48.8019C28 48.8936 28.0048 48.9853 28.0138 49.0757L28.6234 55.1033H33.2228L31.4779 48.8212Z" fill="#A0A0A0"/>
<path d="M43.8619 52.345C42.7212 52.345 41.793 53.2733 41.793 54.414C41.793 55.5547 42.7212 56.483 43.8619 56.483H44.9157H47.655C48.1833 56.483 48.6509 56.7265 48.9675 57.1016C49.3399 57.2168 49.7075 57.3471 50.0688 57.4934V51.3381C48.4364 51.9975 46.6757 52.345 44.9157 52.345H43.8619Z" fill="#A0A0A0"/>
<path d="M48.6893 59.931H47.6548H44.5514V59.2413H47.6548C48.0355 59.2413 48.3445 58.9323 48.3445 58.5516C48.3445 58.171 48.0355 57.862 47.6548 57.862H44.9155H43.8617H43.6003C43.51 57.862 43.421 57.8985 43.3562 57.9627L42.0783 59.2413H34.3721L33.6059 56.4827H29.9941L31.0217 59.8227C31.23 60.4992 31.6693 61.0889 32.259 61.482C32.7679 61.8206 33.359 61.9999 33.97 61.9999H48.6893C49.07 61.9999 49.379 61.691 49.379 61.3103V60.6206C49.379 60.2399 49.07 59.931 48.6893 59.931Z" fill="#A0A0A0"/>
<path d="M47.7134 76.5706L47.411 73.5157C48.3873 73.419 49.3682 73.2701 50.3277 73.0767L50.9355 76.0855C49.8779 76.3004 48.7926 76.4647 47.7134 76.5706Z" fill="white"/>
<path d="M9.66222 28.4029L3.98546 26.0526C5.99796 21.6514 8.70432 17.6324 11.9679 14.1384L16.3076 18.4782C13.6059 21.4027 11.357 24.7493 9.66222 28.4029Z" fill="white"/>
<path d="M14.1377 11.9683C17.6316 8.70459 21.6489 5.99815 26.0516 3.9856L28.4033 9.66251C24.7483 11.3573 21.4033 13.6063 18.4774 16.3081L14.1377 11.9683Z" fill="white"/>
<path d="M28.886 2.80622C33.2917 1.15135 38.0214 0.168865 42.9567 0V6.14513C38.8518 6.30786 34.9159 7.12608 31.2378 8.48467L28.886 2.80622Z" fill="white"/>
<path d="M2.80609 28.8865L8.48438 31.2383C7.12582 34.9165 6.30762 38.8526 6.1449 42.9575H-6.19888e-05C0.167263 38.022 1.15126 33.2923 2.80609 28.8865Z" fill="white"/>
<path d="M64.9943 12.0493L68.066 6.72852C87.8732 19.0817 94.7658 44.809 83.7899 65.4089L78.4693 62.3371C82.9794 53.7696 84.0816 43.9662 81.561 34.5589C79.0419 25.1532 73.184 17.215 64.9943 12.0493Z" fill="white"/>
<path d="M16.2891 70.5271L11.9448 74.8731C10.0228 72.8129 8.27283 70.5425 6.73007 68.0694L12.0507 64.9976C13.3033 66.984 14.7263 68.8277 16.2891 70.5271Z" fill="white"/>
<path d="M34.5571 81.5627C43.9641 84.0819 53.7672 82.9796 62.3345 78.4709L65.4062 83.7917C53.758 89.9983 40.4733 90.488 28.8911 86.1635L31.2352 80.505C32.3205 80.9026 33.4273 81.2603 34.5571 81.5627Z" fill="white"/>
<path d="M28.4062 79.3185L26.0591 84.9846C21.724 83.0181 17.6837 80.3501 14.1253 77.0327L18.4696 72.6882C21.4016 75.4039 24.7435 77.6375 28.4062 79.3185Z" fill="white"/>
<path d="M44.4912 76.7307C36.6285 76.7307 29.0559 73.8677 23.1673 68.6713L25.1997 66.3701C30.5265 71.0707 37.3776 73.6605 44.4912 73.6605V76.7307Z" fill="white"/>
</svg>
