<svg width="89" height="89" viewBox="0 0 89 89" fill="none" xmlns="http://www.w3.org/2000/svg">
<path d="M41.2866 76.5709L41.589 73.5159C40.6127 73.4192 39.6318 73.2703 38.6723 73.0769L38.0645 76.0858C39.1221 76.3007 40.2074 76.4649 41.2866 76.5709Z" fill="white"/>
<path d="M79.3378 28.4028L85.0146 26.0526C83.0021 21.6513 80.2957 17.6324 77.0321 14.1384L72.6924 18.4782C75.3941 21.4027 77.6431 24.7492 79.3378 28.4028Z" fill="white"/>
<path d="M74.8623 11.9678C71.3684 8.70409 67.3511 5.99766 62.9484 3.98511L60.5967 9.66201C64.2517 11.3568 67.5967 13.6058 70.5226 16.3076L74.8623 11.9678Z" fill="white"/>
<path d="M60.114 2.80621C55.7083 1.15135 50.9787 0.168864 46.0433 0V6.14512C50.1482 6.30784 54.0841 7.12606 57.7622 8.48465L60.114 2.80621Z" fill="white"/>
<path d="M86.1939 28.8865L80.5156 31.2383C81.8742 34.9165 82.6924 38.8525 82.8551 42.9575H89.0001C88.8328 38.022 87.8488 33.2923 86.1939 28.8865Z" fill="white"/>
<path d="M24.0058 12.0493L20.934 6.72852C1.12676 19.0817 -5.7658 44.8089 5.2101 65.4088L10.5307 62.337C6.02063 53.7694 4.91844 43.9661 7.43906 34.5589C9.95814 25.1531 15.8161 17.215 24.0058 12.0493Z" fill="white"/>
<path d="M72.7109 70.5271L77.0552 74.873C78.9772 72.8129 80.7272 70.5424 82.2699 68.0694L76.9493 64.9976C75.6967 66.984 74.2737 68.8277 72.7109 70.5271Z" fill="white"/>
<path d="M54.4429 81.5629C45.0359 84.0821 35.2328 82.9799 26.6655 78.4712L23.5938 83.7919C35.242 89.9985 48.5267 90.4882 60.109 86.1637L57.7649 80.5052C56.6796 80.9028 55.5728 81.2605 54.4429 81.5629Z" fill="white"/>
<path d="M60.5957 79.3185L62.9429 84.9846C67.278 83.0181 71.3183 80.3501 74.8767 77.0326L70.5324 72.6882C67.6003 75.4039 64.2584 77.6375 60.5957 79.3185Z" fill="white"/>
<path d="M44.5088 76.7302C52.3715 76.7302 59.9441 73.8672 65.8327 68.6708L63.8003 66.3696C58.4735 71.0702 51.6224 73.66 44.5088 73.66V76.7302Z" fill="white"/>
<g>
<path d="M32.8966 32.6552C32.8966 33.0361 32.5878 33.3449 32.207 33.3449C31.8261 33.3449 31.5173 33.0361 31.5173 32.6552C31.5173 32.2744 31.8261 31.9656 32.207 31.9656C32.5878 31.9656 32.8966 32.2744 32.8966 32.6552Z" fill="#A0A0A0"/>
<path d="M41.5986 44.4723C41.5605 44.5579 41.5262 44.6441 41.4922 44.7333L41.3763 45.0387L39.793 45.5664V47.331L41.3763 47.8586L41.4922 48.1641C41.5262 48.2533 41.5612 48.3395 41.5986 48.425L41.7323 48.7234L40.9867 50.2145L42.2344 51.4622L43.7255 50.7166L44.0238 50.8503C44.1094 50.8883 44.1956 50.9227 44.2848 50.9567L44.5902 51.0725L45.1179 52.6559H46.8825L47.4102 51.0725L47.7156 50.9567C47.8048 50.9227 47.891 50.8877 47.9766 50.8503L48.2749 50.7166L49.766 51.4622L51.0137 50.2145L50.2681 48.7234L50.4018 48.425C50.4399 48.3395 50.4742 48.2533 50.5082 48.1641L50.6241 47.8586L52.2068 47.331V45.5664L50.6234 45.0387L50.5075 44.7333C50.4735 44.6441 50.4385 44.5579 50.4011 44.4723L50.2674 44.174L51.013 42.6829L49.7654 41.4352L48.2742 42.1808L47.9759 42.0471C47.8904 42.009 47.8041 41.9747 47.7149 41.9407L47.4095 41.8248L46.8818 40.2415H45.1173L44.5896 41.8248L44.2841 41.9407C44.1949 41.9747 44.1087 42.0097 44.0232 42.0471L43.7248 42.1808L42.2337 41.4352L40.9861 42.6829L41.7316 44.174L41.5986 44.4723ZM45.9999 43.0001C47.9011 43.0001 49.4481 44.5471 49.4481 46.4484C49.4481 48.3496 47.9011 49.8966 45.9999 49.8966C44.0986 49.8966 42.5516 48.3496 42.5516 46.4484C42.5516 44.5471 44.0986 43.0001 45.9999 43.0001Z" fill="#A0A0A0"/>
<path d="M48.069 46.4484C48.069 47.591 47.1426 48.5173 46 48.5173C44.8574 48.5173 43.931 47.591 43.931 46.4484C43.931 45.3058 44.8574 44.3794 46 44.3794C47.1426 44.3794 48.069 45.3058 48.069 46.4484Z" fill="#A0A0A0"/>
<path d="M60.4827 32.6552C60.4827 33.0361 60.1739 33.3449 59.793 33.3449C59.4122 33.3449 59.1034 33.0361 59.1034 32.6552C59.1034 32.2744 59.4122 31.9656 59.793 31.9656C60.1739 31.9656 60.4827 32.2744 60.4827 32.6552Z" fill="#A0A0A0"/>
<path d="M26 55.4137H36.0593L39.1732 52.2998L40.1484 53.275L38.0097 55.4137H53.9903L51.8516 53.275L52.8268 52.2998L55.9407 55.4137H66V29.2068H26V55.4137ZM64.6207 49.8964H57.7241V48.5171H64.6207V49.8964ZM64.6207 47.1378H57.7241V45.7585H64.6207V47.1378ZM64.6207 44.3792H57.7241V42.9999H64.6207V44.3792ZM64.6207 41.6206H57.7241V40.2413H64.6207V41.6206ZM64.6207 38.862H57.7241V37.4826H64.6207V38.862ZM57.7241 32.6551C57.7241 31.5145 58.6525 30.5861 59.7931 30.5861C60.9337 30.5861 61.8621 31.5145 61.8621 32.6551C61.8621 33.7956 60.9337 34.724 59.7931 34.724C59.4745 34.724 59.1765 34.6462 58.9068 34.5166L52.8275 40.5959L51.8523 39.6206L57.9316 33.5414C57.8019 33.2716 57.7241 32.9736 57.7241 32.6551ZM43.5593 40.5558L44.1233 38.862H47.876L48.4401 40.5558L50.0366 39.757L52.6905 42.4109L51.8917 44.0074L53.5862 44.5722V48.3249L51.8924 48.8889L52.6911 50.4854L50.0372 53.1393L48.4407 52.3405L47.8767 54.0344H44.124L43.5599 52.3405L41.9634 53.1393L39.3095 50.4854L40.1083 48.8889L38.4138 48.3249V44.5722L40.1076 44.0081L39.3089 42.4116L41.9628 39.7577L43.5593 40.5558ZM32.2069 30.5861C33.3475 30.5861 34.2759 31.5145 34.2759 32.6551C34.2759 32.9736 34.1981 33.2716 34.0684 33.5414L40.1477 39.6206L39.1725 40.5959L33.0932 34.5166C32.8235 34.6456 32.5248 34.724 32.2069 34.724C31.0663 34.724 30.1379 33.7956 30.1379 32.6551C30.1379 31.5145 31.0663 30.5861 32.2069 30.5861ZM27.3793 37.4826H34.2759V38.862H27.3793V37.4826ZM27.3793 40.2413H34.2759V41.6206H27.3793V40.2413ZM27.3793 42.9999H34.2759V44.3792H27.3793V42.9999ZM27.3793 45.7585H34.2759V47.1378H27.3793V45.7585ZM27.3793 48.5171H34.2759V49.8964H27.3793V48.5171Z" fill="#A0A0A0"/>
<path d="M26 23.6897V27.8276H66V23.6897H26ZM28.7586 26.4483H27.3793V25.069H28.7586V26.4483ZM31.5172 26.4483H30.1379V25.069H31.5172V26.4483ZM34.2759 26.4483H32.8966V25.069H34.2759V26.4483Z" fill="#A0A0A0"/>
<path d="M57.9316 59.3551C57.802 59.6248 57.7242 59.9235 57.7242 60.2414C57.7242 61.382 58.6526 62.3104 59.7932 62.3104C60.9337 62.3104 61.8621 61.382 61.8621 60.2414C61.8621 59.1008 60.9337 58.1724 59.7932 58.1724C59.4746 58.1724 59.1766 58.2502 58.9068 58.3799L55.9408 55.4138H53.9904L57.9316 59.3551ZM59.7932 59.5518C60.1737 59.5518 60.4828 59.8609 60.4828 60.2414C60.4828 60.6219 60.1737 60.9311 59.7932 60.9311C59.4126 60.9311 59.1035 60.6219 59.1035 60.2414C59.1035 59.8609 59.4126 59.5518 59.7932 59.5518Z" fill="#A0A0A0"/>
<path d="M33.0932 58.3799C32.8235 58.2509 32.5248 58.1724 32.2069 58.1724C31.0663 58.1724 30.1379 59.1008 30.1379 60.2414C30.1379 61.382 31.0663 62.3104 32.2069 62.3104C33.3475 62.3104 34.2759 61.382 34.2759 60.2414C34.2759 59.9228 34.1981 59.6248 34.0684 59.3551L38.0097 55.4138H36.0593L33.0932 58.3799ZM32.2069 60.9311C31.8264 60.9311 31.5172 60.6219 31.5172 60.2414C31.5172 59.8609 31.8264 59.5518 32.2069 59.5518C32.5874 59.5518 32.8966 59.8609 32.8966 60.2414C32.8966 60.6219 32.5874 60.9311 32.2069 60.9311Z" fill="#A0A0A0"/>
</g>
</svg>
