<svg width="89" height="89" viewBox="0 0 89 89" fill="none" xmlns="http://www.w3.org/2000/svg">
<path d="M47.7134 76.5706L47.411 73.5157C48.3873 73.419 49.3682 73.2701 50.3277 73.0767L50.9355 76.0855C49.8779 76.3004 48.7926 76.4647 47.7134 76.5706Z" fill="white"/>
<path d="M9.66222 28.4029L3.98546 26.0526C5.99796 21.6514 8.70432 17.6324 11.9679 14.1384L16.3076 18.4782C13.6059 21.4027 11.357 24.7493 9.66222 28.4029Z" fill="white"/>
<path d="M14.1377 11.9683C17.6316 8.70459 21.6489 5.99815 26.0516 3.9856L28.4033 9.66251C24.7483 11.3573 21.4033 13.6063 18.4774 16.3081L14.1377 11.9683Z" fill="white"/>
<path d="M28.886 2.80622C33.2917 1.15135 38.0214 0.168865 42.9567 0V6.14513C38.8518 6.30786 34.9159 7.12608 31.2378 8.48467L28.886 2.80622Z" fill="white"/>
<path d="M2.80609 28.8865L8.48438 31.2383C7.12582 34.9165 6.30762 38.8526 6.1449 42.9575H-6.19888e-05C0.167263 38.022 1.15126 33.2923 2.80609 28.8865Z" fill="white"/>
<path d="M64.9943 12.0493L68.066 6.72852C87.8732 19.0817 94.7658 44.809 83.7899 65.4089L78.4693 62.3371C82.9794 53.7696 84.0816 43.9662 81.561 34.5589C79.0419 25.1532 73.184 17.215 64.9943 12.0493Z" fill="white"/>
<path d="M16.2891 70.5271L11.9448 74.8731C10.0228 72.8129 8.27283 70.5425 6.73007 68.0694L12.0507 64.9976C13.3033 66.984 14.7263 68.8277 16.2891 70.5271Z" fill="white"/>
<path d="M34.5571 81.5627C43.9641 84.0819 53.7672 82.9796 62.3345 78.4709L65.4062 83.7917C53.758 89.9983 40.4733 90.488 28.8911 86.1635L31.2352 80.505C32.3205 80.9026 33.4273 81.2603 34.5571 81.5627Z" fill="white"/>
<path d="M28.4062 79.3185L26.0591 84.9846C21.724 83.0181 17.6837 80.3501 14.1253 77.0327L18.4696 72.6882C21.4016 75.4039 24.7435 77.6375 28.4062 79.3185Z" fill="white"/>
<path d="M44.4912 76.7307C36.6285 76.7307 29.0559 73.8677 23.1673 68.6713L25.1997 66.3701C30.5265 71.0707 37.3776 73.6605 44.4912 73.6605V76.7307Z" fill="white"/>
<g clip-path="url(#clip0)">
<path d="M49.4484 57.8621H52.207V59.2414H49.4484V57.8621Z" fill="#A0A0A0"/>
<path d="M45.3103 52.3447H48.0689V53.724H45.3103V52.3447Z" fill="#A0A0A0"/>
<path d="M49.4484 55.1035H52.207V56.4828H49.4484V55.1035Z" fill="#A0A0A0"/>
<path d="M49.4484 52.3447H52.207V53.724H49.4484V52.3447Z" fill="#A0A0A0"/>
<path d="M41.1724 57.8621H48.0689V59.2414H41.1724V57.8621Z" fill="#A0A0A0"/>
<path d="M41.1724 52.3447H43.931V53.724H41.1724V52.3447Z" fill="#A0A0A0"/>
<path d="M45.3103 55.1035H48.0689V56.4828H45.3103V55.1035Z" fill="#A0A0A0"/>
<path d="M41.1724 55.1035H43.931V56.4828H41.1724V55.1035Z" fill="#A0A0A0"/>
<path d="M52.2069 35.1035C52.2069 35.4843 51.8982 35.7931 51.5173 35.7931C51.1364 35.7931 50.8276 35.4843 50.8276 35.1035C50.8276 34.7226 51.1364 34.4138 51.5173 34.4138C51.8982 34.4138 52.2069 34.7226 52.2069 35.1035Z" fill="#A0A0A0"/>
<path d="M46 46.8276C45.6194 46.8276 45.3103 47.1368 45.3103 47.5173V48.2069H50.8275V47.5173C50.8275 47.1368 50.5184 46.8276 50.1379 46.8276H46Z" fill="#A0A0A0"/>
<path d="M44.6206 41.3103C44.6206 41.6911 44.3118 41.9999 43.931 41.9999C43.5501 41.9999 43.2413 41.6911 43.2413 41.3103C43.2413 40.9294 43.5501 40.6206 43.931 40.6206C44.3118 40.6206 44.6206 40.9294 44.6206 41.3103Z" fill="#A0A0A0"/>
<path d="M50.8276 22V26.1379H54.9656L50.8276 22Z" fill="#A0A0A0"/>
<path d="M48.7587 43.3794V45.4483H50.138C51.2785 45.4483 52.2069 46.3767 52.2069 47.5173V48.2069H52.6875L54.2352 47.1751C54.4581 47.0263 54.7063 46.9283 54.9656 46.8751V42.6897H49.4483C49.0678 42.6897 48.7587 42.9995 48.7587 43.3794Z" fill="#A0A0A0"/>
<path d="M26 30.9656H28.7586V35.1035H26V30.9656Z" fill="#A0A0A0"/>
<path d="M43.931 48.2069V47.5172C43.931 46.3767 44.8594 45.4483 46 45.4483H47.3793V43.3793C47.3793 42.2388 48.3077 41.3103 49.4483 41.3103H54.9655V37.1724H61.8621C62.2426 37.1724 62.5517 37.4815 62.5517 37.8621V40.6207C62.5517 41.0012 62.2426 41.3103 61.8621 41.3103H54.9655V42.6897H61.8621C63.0026 42.6897 63.931 41.7612 63.931 40.6207V37.8621C63.931 36.7215 63.0026 35.7931 61.8621 35.7931H54.9655V27.5172H49.4483V22H30.1379V50.9655H32.8966V50.2759C32.8966 49.1353 33.825 48.2069 34.9655 48.2069H43.931ZM37.0345 25.4483H39.7931V35.1034H37.0345V25.4483ZM31.5172 28.2069H34.2759V35.1034H31.5172V28.2069ZM31.5172 44.7586C31.5172 43.6181 32.4457 42.6897 33.5862 42.6897C33.8007 42.6897 34.0041 42.7317 34.1988 42.7924L36.0034 40.387C35.7842 40.0587 35.6552 39.6657 35.6552 39.2414C35.6552 38.1008 36.5836 37.1724 37.7241 37.1724C38.8516 37.1724 39.7682 38.0799 39.7891 39.2033L42.3076 40.0428C42.6868 39.5586 43.2697 39.2414 43.9304 39.2414C44.322 39.2414 44.684 39.3565 44.9965 39.5461L49.5766 35.7992C49.4988 35.5813 49.4483 35.3489 49.4483 35.1034C49.4483 33.9629 50.3767 33.0345 51.5172 33.0345C52.6578 33.0345 53.5862 33.9629 53.5862 35.1034C53.5862 36.244 52.6578 37.1724 51.5172 37.1724C51.1256 37.1724 50.7636 37.0572 50.4511 36.8677L45.871 40.6146C45.9495 40.8332 46 41.0649 46 41.3103C46 42.4509 45.0716 43.3793 43.931 43.3793C42.8036 43.3793 41.887 42.4718 41.8661 41.3484L39.3476 40.5089C38.9684 40.9931 38.3855 41.3103 37.7248 41.3103C37.5103 41.3103 37.3069 41.2682 37.1123 41.2076L35.3077 43.613C35.5262 43.9413 35.6552 44.3353 35.6552 44.7586C35.6552 45.8992 34.7268 46.8276 33.5862 46.8276C32.4457 46.8276 31.5172 45.8999 31.5172 44.7586Z" fill="#A0A0A0"/>
<path d="M34.2759 44.7587C34.2759 45.1396 33.9671 45.4484 33.5863 45.4484C33.2054 45.4484 32.8966 45.1396 32.8966 44.7587C32.8966 44.3779 33.2054 44.0691 33.5863 44.0691C33.9671 44.0691 34.2759 44.3779 34.2759 44.7587Z" fill="#A0A0A0"/>
<path d="M38.4137 39.2414C38.4137 39.6223 38.1049 39.9311 37.7241 39.9311C37.3432 39.9311 37.0344 39.6223 37.0344 39.2414C37.0344 38.8606 37.3432 38.5518 37.7241 38.5518C38.1049 38.5518 38.4137 38.8606 38.4137 39.2414Z" fill="#A0A0A0"/>
<path d="M56.3447 52.3447H57.724V53.724H56.3447V52.3447Z" fill="#A0A0A0"/>
<path d="M59.1034 57.8621H60.4827V59.2414H59.1034V57.8621Z" fill="#A0A0A0"/>
<path d="M59.1034 52.3447H60.4827V53.724H59.1034V52.3447Z" fill="#A0A0A0"/>
<path d="M59.1034 55.1035H60.4827V56.4828H59.1034V55.1035Z" fill="#A0A0A0"/>
<path d="M65.3105 48.2068H55.3829C55.2465 48.2068 55.1138 48.2469 55 48.3226L53.1048 49.5861H34.9657C34.5851 49.5861 34.276 49.8952 34.276 50.2758V61.3102C34.276 61.6908 34.5851 61.9999 34.9657 61.9999H65.3105C65.691 61.9999 66.0001 61.6908 66.0001 61.3102V48.8964C66.0001 48.5166 65.691 48.2068 65.3105 48.2068ZM53.5863 60.6206H35.6553V50.9654H53.5863V60.6206ZM64.6208 60.6206H54.9657V50.9654H64.6208V60.6206Z" fill="#A0A0A0"/>
<path d="M56.3447 57.8621H57.724V59.2414H56.3447V57.8621Z" fill="#A0A0A0"/>
<path d="M56.3447 55.1035H57.724V56.4828H56.3447V55.1035Z" fill="#A0A0A0"/>
<path d="M61.8621 57.8621H63.2414V59.2414H61.8621V57.8621Z" fill="#A0A0A0"/>
<path d="M37.0344 52.3447H39.793V53.724H37.0344V52.3447Z" fill="#A0A0A0"/>
<path d="M37.0344 57.8621H39.793V59.2414H37.0344V57.8621Z" fill="#A0A0A0"/>
<path d="M37.0344 55.1035H39.793V56.4828H37.0344V55.1035Z" fill="#A0A0A0"/>
<path d="M61.8621 52.3447H63.2414V53.724H61.8621V52.3447Z" fill="#A0A0A0"/>
<path d="M61.8621 55.1035H63.2414V56.4828H61.8621V55.1035Z" fill="#A0A0A0"/>
</g>
<defs>
<clipPath id="clip0">
<rect width="40" height="40" fill="white" transform="translate(26 22)"/>
</clipPath>
</defs>
</svg>
