<svg width="89" height="89" viewBox="0 0 89 89" fill="none" xmlns="http://www.w3.org/2000/svg">

<path d="M47.7134 76.5706L47.411 73.5157C48.3873 73.419 49.3682 73.2701 50.3277 73.0767L50.9355 76.0855C49.8779 76.3004 48.7926 76.4647 47.7134 76.5706Z" fill="white"/>
<path d="M9.66222 28.4029L3.98546 26.0526C5.99796 21.6514 8.70432 17.6324 11.9679 14.1384L16.3076 18.4782C13.6059 21.4027 11.357 24.7493 9.66222 28.4029Z" fill="white"/>
<path d="M14.1377 11.9683C17.6316 8.70459 21.6489 5.99815 26.0516 3.9856L28.4033 9.66251C24.7483 11.3573 21.4033 13.6063 18.4774 16.3081L14.1377 11.9683Z" fill="white"/>
<path d="M28.886 2.80622C33.2917 1.15135 38.0214 0.168865 42.9567 0V6.14513C38.8518 6.30786 34.9159 7.12608 31.2378 8.48467L28.886 2.80622Z" fill="white"/>
<path d="M2.80609 28.8865L8.48438 31.2383C7.12582 34.9165 6.30762 38.8526 6.1449 42.9575H-6.19888e-05C0.167263 38.022 1.15126 33.2923 2.80609 28.8865Z" fill="white"/>
<path d="M64.9943 12.0493L68.066 6.72852C87.8732 19.0817 94.7658 44.809 83.7899 65.4089L78.4693 62.3371C82.9794 53.7696 84.0816 43.9662 81.561 34.5589C79.0419 25.1532 73.184 17.215 64.9943 12.0493Z" fill="white"/>
<path d="M16.2891 70.5271L11.9448 74.8731C10.0228 72.8129 8.27283 70.5425 6.73007 68.0694L12.0507 64.9976C13.3033 66.984 14.7263 68.8277 16.2891 70.5271Z" fill="white"/>
<path d="M34.5571 81.5627C43.9641 84.0819 53.7672 82.9796 62.3345 78.4709L65.4062 83.7917C53.758 89.9983 40.4733 90.488 28.8911 86.1635L31.2352 80.505C32.3205 80.9026 33.4273 81.2603 34.5571 81.5627Z" fill="white"/>
<path d="M28.4062 79.3185L26.0591 84.9846C21.724 83.0181 17.6837 80.3501 14.1253 77.0327L18.4696 72.6882C21.4016 75.4039 24.7435 77.6375 28.4062 79.3185Z" fill="white"/>
<path d="M44.4912 76.7307C36.6285 76.7307 29.0559 73.8677 23.1673 68.6713L25.1997 66.3701C30.5265 71.0707 37.3776 73.6605 44.4912 73.6605V76.7307Z" fill="white"/>
<g>
<path d="M56.1181 61.9554C55.1949 61.9554 54.8274 60.9195 54.4729 59.9168C54.3696 59.6258 54.2143 59.1948 54.0842 58.9555V66.7011L56.1181 65.1757L58.152 66.7011V58.9548C58.0219 59.1948 57.8667 59.6258 57.7634 59.9162C57.4088 60.9189 57.0414 61.9554 56.1181 61.9554Z" fill="#A0A0A0"/>
<path d="M57.4748 53.8198C57.4748 54.5686 56.8677 55.1757 56.1189 55.1757C55.3701 55.1757 54.7629 54.5686 54.7629 53.8198C54.7629 53.071 55.3701 52.4639 56.1189 52.4639C56.8677 52.4639 57.4748 53.071 57.4748 53.8198Z" fill="#A0A0A0"/>
<path d="M59.8781 55.3764C60.1317 54.765 60.8871 54.4972 61.7617 54.188C62.0348 54.091 62.4353 53.9487 62.6992 53.8199C62.4353 53.6911 62.0348 53.5488 61.7617 53.4518C60.8871 53.1426 60.1317 52.8748 59.8781 52.2633C59.6172 51.6327 59.9853 50.8558 60.3743 50.0335C60.4862 49.7968 60.6471 49.4565 60.7431 49.194C60.4802 49.2909 60.1406 49.4518 59.9039 49.5637C59.0816 49.9534 58.306 50.3208 57.674 50.0599C57.0626 49.8064 56.7948 49.0503 56.4849 48.1757C56.3879 47.9032 56.2463 47.5033 56.1175 47.2395C55.9887 47.5033 55.8464 47.9032 55.75 48.1763C55.4402 49.0509 55.1724 49.8057 54.5616 50.0599C53.9323 50.3215 53.1547 49.9534 52.3311 49.5637C52.0944 49.4518 51.7547 49.2909 51.4922 49.1949C51.5886 49.4571 51.7494 49.7968 51.8613 50.0335C52.251 50.8558 52.6191 51.6327 52.3576 52.2633C52.104 52.8748 51.3485 53.1426 50.4739 53.4518C50.2015 53.5488 49.8009 53.6911 49.5371 53.8199C49.8009 53.9487 50.2015 54.091 50.4746 54.188C51.3492 54.4972 52.1046 54.765 52.3582 55.3764C52.6191 56.007 52.251 56.784 51.862 57.6063C51.7501 57.843 51.5892 58.1833 51.4932 58.4458C51.7561 58.3488 52.0957 58.1879 52.3324 58.076C52.9624 57.7778 53.5655 57.4918 54.0972 57.4918C54.259 57.4918 54.4143 57.5189 54.5623 57.5798C55.1737 57.8334 55.4415 58.5895 55.7514 59.4641C55.8484 59.7365 55.99 60.1364 56.1188 60.4003C56.2476 60.1364 56.3899 59.7365 56.4863 59.4634C56.7961 58.5888 57.0639 57.834 57.6747 57.5798C58.3047 57.3196 59.0823 57.6864 59.9052 58.076C60.1419 58.1879 60.4816 58.3488 60.7441 58.4448C60.6477 58.1826 60.4869 57.843 60.375 57.6063C59.9853 56.784 59.6172 56.007 59.8781 55.3764ZM56.1181 56.5317C54.6225 56.5317 53.4063 55.3155 53.4063 53.8199C53.4063 52.3242 54.6225 51.108 56.1181 51.108C57.6138 51.108 58.83 52.3242 58.83 53.8199C58.83 55.3155 57.6138 56.5317 56.1181 56.5317Z" fill="#A0A0A0"/>
<path d="M43.8064 49.8459L40.5252 48.9074V46.9523L40.8622 46.7563C41.5001 46.3849 41.8811 45.7305 41.8811 45.0065V43.7909C41.8811 42.666 41.0681 41.715 40.0309 41.6249C39.4493 41.574 38.8975 41.761 38.4731 42.151C38.054 42.5353 37.8133 43.0818 37.8133 43.6506V45.0065C37.8133 45.7305 38.1943 46.3849 38.8322 46.7563L39.1692 46.9523V48.9074L35.888 49.8459C35.2521 50.0273 34.7578 50.509 34.542 51.1082H45.1524C44.9366 50.5083 44.4423 50.0267 43.8064 49.8459Z" fill="#A0A0A0"/>
<path d="M61.1497 51.7296C61.3477 51.8673 61.882 52.0557 62.2144 52.1735C63.2171 52.5291 64.2536 52.8965 64.2536 53.8198H65.6095V38.9045H31.7112V53.8198H47.9824C47.9824 52.8965 49.0189 52.5291 50.0216 52.1735C50.3642 52.0524 50.9193 51.8557 51.1024 51.7174C51.0726 51.5356 50.8015 50.9629 50.636 50.613C50.1911 49.6726 49.7309 48.7013 50.3649 48.0667C50.9995 47.4321 51.972 47.8922 52.9119 48.3371C53.2455 48.495 53.7818 48.7486 54.0278 48.7874C54.1655 48.5887 54.3545 48.0551 54.4727 47.7227C54.8272 46.7207 55.1947 45.6842 56.118 45.6842C57.0412 45.6842 57.4087 46.72 57.7632 47.7227C57.8847 48.066 58.082 48.6218 58.2204 48.8049C58.4015 48.7751 58.9742 48.504 59.3234 48.3385C60.2639 47.8936 61.2358 47.4334 61.8704 48.068C62.505 48.7026 62.0449 49.6739 61.6 50.6144C61.4421 50.9474 61.1878 51.4843 61.1497 51.7296ZM46.6264 52.4639H33.0671V51.7859C33.0671 50.2876 34.0731 48.9532 35.5145 48.5411L37.8129 47.8849V47.7039C36.9681 47.0673 36.4569 46.0659 36.4569 45.0062V43.6503C36.4569 42.7032 36.8575 41.7919 37.5567 41.1506C38.2548 40.5114 39.1999 40.1906 40.1477 40.2734C41.88 40.424 43.2366 41.9696 43.2366 43.7907V45.0062C43.2366 46.0659 42.7255 47.0673 41.8807 47.7039V47.8849L44.1791 48.5411C45.6204 48.9532 46.6264 50.2876 46.6264 51.7859V52.4639ZM64.2536 44.3283H62.8976V42.9723H64.2536V44.3283ZM61.5417 44.3283H47.9824V42.9723H61.5417V44.3283ZM47.9824 41.6164V40.2605H64.2536V41.6164H47.9824Z" fill="#A0A0A0"/>
<path d="M66.2881 36.1927H59.7587L50.6605 28.3941C50.497 27.4354 49.6657 26.7012 48.661 26.7012C47.6563 26.7012 46.8251 27.4354 46.6615 28.3941L37.5633 36.1927H31.0339C29.9127 36.1927 29 37.1054 29 38.2266V54.4978C29 55.619 29.9127 56.5317 31.0339 56.5317H50.8637C50.9693 56.291 51.065 56.0517 51.0869 55.91C50.8889 55.7723 50.3546 55.5839 50.0222 55.4661C49.7614 55.3737 49.4989 55.2794 49.2523 55.1757H31.7119C30.964 55.1757 30.3559 54.5676 30.3559 53.8198V38.9046C30.3559 38.1567 30.964 37.5486 31.7119 37.5486H65.6102C66.358 37.5486 66.9661 38.1567 66.9661 38.9046V53.8198C66.9661 54.5676 66.358 55.1757 65.6102 55.1757H62.985C62.7384 55.2794 62.4759 55.373 62.215 55.4661C61.8724 55.5872 61.3173 55.7839 61.1342 55.9222C61.1517 56.0298 61.2564 56.2768 61.3716 56.5317H66.2881C67.4094 56.5317 68.322 55.619 68.322 54.4978V38.2266C68.322 37.1054 67.4094 36.1927 66.2881 36.1927ZM48.661 28.0571C49.0344 28.0571 49.339 28.361 49.339 28.7351C49.339 29.1091 49.0344 29.413 48.661 29.413C48.2876 29.413 47.983 29.1091 47.983 28.7351C47.983 28.361 48.2876 28.0571 48.661 28.0571ZM46.9939 29.8944C47.362 30.4217 47.9708 30.769 48.661 30.769C49.3512 30.769 49.96 30.4217 50.3281 29.8944L57.6758 36.1927H39.6462L46.9939 29.8944Z" fill="#A0A0A0"/>
</g>
<defs>
<clipPath id="clip0">
<rect width="40" height="40" fill="white" transform="translate(29 21.7012)"/>
</clipPath>
</defs>
</svg>
