<svg width="89" height="89" viewBox="0 0 89 89" fill="none" xmlns="http://www.w3.org/2000/svg">
<path d="M47.7134 76.5706L47.411 73.5157C48.3873 73.419 49.3682 73.2701 50.3277 73.0767L50.9355 76.0855C49.8779 76.3004 48.7926 76.4647 47.7134 76.5706Z" fill="white"/>
<path d="M9.66222 28.4029L3.98546 26.0526C5.99796 21.6514 8.70432 17.6324 11.9679 14.1384L16.3076 18.4782C13.6059 21.4027 11.357 24.7493 9.66222 28.4029Z" fill="white"/>
<path d="M14.1377 11.9683C17.6316 8.70459 21.6489 5.99815 26.0516 3.9856L28.4033 9.66251C24.7483 11.3573 21.4033 13.6063 18.4774 16.3081L14.1377 11.9683Z" fill="white"/>
<path d="M28.886 2.80622C33.2917 1.15135 38.0214 0.168865 42.9567 0V6.14513C38.8518 6.30786 34.9159 7.12608 31.2378 8.48467L28.886 2.80622Z" fill="white"/>
<path d="M2.80609 28.8865L8.48438 31.2383C7.12582 34.9165 6.30762 38.8526 6.1449 42.9575H-6.19888e-05C0.167263 38.022 1.15126 33.2923 2.80609 28.8865Z" fill="white"/>
<path d="M64.9943 12.0493L68.066 6.72852C87.8732 19.0817 94.7658 44.809 83.7899 65.4089L78.4693 62.3371C82.9794 53.7696 84.0816 43.9662 81.561 34.5589C79.0419 25.1532 73.184 17.215 64.9943 12.0493Z" fill="white"/>
<path d="M16.2891 70.5271L11.9448 74.8731C10.0228 72.8129 8.27283 70.5425 6.73007 68.0694L12.0507 64.9976C13.3033 66.984 14.7263 68.8277 16.2891 70.5271Z" fill="white"/>
<path d="M34.5571 81.5627C43.9641 84.0819 53.7672 82.9796 62.3345 78.4709L65.4062 83.7917C53.758 89.9983 40.4733 90.488 28.8911 86.1635L31.2352 80.505C32.3205 80.9026 33.4273 81.2603 34.5571 81.5627Z" fill="white"/>
<path d="M28.4062 79.3185L26.0591 84.9846C21.724 83.0181 17.6837 80.3501 14.1253 77.0327L18.4696 72.6882C21.4016 75.4039 24.7435 77.6375 28.4062 79.3185Z" fill="white"/>
<path d="M44.4912 76.7307C36.6285 76.7307 29.0559 73.8677 23.1673 68.6713L25.1997 66.3701C30.5265 71.0707 37.3776 73.6605 44.4912 73.6605V76.7307Z" fill="white"/>
<g>
<path d="M46.3334 23V28.5844C53.5789 29.288 59.2565 35.2479 59.2565 42.4741C59.2565 44.5166 58.7912 46.4529 57.9771 48.2036L62.9582 51C64.2534 48.42 65 45.5329 65 42.4741C65 32.1681 56.7479 23.7204 46.3334 23Z" fill="#A0A0A0"/>
<path d="M30.7436 42.4741C30.7436 35.2479 36.4211 29.2866 43.6667 28.5844V23C33.2521 23.7204 25 32.1681 25 42.4741C25 45.5329 25.7467 48.42 27.0418 51L32.023 48.2036C31.2088 46.4529 30.7436 44.5166 30.7436 42.4741Z" fill="#A0A0A0"/>
<path d="M33 43C33 49.6165 38.3835 55 45 55C51.6165 55 57 49.6165 57 43C57 36.3835 51.6165 31 45 31C38.3835 31 33 36.3835 33 43ZM45 34C49.9635 34 54 38.0365 54 43C54 47.9635 49.9635 52 45 52C40.0365 52 36 47.9635 36 43C36 38.0365 40.0365 34 45 34Z" fill="#A0A0A0"/>
<path d="M45 57.122C40.3939 57.122 36.3193 54.7002 33.8091 51L29 53.9552C32.4795 59.41 38.3531 63 45 63C51.6469 63 57.5205 59.41 61 53.9552L56.1909 51C53.6807 54.7002 49.6061 57.122 45 57.122Z" fill="#A0A0A0"/>
<path d="M45 48.3334C47.9455 48.3334 50.3333 45.9456 50.3333 43.0001C50.3333 40.0546 47.9455 37.6667 45 37.6667C42.0544 37.6667 39.6666 40.0546 39.6666 43.0001C39.6666 45.9456 42.0544 48.3334 45 48.3334Z" fill="#A0A0A0"/>
</g>
</svg>
