<svg width="89" height="89" viewBox="0 0 89 89" fill="none" xmlns="http://www.w3.org/2000/svg">
<path d="M47.7134 76.5706L47.411 73.5157C48.3873 73.419 49.3682 73.2701 50.3277 73.0767L50.9355 76.0855C49.8779 76.3004 48.7926 76.4647 47.7134 76.5706Z" fill="white"/>
<path d="M9.66222 28.4029L3.98546 26.0526C5.99796 21.6514 8.70432 17.6324 11.9679 14.1384L16.3076 18.4782C13.6059 21.4027 11.357 24.7493 9.66222 28.4029Z" fill="white"/>
<path d="M14.1377 11.9683C17.6316 8.70459 21.6489 5.99815 26.0516 3.9856L28.4033 9.66251C24.7483 11.3573 21.4033 13.6063 18.4774 16.3081L14.1377 11.9683Z" fill="white"/>
<path d="M28.886 2.80622C33.2917 1.15135 38.0214 0.168865 42.9567 0V6.14513C38.8518 6.30786 34.9159 7.12608 31.2378 8.48467L28.886 2.80622Z" fill="white"/>
<path d="M2.80609 28.8865L8.48438 31.2383C7.12582 34.9165 6.30762 38.8526 6.1449 42.9575H-6.19888e-05C0.167263 38.022 1.15126 33.2923 2.80609 28.8865Z" fill="white"/>
<path d="M64.9943 12.0493L68.066 6.72852C87.8732 19.0817 94.7658 44.809 83.7899 65.4089L78.4693 62.3371C82.9794 53.7696 84.0816 43.9662 81.561 34.5589C79.0419 25.1532 73.184 17.215 64.9943 12.0493Z" fill="white"/>
<path d="M16.2891 70.5271L11.9448 74.8731C10.0228 72.8129 8.27283 70.5425 6.73007 68.0694L12.0507 64.9976C13.3033 66.984 14.7263 68.8277 16.2891 70.5271Z" fill="white"/>
<path d="M34.5571 81.5627C43.9641 84.0819 53.7672 82.9796 62.3345 78.4709L65.4062 83.7917C53.758 89.9983 40.4733 90.488 28.8911 86.1635L31.2352 80.505C32.3205 80.9026 33.4273 81.2603 34.5571 81.5627Z" fill="white"/>
<path d="M28.4062 79.3185L26.0591 84.9846C21.724 83.0181 17.6837 80.3501 14.1253 77.0327L18.4696 72.6882C21.4016 75.4039 24.7435 77.6375 28.4062 79.3185Z" fill="white"/>
<path d="M44.4912 76.7307C36.6285 76.7307 29.0559 73.8677 23.1673 68.6713L25.1997 66.3701C30.5265 71.0707 37.3776 73.6605 44.4912 73.6605V76.7307Z" fill="white"/>
<g clip-path="url(#clip0)">
<path d="M26 25.7585H34.2759V32.6551H26V25.7585Z" fill="#A0A0A0"/>
<path d="M34.2759 23.6897C34.2759 23.3091 33.9667 23 33.5862 23H26.6897C26.3091 23 26 23.3091 26 23.6897V24.3793H34.2759V23.6897Z" fill="#A0A0A0"/>
<path d="M65.3104 23H55.6552C55.2747 23 54.9656 23.3091 54.9656 23.6897V28.5172H66.0001V23.6897C66.0001 23.3098 65.6909 23 65.3104 23Z" fill="#A0A0A0"/>
<path d="M54.9656 30.5861C54.9656 30.9667 55.2747 31.2758 55.6552 31.2758H65.3104C65.6909 31.2758 66.0001 30.9667 66.0001 30.5861V29.8965H54.9656V30.5861Z" fill="#A0A0A0"/>
<path d="M26 62.3103C26 62.6908 26.3091 62.9999 26.6897 62.9999H37.7241C38.1047 62.9999 38.4138 62.6908 38.4138 62.3103V61.6206H26V62.3103Z" fill="#A0A0A0"/>
<path d="M57.724 63H65.9999V58.8621H57.724V63ZM63.2412 60.2414H64.6206V61.6207H63.2412V60.2414ZM59.1033 60.2414H61.8619V61.6207H59.1033V60.2414Z" fill="#A0A0A0"/>
<path d="M62.5517 45.0691H57.6608C57.5773 44.573 57.4069 44.1083 57.1635 43.6898H61.1724V34.0346H63.2414V32.6553H57.7241V34.0346H59.7931V42.3104H55.84C55.3558 41.9939 54.8096 41.7642 54.2132 41.6733C54.2503 41.4312 54.2759 41.1844 54.2759 40.9311C54.2759 38.2648 52.1146 36.1035 49.4483 36.1035C47.5117 36.1035 45.8468 37.2465 45.0773 38.8918C44.3422 38.4389 43.4788 38.1725 42.5517 38.1725C40.3656 38.1725 38.5249 39.6276 37.9302 41.6208H30.8276V38.1725H33.5862C33.9667 38.1725 34.2759 37.8634 34.2759 37.4829V34.0346H26V37.4829C26 37.8634 26.3091 38.1725 26.6897 38.1725H29.4483V43.0001H35.3316C34.976 43.3975 34.7035 43.8662 34.5213 44.3794H30.8276V53.3449H28.069C27.6884 53.3449 27.3793 53.6541 27.3793 54.0346V60.2415H37.0345V54.0346C37.0345 53.6541 36.7254 53.3449 36.3448 53.3449H32.2069V45.7587H34.2759C34.2759 48.0442 36.1283 49.8967 38.4138 49.8967H53.5862C55.636 49.8967 57.3332 48.4049 57.6622 46.4484H61.1724V53.3449H57.7241V57.4829H66V53.3449H62.5517V45.0691ZM28.7586 35.4139H31.5172V36.7932H28.7586V35.4139ZM60.4828 56.1035H59.1034V54.7242H60.4828V56.1035ZM64.6207 56.1035H61.8621V54.7242H64.6207V56.1035Z" fill="#A0A0A0"/>
</g>
<defs>
<clipPath id="clip0">
<rect width="40" height="40" fill="white" transform="translate(26 23)"/>
</clipPath>
</defs>
</svg>
