<svg width="174" height="155" viewBox="0 0 174 155" fill="none" xmlns="http://www.w3.org/2000/svg">
<circle cx="87.146" cy="73.3374" r="43" transform="rotate(-3.69809 87.146 73.3374)" stroke="#0085D0" stroke-width="2"/>
<g filter="url(#filter0_d)">
<path d="M110.975 38.4613C116.9 41.9772 121.831 46.9468 125.301 52.9001C128.77 58.8533 130.663 65.5933 130.801 72.4824C130.939 79.3714 129.317 86.1817 126.088 92.2689C122.86 98.3561 118.131 103.519 112.351 107.269" stroke="#FF7A00" stroke-width="7"/>
</g>
<g filter="url(#filter1_d)">
<path d="M62.4424 108.476C56.5498 104.905 51.6658 99.8892 48.2525 93.9036C44.8392 87.918 43.0095 81.1606 42.9365 74.2705C42.8634 67.3805 44.5495 60.5858 47.8351 54.5292C51.1207 48.4726 55.8973 43.3544 61.7129 39.6588" stroke="#FF7A00" stroke-width="7"/>
</g>
<path d="M110.439 58.3752C110.439 57.512 109.74 56.8127 108.876 56.8127H106.532C107.396 56.8127 108.095 56.1135 108.095 55.2502C108.095 54.387 107.396 53.6877 106.532 53.6877H108.876C109.74 53.6877 110.439 52.9885 110.439 52.1252C110.439 51.262 109.74 50.5627 108.876 50.5627H96.3762C95.5129 50.5627 94.8137 51.262 94.8137 52.1252C94.8137 52.9885 95.5129 53.6877 96.3762 53.6877H98.72C97.8567 53.6877 97.1575 54.387 97.1575 55.2502C97.1575 56.1135 97.8567 56.8127 98.72 56.8127H96.3762C95.5129 56.8127 94.8137 57.512 94.8137 58.3752C94.8137 59.2385 95.5129 59.9377 96.3762 59.9377H98.72C97.8567 59.9377 97.1575 60.637 97.1575 61.5002C97.1575 62.3635 97.8567 63.0627 98.72 63.0627H96.3762C95.5129 63.0627 94.8137 63.762 94.8137 64.6252C94.8137 65.4885 95.5129 66.1877 96.3762 66.1877H108.876C109.74 66.1877 110.439 65.4885 110.439 64.6252C110.439 63.762 109.74 63.0627 108.876 63.0627H106.532C107.396 63.0627 108.095 62.3635 108.095 61.5002C108.095 60.637 107.396 59.9377 106.532 59.9377H108.876C109.74 59.9377 110.439 59.2385 110.439 58.3752Z" fill="white"/>
<path d="M90.9075 61.5002C90.9075 60.2081 91.959 59.1565 93.2512 59.1565H93.3622C93.2965 58.9049 93.2512 58.6463 93.2512 58.3752C93.2512 58.1042 93.2965 57.8456 93.3622 57.594H93.2512C91.0973 57.594 89.345 59.3463 89.345 61.5002V77.9065H90.9075V61.5002Z" fill="white"/>
<path d="M86.22 61.5002V77.9065H87.7825V61.5002C87.7825 59.3463 86.0301 57.594 83.8762 57.594H83.095V59.1565H83.8762C85.1684 59.1565 86.22 60.2081 86.22 61.5002Z" fill="white"/>
<path d="M83.0946 74.0002V77.9065H84.6571V74.0002C84.6571 71.8463 82.9048 70.094 80.7509 70.094H79.9071C79.9438 70.3502 79.9696 70.6096 79.9696 70.8752V71.6565H80.7509C82.043 71.6565 83.0946 72.7081 83.0946 74.0002Z" fill="white"/>
<path d="M96.3762 71.6565C94.2223 71.6565 92.47 73.4088 92.47 75.5627V77.9065H94.0325V75.5627C94.0325 74.2706 95.084 73.219 96.3762 73.219H97.2364C97.1848 72.9667 97.1575 72.7057 97.1575 72.4377C97.1575 72.1698 97.1848 71.9088 97.2364 71.6565H96.3762Z" fill="white"/>
<path d="M83.5775 79.469L85.9213 84.1565H108.393L106.049 79.469H83.5775ZM98.7197 82.594H97.1572V81.0315H98.7197V82.594ZM101.845 82.594H100.282V81.0315H101.845V82.594ZM104.97 82.594H103.407V81.0315H104.97V82.594Z" fill="white"/>
<path d="M68.2512 85.7188V96.6563H80.7512V80.4344L78.109 85.7188H68.2512ZM71.3762 95.0938H69.8137V93.5313H71.3762V95.0938ZM71.3762 91.9688H69.8137V90.4063H71.3762V91.9688ZM71.3762 88.8438H69.8137V87.2813H71.3762V88.8438Z" fill="white"/>
<path d="M82.3137 80.4344V96.6563H105.751V85.7188H84.9559L82.3137 80.4344ZM101.064 95.0938H99.5012V93.5313H101.064V95.0938ZM104.189 95.0938H102.626V93.5313H104.189V95.0938ZM96.3762 90.4063H104.189V91.9688H96.3762V90.4063ZM96.3762 93.5313H97.9387V95.0938H96.3762V93.5313Z" fill="white"/>
<path d="M79.4869 79.469H67.9525L65.6088 84.1565H77.1431L79.4869 79.469Z" fill="white"/>
<path d="M101.064 74.7815C102.358 74.7815 103.407 73.7322 103.407 72.4377C103.407 71.1433 102.358 70.094 101.064 70.094C99.7693 70.094 98.72 71.1433 98.72 72.4377C98.72 73.7322 99.7693 74.7815 101.064 74.7815Z" fill="white"/>
<path d="M70.595 57.594H72.1575V60.719H70.595V57.594Z" fill="white"/>
<path d="M65.1262 63.844H80.7512C81.1825 63.844 81.5325 63.494 81.5325 63.0627V52.1252C81.5325 51.694 81.1825 51.344 80.7512 51.344H65.1262C64.695 51.344 64.345 51.694 64.345 52.1252V63.0627C64.345 63.494 64.695 63.844 65.1262 63.844ZM65.9075 57.594H69.0325V56.0315H72.1575V54.469H75.2825V52.9065H79.97V62.2815H65.9075V57.594Z" fill="white"/>
<path d="M73.72 56.0315H75.2825V60.719H73.72V56.0315Z" fill="white"/>
<path d="M67.47 59.1565H69.0325V60.719H67.47V59.1565Z" fill="white"/>
<path d="M76.845 54.469H78.4075V60.719H76.845V54.469Z" fill="white"/>
<path d="M78.4075 74.7815V70.8752C78.4075 68.7213 76.6551 66.969 74.5012 66.969H68.2512C66.0973 66.969 64.345 68.7213 64.345 70.8752C64.345 73.0292 66.0973 74.7815 68.2512 74.7815H78.4075ZM73.72 70.094H75.2825V71.6565H73.72V70.094ZM70.595 70.094H72.1575V71.6565H70.595V70.094ZM67.47 70.094H69.0325V71.6565H67.47V70.094Z" fill="white"/>
<defs>
<filter id="filter0_d" x="70.1886" y="0.451172" width="103.121" height="152.754" filterUnits="userSpaceOnUse" color-interpolation-filters="sRGB">
<feFlood flood-opacity="0" result="BackgroundImageFix"/>
<feColorMatrix in="SourceAlpha" type="matrix" values="0 0 0 0 0 0 0 0 0 0 0 0 0 0 0 0 0 0 127 0"/>
<feOffset dy="4"/>
<feGaussianBlur stdDeviation="19.5"/>
<feColorMatrix type="matrix" values="0 0 0 0 1 0 0 0 0 0.42 0 0 0 0 0 0 0 0 1 0"/>
<feBlend mode="normal" in2="BackgroundImageFix" result="effect1_dropShadow"/>
<feBlend mode="normal" in="SourceGraphic" in2="effect1_dropShadow" result="shape"/>
</filter>
<filter id="filter1_d" x="0.434204" y="1.70483" width="102.822" height="152.765" filterUnits="userSpaceOnUse" color-interpolation-filters="sRGB">
<feFlood flood-opacity="0" result="BackgroundImageFix"/>
<feColorMatrix in="SourceAlpha" type="matrix" values="0 0 0 0 0 0 0 0 0 0 0 0 0 0 0 0 0 0 127 0"/>
<feOffset dy="4"/>
<feGaussianBlur stdDeviation="19.5"/>
<feColorMatrix type="matrix" values="0 0 0 0 1 0 0 0 0 0.42 0 0 0 0 0 0 0 0 1 0"/>
<feBlend mode="normal" in2="BackgroundImageFix" result="effect1_dropShadow"/>
<feBlend mode="normal" in="SourceGraphic" in2="effect1_dropShadow" result="shape"/>
</filter>
</defs>
</svg>
