<svg width="154" height="135" viewBox="0 0 154 135" fill="none" xmlns="http://www.w3.org/2000/svg">
<circle cx="77.144" cy="66.9751" r="43" transform="rotate(-3.69809 77.144 66.9751)" stroke="#0085D0" stroke-width="2"/>
<g filter="url(#filter0_d)">
<path d="M100.973 32.099C106.898 35.6149 111.829 40.5845 115.299 46.5378C118.768 52.491 120.661 59.231 120.799 66.1201C120.937 73.0091 119.315 79.8194 116.086 85.9066C112.858 91.9938 108.129 97.1566 102.349 100.907" stroke="#FF7A00" stroke-width="7"/>
</g>
<g filter="url(#filter1_d)">
<path d="M52.4404 102.114C46.5478 98.5427 41.6638 93.5269 38.2505 87.5413C34.8373 81.5557 33.0075 74.7982 32.9345 67.9082C32.8615 61.0182 34.5475 54.2235 37.8332 48.1669C41.1188 42.1103 45.8953 36.9921 51.7109 33.2965" stroke="#FF7A00" stroke-width="7"/>
</g>
<path d="M93.4461 77.894L94.4586 76.2081L92.0063 73.7565L90.3196 74.769L89.3665 74.376L88.8891 72.4651H87.9368V75.6526C90.5821 76.0338 92.6243 78.3096 92.6243 81.0588C92.6243 84.0745 90.1704 86.5276 87.1555 86.5276C84.1407 86.5276 81.6868 84.0745 81.6868 81.0588C81.6868 80.7971 81.7165 80.537 81.7547 80.2776H78.5618V82.7924L80.4774 83.2706L80.8649 84.2221L79.8524 85.9096L82.3047 88.3612L83.9915 87.3487L84.9446 87.7417L85.4219 89.6526H88.8891L89.3665 87.7417L90.3196 87.3487L92.0063 88.3612L94.4586 85.9096L93.4461 84.2221L93.8094 83.3299L94.2266 83.1721L95.7493 82.7924V79.3252L93.8336 78.8471L93.4461 77.894Z" fill="white"/>
<path d="M64.4993 75.5901H69.1868V78.7151H64.4993V75.5901Z" fill="white"/>
<path d="M64.4993 70.9026H69.1868V74.0276H64.4993V70.9026Z" fill="white"/>
<path d="M70.7493 70.9026H86.3743V74.0276H70.7493V70.9026Z" fill="white"/>
<path d="M87.1555 83.4025C85.8633 83.4025 84.8118 82.351 84.8118 81.0588C84.8118 80.7838 84.868 80.5229 84.9555 80.2775H83.3391C83.2852 80.5369 83.2493 80.7979 83.2493 81.0588C83.2493 83.2127 85.0016 84.965 87.1555 84.965C89.3094 84.965 91.0618 83.2127 91.0618 81.0588C91.0618 79.1729 89.7172 77.5947 87.9368 77.2314V78.8588C88.8438 79.1822 89.4993 80.0416 89.4993 81.0588C89.4993 82.351 88.4477 83.4025 87.1555 83.4025Z" fill="white"/>
<path d="M87.1555 81.8401C87.587 81.8401 87.9368 81.4903 87.9368 81.0588C87.9368 80.6274 87.587 80.2776 87.1555 80.2776C86.724 80.2776 86.3743 80.6274 86.3743 81.0588C86.3743 81.4903 86.724 81.8401 87.1555 81.8401Z" fill="white"/>
<path d="M70.7493 75.5901H86.3743V78.7151H70.7493V75.5901Z" fill="white"/>
<path d="M77.7805 59.9651H82.468V64.6526H77.7805V59.9651Z" fill="white"/>
<path d="M84.0305 64.6526H99.6555V59.9651H84.0305V64.6526ZM96.5305 61.5276H98.093V63.0901H96.5305V61.5276ZM93.4055 61.5276H94.968V63.0901H93.4055V61.5276ZM90.2805 61.5276H91.843V63.0901H90.2805V61.5276Z" fill="white"/>
<path d="M73.8743 81.8401H75.4368V83.4026H73.8743V81.8401Z" fill="white"/>
<path d="M70.7493 81.8401H72.3118V83.4026H70.7493V81.8401Z" fill="white"/>
<path d="M54.343 79.4962V65.4337C54.343 64.1416 55.3946 63.09 56.6868 63.09H66.843V66.6978L75.6211 62.3087L66.843 57.9197V61.5275H56.6868C54.5329 61.5275 52.7805 63.2798 52.7805 65.4337V79.4962C52.7805 81.6501 54.5329 83.4025 56.6868 83.4025H69.1868V81.84H56.6868C55.3946 81.84 54.343 80.7884 54.343 79.4962Z" fill="white"/>
<path d="M65.2805 44.3401H80.9055V47.4651H65.2805V44.3401Z" fill="white"/>
<path d="M59.0305 44.3401H63.718V47.4651H59.0305V44.3401Z" fill="white"/>
<path d="M65.2805 49.0276H80.9055V52.1526H65.2805V49.0276Z" fill="white"/>
<path d="M59.0305 49.0276H63.718V52.1526H59.0305V49.0276Z" fill="white"/>
<path d="M84.0305 47.4651H85.593V49.0276H84.0305V47.4651Z" fill="white"/>
<path d="M94.968 49.8088V52.1526H91.843L95.7493 57.3612L99.6555 52.1526H96.5305V49.8088C96.5305 48.5167 95.479 47.4651 94.1868 47.4651H87.1555V49.0276H94.1868C94.618 49.0276 94.968 49.3784 94.968 49.8088Z" fill="white"/>
<defs>
<filter id="filter0_d" x="70.1868" y="0.0888672" width="83.1205" height="132.754" filterUnits="userSpaceOnUse" color-interpolation-filters="sRGB">
<feFlood flood-opacity="0" result="BackgroundImageFix"/>
<feColorMatrix in="SourceAlpha" type="matrix" values="0 0 0 0 0 0 0 0 0 0 0 0 0 0 0 0 0 0 127 0"/>
<feOffset/>
<feGaussianBlur stdDeviation="14.5"/>
<feColorMatrix type="matrix" values="0 0 0 0 1 0 0 0 0 0.48 0 0 0 0 0 0 0 0 1 0"/>
<feBlend mode="normal" in2="BackgroundImageFix" result="effect1_dropShadow"/>
<feBlend mode="normal" in="SourceGraphic" in2="effect1_dropShadow" result="shape"/>
</filter>
<filter id="filter1_d" x="0.432129" y="1.34253" width="82.8223" height="132.765" filterUnits="userSpaceOnUse" color-interpolation-filters="sRGB">
<feFlood flood-opacity="0" result="BackgroundImageFix"/>
<feColorMatrix in="SourceAlpha" type="matrix" values="0 0 0 0 0 0 0 0 0 0 0 0 0 0 0 0 0 0 127 0"/>
<feOffset/>
<feGaussianBlur stdDeviation="14.5"/>
<feColorMatrix type="matrix" values="0 0 0 0 1 0 0 0 0 0.48 0 0 0 0 0 0 0 0 1 0"/>
<feBlend mode="normal" in2="BackgroundImageFix" result="effect1_dropShadow"/>
<feBlend mode="normal" in="SourceGraphic" in2="effect1_dropShadow" result="shape"/>
</filter>
</defs>
</svg>
