<svg width="174" height="155" viewBox="0 0 174 155" fill="none" xmlns="http://www.w3.org/2000/svg">
<circle cx="87.146" cy="73.3374" r="43" transform="rotate(-3.69809 87.146 73.3374)" stroke="#0085D0" stroke-width="2"/>
<g filter="url(#filter0_d)">
<path d="M110.975 38.4613C116.9 41.9772 121.831 46.9468 125.301 52.9001C128.77 58.8533 130.663 65.5933 130.801 72.4824C130.939 79.3714 129.317 86.1817 126.088 92.2689C122.86 98.3561 118.131 103.519 112.351 107.269" stroke="#FF7A00" stroke-width="7"/>
</g>
<g filter="url(#filter1_d)">
<path d="M62.4424 108.476C56.5498 104.905 51.6658 99.8892 48.2525 93.9036C44.8392 87.918 43.0095 81.1606 42.9365 74.2705C42.8634 67.3805 44.5495 60.5858 47.8351 54.5292C51.1207 48.4726 55.8973 43.3544 61.7129 39.6588" stroke="#FF7A00" stroke-width="7"/>
</g>
<path d="M104.97 84.719C102.663 84.719 100.648 85.9791 99.5652 87.844H87.0011C97.3394 87.844 105.751 79.4323 105.751 69.094C105.751 58.7557 97.3394 50.344 87.0011 50.344C76.6628 50.344 68.2511 58.7557 68.2511 69.094V69.8752H67.5753L69.8136 72.5612L72.0519 69.8752H71.3761V69.094C71.3761 60.4784 78.3855 53.469 87.0011 53.469C95.6167 53.469 102.626 60.4784 102.626 69.094C102.626 77.7096 95.6167 84.719 87.0011 84.719H79.9698V87.844V92.5315H98.9253C99.6222 95.2229 102.064 97.219 104.97 97.219C108.416 97.219 111.22 94.4151 111.22 90.969C111.22 87.5229 108.416 84.719 104.97 84.719ZM104.189 94.4174L102.074 92.3026L103.178 91.1979L104.189 92.2081L107.543 88.8541L108.647 89.9588L104.189 94.4174Z" fill="white"/>
<path d="M74.5012 78.469H65.1262C64.6958 78.469 64.345 78.819 64.345 79.2502V94.8752C64.345 95.3065 64.6958 95.6565 65.1262 95.6565H74.5012C74.9317 95.6565 75.2825 95.3065 75.2825 94.8752V79.2502C75.2825 78.819 74.9317 78.469 74.5012 78.469ZM67.47 94.094H65.9075V92.5315H67.47V94.094ZM70.595 94.094H69.0325V92.5315H70.595V94.094ZM73.72 94.094H72.1575V92.5315H73.72V94.094ZM73.72 90.969H65.9075V89.4065H73.72V90.969ZM73.72 87.844H65.9075V86.2815H73.72V87.844ZM73.72 84.719H65.9075V83.1565H73.72V84.719ZM73.72 81.594H65.9075V80.0315H73.72V81.594Z" fill="white"/>
<path d="M87.7825 73.0002C89.9364 73.0002 91.6887 71.2479 91.6887 69.094C91.6887 66.9401 89.9364 65.1877 87.7825 65.1877C85.6286 65.1877 83.8762 66.9401 83.8762 69.094C83.8762 71.2479 85.6286 73.0002 87.7825 73.0002ZM87.7825 66.7502C89.0747 66.7502 90.1262 67.8018 90.1262 69.094C90.1262 70.3862 89.0747 71.4377 87.7825 71.4377C86.4903 71.4377 85.4387 70.3862 85.4387 69.094C85.4387 67.8018 86.4903 66.7502 87.7825 66.7502Z" fill="white"/>
<path d="M87.7825 69.8752C88.2139 69.8752 88.5637 69.5255 88.5637 69.094C88.5637 68.6625 88.2139 68.3127 87.7825 68.3127C87.351 68.3127 87.0012 68.6625 87.0012 69.094C87.0012 69.5255 87.351 69.8752 87.7825 69.8752Z" fill="white"/>
<path d="M79.1887 67.3604V70.8276L81.0997 71.3049L81.4926 72.2581L80.4801 73.9456L82.9317 76.3979L84.6176 75.3854L85.5098 75.7479L85.6684 76.1659L86.0489 77.6877H89.5161L89.9942 75.7721L90.9473 75.3846L92.6333 76.3971L95.0848 73.9448L94.0723 72.2573L94.4364 71.3682L94.8536 71.2073L96.3762 70.8276V67.3604L94.4653 66.8831L94.0731 65.9284L95.0856 64.2424L92.634 61.7909L90.9481 62.8034L89.9934 62.4112L89.5161 60.5002H86.0489L85.5715 62.4112L84.6168 62.8034L82.9309 61.7909L80.4793 64.2424L81.4918 65.9284L81.0997 66.8831L79.1887 67.3604ZM87.7825 63.6252C90.7981 63.6252 93.2512 66.0784 93.2512 69.094C93.2512 72.1096 90.7981 74.5627 87.7825 74.5627C84.7668 74.5627 82.3137 72.1096 82.3137 69.094C82.3137 66.0784 84.7668 63.6252 87.7825 63.6252Z" fill="white"/>
<defs>
<filter id="filter0_d" x="70.1886" y="0.451172" width="103.121" height="152.754" filterUnits="userSpaceOnUse" color-interpolation-filters="sRGB">
<feFlood flood-opacity="0" result="BackgroundImageFix"/>
<feColorMatrix in="SourceAlpha" type="matrix" values="0 0 0 0 0 0 0 0 0 0 0 0 0 0 0 0 0 0 127 0"/>
<feOffset dy="4"/>
<feGaussianBlur stdDeviation="19.5"/>
<feColorMatrix type="matrix" values="0 0 0 0 1 0 0 0 0 0.42 0 0 0 0 0 0 0 0 1 0"/>
<feBlend mode="normal" in2="BackgroundImageFix" result="effect1_dropShadow"/>
<feBlend mode="normal" in="SourceGraphic" in2="effect1_dropShadow" result="shape"/>
</filter>
<filter id="filter1_d" x="0.434204" y="1.70483" width="102.822" height="152.765" filterUnits="userSpaceOnUse" color-interpolation-filters="sRGB">
<feFlood flood-opacity="0" result="BackgroundImageFix"/>
<feColorMatrix in="SourceAlpha" type="matrix" values="0 0 0 0 0 0 0 0 0 0 0 0 0 0 0 0 0 0 127 0"/>
<feOffset dy="4"/>
<feGaussianBlur stdDeviation="19.5"/>
<feColorMatrix type="matrix" values="0 0 0 0 1 0 0 0 0 0.42 0 0 0 0 0 0 0 0 1 0"/>
<feBlend mode="normal" in2="BackgroundImageFix" result="effect1_dropShadow"/>
<feBlend mode="normal" in="SourceGraphic" in2="effect1_dropShadow" result="shape"/>
</filter>
</defs>
</svg>
