<svg width="258" height="74" viewBox="0 0 258 74" fill="none" xmlns="http://www.w3.org/2000/svg">
<g filter="url(#filter0_d)">
<rect x="8.89624" y="8.76318" width="240.207" height="56.4737" fill="#130373"/>
<rect x="10.3962" y="10.2632" width="237.207" height="53.4737" stroke="#00C2FF" stroke-width="3"/>
</g>
<line y1="-2.5" x2="14.6035" y2="-2.5" transform="matrix(-1 0 0 1 248.957 13)" stroke="#00C2FF" stroke-width="5"/>
<line x1="247.284" y1="8" x2="247.284" y2="23" stroke="#00C2FF" stroke-width="5"/>
<line x1="9.04321" y1="10.5" x2="23.6467" y2="10.5" stroke="#00C2FF" stroke-width="5"/>
<line y1="-2.5" x2="15" y2="-2.5" transform="matrix(0 1 1 0 13.2156 8)" stroke="#00C2FF" stroke-width="5"/>
<line y1="-2.5" x2="14.6034" y2="-2.5" transform="matrix(1 0 0 -1 9.04321 61)" stroke="#00C2FF" stroke-width="5"/>
<line x1="10.7156" y1="66" x2="10.7156" y2="51" stroke="#00C2FF" stroke-width="5"/>
<line x1="248.957" y1="63.5" x2="234.353" y2="63.5" stroke="#00C2FF" stroke-width="5"/>
<line y1="-2.5" x2="15" y2="-2.5" transform="matrix(0 -1 -1 0 244.784 66)" stroke="#00C2FF" stroke-width="5"/>
<defs>
<filter id="filter0_d" x="0.89624" y="0.763184" width="256.207" height="72.4737" filterUnits="userSpaceOnUse" color-interpolation-filters="sRGB">
<feFlood flood-opacity="0" result="BackgroundImageFix"/>
<feColorMatrix in="SourceAlpha" type="matrix" values="0 0 0 0 0 0 0 0 0 0 0 0 0 0 0 0 0 0 127 0"/>
<feOffset/>
<feGaussianBlur stdDeviation="4"/>
<feColorMatrix type="matrix" values="0 0 0 0 0.00416666 0 0 0 0 0.8805 0 0 0 0 1 0 0 0 1 0"/>
<feBlend mode="normal" in2="BackgroundImageFix" result="effect1_dropShadow"/>
<feBlend mode="normal" in="SourceGraphic" in2="effect1_dropShadow" result="shape"/>
</filter>
</defs>
</svg>
