<svg width="133" height="123" viewBox="0 0 133 123" fill="none" xmlns="http://www.w3.org/2000/svg">
<circle cx="66.4551" cy="56.1096" r="36.5" stroke="white" stroke-opacity="0.29" stroke-width="10"/>
<g filter="url(#filter0_d)">
<path d="M28.7488 56.5362C28.9654 62.1365 30.3726 67.6228 32.8715 72.6095C35.3704 77.5963 38.9004 81.9625 43.2135 85.4015C47.5266 88.8405 52.5182 91.2688 57.8375 92.5158C63.1569 93.7628 68.6749 93.7982 74.004 92.6197C79.3331 91.4411 84.344 89.077 88.6845 85.6936C93.0251 82.3102 96.5901 77.9896 99.129 73.0352C101.668 68.0808 103.119 62.6129 103.381 57.0156C103.643 51.4183 102.708 45.8275 100.644 40.6358L99.2953 41.1997C101.279 46.1888 102.177 51.5616 101.926 56.9406C101.674 62.3196 100.28 67.5742 97.8397 72.3354C95.3998 77.0966 91.9739 81.2487 87.8026 84.5001C83.6313 87.7516 78.8159 90.0234 73.6946 91.156C68.5734 92.2886 63.2705 92.2546 58.1587 91.0562C53.0468 89.8579 48.2499 87.5243 44.105 84.2194C39.9601 80.9146 36.5678 76.7186 34.1664 71.9264C31.7649 67.1341 30.4126 61.8618 30.2045 56.4799L28.7488 56.5362Z" fill="#FF0000"/>
</g>
<g filter="url(#filter1_d)">
<path d="M97.8599 37.3918L97.8479 37.3972C97.7274 37.1902 97.6049 36.985 97.4805 36.7816C97.6096 36.9837 97.7361 37.1871 97.8599 37.3918Z" stroke="#6475F3" stroke-width="10"/>
</g>
<defs>
<filter id="filter0_d" x="0.242188" y="12.549" width="132.636" height="110.345" filterUnits="userSpaceOnUse" color-interpolation-filters="sRGB">
<feFlood flood-opacity="0" result="BackgroundImageFix"/>
<feColorMatrix in="SourceAlpha" type="matrix" values="0 0 0 0 0 0 0 0 0 0 0 0 0 0 0 0 0 0 127 0"/>
<feOffset/>
<feGaussianBlur stdDeviation="14"/>
<feColorMatrix type="matrix" values="0 0 0 0 1 0 0 0 0 0 0 0 0 0 0.6 0 0 0 1 0"/>
<feBlend mode="normal" in2="BackgroundImageFix" result="effect1_dropShadow"/>
<feBlend mode="normal" in="SourceGraphic" in2="effect1_dropShadow" result="shape"/>
</filter>
<filter id="filter1_d" x="83.4425" y="20.9416" width="25.1779" height="27.02" filterUnits="userSpaceOnUse" color-interpolation-filters="sRGB">
<feFlood flood-opacity="0" result="BackgroundImageFix"/>
<feColorMatrix in="SourceAlpha" type="matrix" values="0 0 0 0 0 0 0 0 0 0 0 0 0 0 0 0 0 0 127 0"/>
<feOffset/>
<feGaussianBlur stdDeviation="2"/>
<feColorMatrix type="matrix" values="0 0 0 0 0.392157 0 0 0 0 0.458824 0 0 0 0 0.952941 0 0 0 1 0"/>
<feBlend mode="normal" in2="BackgroundImageFix" result="effect1_dropShadow"/>
<feBlend mode="normal" in="SourceGraphic" in2="effect1_dropShadow" result="shape"/>
</filter>
</defs>
</svg>
