<svg width="120" height="131" viewBox="0 0 120 131" fill="none" xmlns="http://www.w3.org/2000/svg">
<circle cx="65.4668" cy="65.4683" r="36.5" stroke="white" stroke-opacity="0.29" stroke-width="10"/>
<g filter="url(#filter0_d)">
<path d="M66 28C60.4519 28 54.9712 29.1989 49.9428 31.5124C44.9144 33.8259 40.4603 37.198 36.8935 41.3917C33.3267 45.5854 30.7338 50.4989 29.2968 55.7871C27.8598 61.0754 27.6136 66.61 28.5756 72.0021C29.5375 77.3942 31.6843 82.5131 34.8651 86.999C38.0458 91.485 42.1833 95.2292 46.987 97.9685C51.7907 100.708 57.1439 102.376 62.6707 102.856C68.1974 103.335 73.7635 102.615 78.978 100.745L78.4718 99.3706C73.4607 101.168 68.1117 101.86 62.8005 101.399C57.4893 100.938 52.3449 99.3348 47.7286 96.7022C43.1122 94.0697 39.1361 90.4715 36.0794 86.1605C33.0227 81.8495 30.9596 76.9303 30.0352 71.7485C29.1107 66.5667 29.3473 61.2479 30.7283 56.166C32.1092 51.084 34.6011 46.3621 38.0287 42.332C41.4564 38.3018 45.7367 35.0613 50.569 32.838C55.4013 30.6147 60.6683 29.4626 66 29.4626L66 28Z" fill="#FF0000"/>
</g>
<g filter="url(#filter1_d)">
<mask id="path-3-inside-1" fill="white">
<path d="M96.7613 92.3488C90.8812 99.2896 82.8835 104.106 73.9986 106.057L71.8986 96.4953C78.6876 95.0043 84.7986 91.3241 89.2915 86.0206L96.7613 92.3488Z"/>
</mask>
<path d="M96.7613 92.3488C90.8812 99.2896 82.8835 104.106 73.9986 106.057L71.8986 96.4953C78.6876 95.0043 84.7986 91.3241 89.2915 86.0206L96.7613 92.3488Z" stroke="#3E9BFE" stroke-width="20" mask="url(#path-3-inside-1)"/>
</g>
<defs>
<filter id="filter0_d" x="0" y="0" width="106.978" height="131" filterUnits="userSpaceOnUse" color-interpolation-filters="sRGB">
<feFlood flood-opacity="0" result="BackgroundImageFix"/>
<feColorMatrix in="SourceAlpha" type="matrix" values="0 0 0 0 0 0 0 0 0 0 0 0 0 0 0 0 0 0 127 0"/>
<feOffset/>
<feGaussianBlur stdDeviation="14"/>
<feColorMatrix type="matrix" values="0 0 0 0 1 0 0 0 0 0 0 0 0 0 0.6 0 0 0 1 0"/>
<feBlend mode="normal" in2="BackgroundImageFix" result="effect1_dropShadow"/>
<feBlend mode="normal" in="SourceGraphic" in2="effect1_dropShadow" result="shape"/>
</filter>
<filter id="filter1_d" x="67.8987" y="82.0206" width="32.8626" height="28.0367" filterUnits="userSpaceOnUse" color-interpolation-filters="sRGB">
<feFlood flood-opacity="0" result="BackgroundImageFix"/>
<feColorMatrix in="SourceAlpha" type="matrix" values="0 0 0 0 0 0 0 0 0 0 0 0 0 0 0 0 0 0 127 0"/>
<feOffset/>
<feGaussianBlur stdDeviation="2"/>
<feColorMatrix type="matrix" values="0 0 0 0 0.243137 0 0 0 0 0.607843 0 0 0 0 0.996078 0 0 0 1 0"/>
<feBlend mode="normal" in2="BackgroundImageFix" result="effect1_dropShadow"/>
<feBlend mode="normal" in="SourceGraphic" in2="effect1_dropShadow" result="shape"/>
</filter>
</defs>
</svg>
